<svg width="1558" height="1559" viewBox="0 0 1558 1559" fill="none" xmlns="http://www.w3.org/2000/svg">
<path d="M779.008 127.24C650.649 127.24 525.173 165.303 418.446 236.616C311.719 307.928 228.536 409.287 179.415 527.876C130.294 646.464 117.442 776.956 142.483 902.848C167.525 1028.74 229.336 1144.38 320.099 1235.14C410.863 1325.91 526.503 1387.72 652.396 1412.76C778.288 1437.8 908.78 1424.95 1027.37 1375.83C1145.96 1326.71 1247.32 1243.52 1318.63 1136.8C1389.94 1030.07 1428 904.595 1428 776.236C1428 691.008 1411.22 606.616 1378.6 527.876C1345.99 449.136 1298.18 377.591 1237.92 317.327C1177.65 257.062 1106.11 209.257 1027.37 176.642C948.628 144.027 864.236 127.24 779.008 127.24V127.24Z" fill="white"/>
<path d="M778.98 1558.4C624.949 1558.4 474.377 1512.73 346.305 1427.15C218.233 1341.58 118.413 1219.95 59.4676 1077.64C0.522499 935.335 -14.9002 778.745 15.1497 627.674C45.1997 476.603 119.373 337.835 228.289 228.918C337.205 120.002 475.973 45.8291 627.045 15.7791C778.116 -14.2708 934.706 1.15189 1077.01 60.097C1219.32 119.042 1340.95 218.862 1426.52 346.934C1512.1 475.006 1557.77 625.578 1557.77 779.609C1558.01 861.35 1545.12 942.598 1519.61 1020.26C1518.94 1022.31 1517.87 1024.2 1516.45 1025.84C1515.04 1027.47 1513.32 1028.81 1511.39 1029.77C1509.46 1030.74 1507.36 1031.31 1505.21 1031.46C1503.05 1031.61 1500.89 1031.33 1498.85 1030.64C1496.81 1029.99 1494.91 1028.95 1493.28 1027.56C1491.65 1026.18 1490.31 1024.48 1489.35 1022.57C1488.38 1020.66 1487.8 1018.57 1487.65 1016.44C1487.5 1014.3 1487.78 1012.16 1488.46 1010.13C1512.93 935.747 1525.29 857.915 1525.07 779.609C1525.01 601.794 1461.43 429.849 1345.78 294.778C1230.13 159.707 1070.03 70.3978 894.347 42.9546C718.662 15.5114 538.952 51.7397 387.622 145.107C236.291 238.475 123.298 382.837 69.0158 552.165C14.7337 721.492 22.7348 904.643 91.5763 1068.59C160.418 1232.54 285.57 1366.5 444.466 1446.31C603.362 1526.13 785.546 1546.55 958.169 1503.89C1130.79 1461.23 1282.49 1358.3 1385.92 1213.66C1386.95 1211.49 1388.45 1209.57 1390.31 1208.04C1392.17 1206.52 1394.34 1205.42 1396.67 1204.83C1399 1204.24 1401.44 1204.17 1403.8 1204.62C1406.16 1205.08 1408.39 1206.05 1410.33 1207.47C1412.28 1208.89 1413.88 1210.72 1415.04 1212.83C1416.19 1214.94 1416.87 1217.28 1417.01 1219.68C1417.16 1222.08 1416.78 1224.48 1415.89 1226.72C1415 1228.95 1413.63 1230.96 1411.88 1232.61C1339.8 1333.23 1244.81 1415.25 1134.76 1471.9C1024.71 1528.55 902.755 1558.2 778.98 1558.4V1558.4Z" fill="white"/>
<path d="M749.371 907.47C749.371 777.165 855.269 671.267 985.575 671.267C1028.49 671.267 1069.03 683.077 1103.68 703.154V671.267L1021.79 435.064C1013.92 412.231 991.874 395.696 965.891 395.696H532.852C506.869 395.696 484.824 412.231 476.95 435.064L395.066 671.267V986.205C395.066 1007.86 412.782 1025.57 434.434 1025.57H473.801C495.453 1025.57 513.168 1007.86 513.168 986.205V946.837H752.914C750.946 933.846 749.371 920.855 749.371 907.47ZM532.852 454.747H965.891L1024.94 631.9H473.801L532.852 454.747ZM532.852 828.736C500.177 828.736 473.801 802.36 473.801 769.685C473.801 737.01 500.177 710.634 532.852 710.634C565.526 710.634 591.903 737.01 591.903 769.685C591.903 802.36 565.526 828.736 532.852 828.736Z" fill="#9E1724"/>
<circle cx="1005.26" cy="927.153" r="216.52" fill="#9E1724"/>
<path d="M906.836 973.084H946.203C946.203 989.618 973.17 1003.7 1005.25 1003.7C1037.34 1003.7 1064.3 989.618 1064.3 973.084C1064.3 956.243 1043.83 950.12 1000.53 942.006C958.801 933.892 906.836 923.787 906.836 881.227C906.836 853.823 935.771 830.553 975.729 822.745V789.37H1034.78V822.745C1074.74 830.553 1103.67 853.823 1103.67 881.227H1064.3C1064.3 864.693 1037.34 850.608 1005.25 850.608C973.17 850.608 946.203 864.693 946.203 881.227C946.203 898.067 966.674 904.191 1009.98 912.305C1051.71 920.419 1103.67 930.524 1103.67 973.084C1103.67 1000.49 1074.74 1023.76 1034.78 1031.57V1064.94H975.729V1031.57C935.771 1023.76 906.836 1000.49 906.836 973.084Z" fill="white"/>
</svg>
