<?xml version="1.0" encoding="utf-8"?>
<!-- Generator: Adobe Illustrator 24.1.0, SVG Export Plug-In . SVG Version: 6.00 Build 0)  -->
<svg version="1.1" id="Capa_1" xmlns="http://www.w3.org/2000/svg" xmlns:xlink="http://www.w3.org/1999/xlink" x="0px" y="0px"
	 viewBox="0 0 1558 1558" style="enable-background:new 0 0 1558 1558;" xml:space="preserve">
<style type="text/css">
	.st0{fill:#FFFFFF;}
	.st1{fill:#9E1724;}
</style>
<g>
	<path class="st0" d="M1029.1,181.1c-78.8-32.7-163.2-49.5-248.4-49.5c-128.4,0-253.8,38.1-360.6,109.4
		c-106.7,71.3-189.9,172.7-239,291.3c-49.1,118.6-62,249.1-36.9,375c25,125.9,86.9,241.5,177.6,332.3
		c90.8,90.8,206.4,152.6,332.3,177.6s256.4,12.2,375-36.9s219.9-132.3,291.3-239c71.3-106.7,109.4-232.2,109.4-360.6
		c0-85.2-16.8-169.6-49.4-248.4c-32.6-78.7-80.4-150.3-140.7-210.5C1179.4,261.5,1107.9,213.7,1029.1,181.1z M676.1,789.8v227.3
		H486.7V714H373l378.9-341l378.9,341h-113.7v19c0,0-23.2-1.8-37.9,0c-23.2,2.9-75.8,18.9-75.8,18.9c-37.9,19-56.8,37.9-56.8,37.9
		l-18.9,18.9v-18.9H676.1z M998.2,1168.7c-115.1,0-208.4-93.3-208.4-208.4s93.3-208.4,208.4-208.4s208.4,93.3,208.4,208.4
		S1113.3,1168.7,998.2,1168.7z"/>
	<path class="st0" d="M1426.4,346.1c-85.6-128-207.2-227.9-349.5-286.8C934.6,0.4,778-15,626.9,15S337,119.2,228.1,228.1
		S45,475.8,15,626.9c-30.1,151-14.6,307.6,44.3,449.9c58.9,142.3,158.7,263.9,286.8,349.5c128.1,85.6,278.7,131.3,432.7,131.3
		c123.8-0.2,245.8-29.9,356-86.7c110-56.7,205-138.7,277.1-239.3c1.7-1.6,3.1-3.7,4-5.9s1.3-4.6,1.1-7s-0.8-4.7-2-6.8
		c-1.2-2.1-2.8-3.9-4.7-5.3s-4.1-2.3-6.5-2.8c-2.3-0.5-4.8-0.4-7.1,0.2c-2.4,0.6-4.6,1.7-6.4,3.2c-1.9,1.5-3.4,3.4-4.4,5.6
		c-103.5,144.6-255.2,247.5-427.8,290.2c-172.6,42.6-354.8,22.2-513.7-57.6c-158.9-79.8-284.1-213.8-352.9-377.7
		C22.6,903.8,14.6,720.6,68.9,551.3c54.2-169.3,167.2-313.6,318.6-407c151.3-93.4,331-129.6,506.7-102.2
		C1069.9,69.6,1230,158.9,1345.6,294c115.7,135,179.2,307,179.2,484.8c0.2,78.3-12.1,156.1-36.6,230.5c-0.7,2-1,4.2-0.8,6.3
		s0.7,4.2,1.7,6.1c0.9,1.9,2.3,3.6,3.9,5c1.7,1.4,3.6,2.5,5.6,3.1c2.1,0.7,4.2,1,6.4,0.8s4.3-0.7,6.2-1.7c2-0.9,3.7-2.3,5.1-3.9
		c1.4-1.6,2.5-3.6,3.2-5.6c25.5-77.6,38.4-158.9,38.2-240.6C1557.7,624.7,1512,474.2,1426.4,346.1z"/>
	<path class="st1" d="M998.2,751.9c-115.1,0-208.4,93.3-208.4,208.4s93.3,208.4,208.4,208.4s208.4-93.3,208.4-208.4
		S1113.3,751.9,998.2,751.9z M1026.7,1060.8v32.1h-56.8v-32.1c-38.6-7.5-66.4-29.9-66.4-56.3h37.9c0,15.9,26,29.5,56.8,29.5
		c30.9,0,56.8-13.6,56.8-29.5c0-16.2-19.7-22.1-61.4-29.9c-40.2-7.8-90.2-17.5-90.2-58.5c0-26.4,27.9-48.8,66.3-56.3v-32.1h56.8
		v32.1c38.5,7.5,66.3,29.9,66.3,56.3H1055c0-15.9-26-29.5-56.8-29.5c-30.9,0-56.8,13.6-56.8,29.5c0,16.2,19.7,22.1,61.4,29.9
		c40.2,7.8,90.2,17.5,90.2,58.5C1093,1030.9,1065.1,1053.3,1026.7,1060.8z"/>
	<path class="st1" d="M827.7,808.7l18.9-18.9c0,0,18.9-18.9,56.8-37.9c0,0,52.6-16,75.8-18.9c14.7-1.8,37.9,0,37.9,0v-19h113.7
		L751.9,373L373,714h113.7v303.1h189.4V789.8h151.6V808.7z"/>
	<path class="st0" d="M1002.8,946c-41.7-7.8-61.4-13.7-61.4-29.9c0-15.9,25.9-29.5,56.8-29.5c30.8,0,56.8,13.6,56.8,29.5h37.8
		c0-26.4-27.8-48.8-66.3-56.3v-32.1h-56.8v32.1c-38.4,7.5-66.3,29.9-66.3,56.3c0,41,50,50.7,90.2,58.5c41.7,7.8,61.4,13.7,61.4,29.9
		c0,15.9-25.9,29.5-56.8,29.5c-30.8,0-56.8-13.6-56.8-29.5h-37.9c0,26.4,27.8,48.8,66.4,56.3v32.1h56.8v-32.1
		c38.4-7.5,66.3-29.9,66.3-56.3C1093,963.5,1043,953.8,1002.8,946z"/>
</g>
</svg>
