<?xml version="1.0" encoding="utf-8"?>
<!-- Generator: Adobe Illustrator 24.1.0, SVG Export Plug-In . SVG Version: 6.00 Build 0)  -->
<svg version="1.1" id="Capa_1" xmlns="http://www.w3.org/2000/svg" xmlns:xlink="http://www.w3.org/1999/xlink" x="0px" y="0px"
	 viewBox="0 0 1558 1559" style="enable-background:new 0 0 1558 1559;" xml:space="preserve">
<style type="text/css">
	.st0{fill:#FFFFFF;}
	.st1{fill:#BF3822;}
</style>
<path class="st0" d="M780.7,132.2c-128.4,0-253.8,38.1-360.6,109.4c-106.7,71.3-189.9,172.7-239,291.3s-62,249.1-36.9,375
	c25,125.9,86.9,241.5,177.6,332.3c90.8,90.8,206.4,152.6,332.3,177.6s256.4,12.2,375-36.9s219.9-132.3,291.3-239
	c71.3-106.7,109.4-232.2,109.4-360.6c0-85.2-16.8-169.6-49.4-248.4c-32.6-78.7-80.4-150.3-140.7-210.5
	c-60.3-60.3-131.8-108.1-210.6-140.7C950.3,149,865.9,132.2,780.7,132.2z"/>
<path class="st0" d="M778.8,1558.2c-154,0-304.6-45.7-432.7-131.3c-128.1-85.6-227.9-207.2-286.8-349.5S-15.1,778.5,15,627.5
	c30-151.1,104.2-289.8,213.1-398.8C337,119.8,475.8,45.6,626.9,15.6s307.7-14.6,450,44.3s263.9,158.8,349.5,286.8
	c85.6,128.1,131.3,278.6,131.3,432.7c0.2,81.7-12.7,163-38.2,240.6c-0.7,2.1-1.8,4-3.2,5.6c-1.4,1.6-3.1,3-5.1,3.9
	c-1.9,1-4,1.5-6.2,1.7s-4.3-0.1-6.4-0.8c-2-0.6-3.9-1.7-5.6-3.1c-1.6-1.4-3-3.1-3.9-5c-1-1.9-1.5-4-1.7-6.1s0.1-4.3,0.8-6.3
	c24.5-74.4,36.8-152.2,36.6-230.5c-0.1-177.8-63.6-349.8-179.3-484.8C1230,159.5,1069.9,70.2,894.2,42.7
	c-175.7-27.4-355.4,8.8-506.7,102.2c-151.4,93.4-264.4,237.7-318.6,407c-54.3,169.3-46.3,352.5,22.6,516.4
	c68.8,163.9,194,297.9,352.9,377.7c158.9,79.8,341.1,100.2,513.7,57.6c172.6-42.7,324.3-145.6,427.8-290.2c1-2.2,2.5-4.1,4.4-5.6
	c1.8-1.5,4-2.6,6.4-3.2c2.3-0.6,4.8-0.7,7.1-0.2c2.4,0.4,4.6,1.4,6.5,2.8s3.5,3.3,4.7,5.4s1.8,4.5,2,6.8c0.2,2.4-0.2,4.8-1.1,7
	s-2.3,4.2-4,5.9c-72.1,100.6-167.1,182.6-277.1,239.3C1024.6,1528.3,902.6,1558,778.8,1558.2L778.8,1558.2z"/>
<circle class="st1" cx="998.2" cy="960.9" r="208.4"/>
<path class="st1" d="M676.1,1017.7V790.4h151.6v18.9l18.9-18.9c0,0,18.9-18.9,56.8-37.9c0,0,52.6-16,75.8-18.9
	c14.7-1.8,37.9,0,37.9,0v-18.9h113.7l-378.9-341L373,714.6h113.7v303.1L676.1,1017.7L676.1,1017.7z"/>
<path class="st0" d="M903.5,1005.1h37.9c0,15.9,26,29.5,56.8,29.5c30.9,0,56.8-13.6,56.8-29.5c0-16.2-19.7-22.1-61.4-29.9
	c-40.2-7.8-90.2-17.5-90.2-58.5c0-26.4,27.9-48.8,66.3-56.3v-32.1h56.8v32.1c38.5,7.5,66.3,29.9,66.3,56.3H1055
	c0-15.9-26-29.5-56.8-29.5c-30.9,0-56.8,13.6-56.8,29.5c0,16.2,19.7,22.1,61.4,29.9c40.2,7.8,90.2,17.5,90.2,58.5
	c0,26.4-27.9,48.8-66.3,56.3v32.1h-56.8v-32.1C931.3,1053.9,903.5,1031.5,903.5,1005.1z"/>
</svg>
