<svg width="1496" height="1495" viewBox="0 0 1496 1495" fill="none" xmlns="http://www.w3.org/2000/svg">
<path d="M747.801 121.482C624.622 121.482 504.209 158.009 401.79 226.444C299.37 294.878 219.544 392.147 172.405 505.95C125.266 619.752 112.933 744.978 136.964 865.79C160.995 986.602 220.311 1097.58 307.412 1184.68C394.513 1271.78 505.486 1331.09 626.298 1355.12C747.11 1379.16 872.335 1366.82 986.138 1319.68C1099.94 1272.54 1197.21 1192.72 1265.64 1090.3C1334.08 987.879 1370.61 867.466 1370.61 744.287C1370.61 662.499 1354.5 581.512 1323.2 505.95C1291.9 430.388 1246.02 361.73 1188.19 303.898C1130.36 246.065 1061.7 200.189 986.138 168.891C910.576 137.592 829.589 121.482 747.801 121.482V121.482Z" fill="#9E1724"/>
<path d="M747.774 1494.89C599.959 1494.89 455.464 1451.06 332.56 1368.93C209.656 1286.81 113.865 1170.09 57.2983 1033.53C0.732026 896.965 -14.0683 746.694 14.769 601.72C43.6062 456.745 114.786 323.577 219.307 219.056C323.828 114.535 456.995 43.3557 601.97 14.5185C746.945 -14.3188 897.215 0.481538 1033.78 57.0478C1170.34 113.614 1287.06 209.406 1369.19 332.309C1451.31 455.213 1495.14 599.708 1495.14 747.523C1495.36 825.965 1483 903.934 1458.52 978.459C1457.87 980.427 1456.84 982.247 1455.49 983.814C1454.13 985.382 1452.48 986.666 1450.63 987.592C1448.78 988.518 1446.76 989.069 1444.69 989.212C1442.63 989.355 1440.55 989.087 1438.59 988.424C1436.63 987.804 1434.82 986.799 1433.25 985.469C1431.68 984.139 1430.4 982.509 1429.47 980.677C1428.54 978.844 1427.99 976.845 1427.85 974.796C1427.7 972.747 1427.96 970.689 1428.62 968.744C1452.1 897.36 1463.96 822.668 1463.75 747.523C1463.7 576.884 1402.68 411.878 1291.7 282.258C1180.72 152.638 1027.08 66.9329 858.485 40.5972C689.89 14.2616 517.433 49.0278 372.209 138.627C226.986 228.227 118.553 366.763 66.4612 529.258C14.3697 691.752 22.0479 867.511 88.1112 1024.84C154.175 1182.18 274.276 1310.73 426.76 1387.32C579.243 1463.92 754.075 1483.51 919.731 1442.57C1085.39 1401.64 1230.97 1302.86 1330.22 1164.05C1331.21 1161.97 1332.65 1160.13 1334.43 1158.67C1336.22 1157.2 1338.3 1156.15 1340.54 1155.58C1342.78 1155.01 1345.11 1154.95 1347.38 1155.39C1349.64 1155.82 1351.78 1156.76 1353.65 1158.12C1355.51 1159.48 1357.05 1161.23 1358.16 1163.26C1359.27 1165.28 1359.92 1167.53 1360.06 1169.83C1360.2 1172.13 1359.83 1174.44 1358.98 1176.59C1358.13 1178.73 1356.82 1180.66 1355.13 1182.24C1285.96 1278.8 1194.8 1357.52 1089.19 1411.88C983.584 1466.24 866.554 1494.7 747.774 1494.89V1494.89Z" fill="#9E1724"/>
<path d="M719.36 870.225C719.36 745.178 820.984 643.554 946.031 643.554C987.21 643.554 1026.12 654.887 1059.37 674.154V643.554L980.787 416.883C973.232 394.971 952.076 379.104 927.142 379.104H511.578C486.644 379.104 465.489 394.971 457.933 416.883L379.354 643.554V945.782C379.354 966.56 396.354 983.56 417.132 983.56H454.911C475.689 983.56 492.689 966.56 492.689 945.782V908.003H722.76C720.871 895.536 719.36 883.069 719.36 870.225ZM511.578 435.772H927.142L983.81 605.775H454.911L511.578 435.772ZM511.578 794.668C480.222 794.668 454.911 769.356 454.911 738C454.911 706.644 480.222 681.332 511.578 681.332C542.934 681.332 568.246 706.644 568.246 738C568.246 769.356 542.934 794.668 511.578 794.668Z" fill="white"/>
<circle cx="964.92" cy="889.112" r="207.782" fill="white"/>
<path d="M870.471 933.19H908.25C908.25 949.057 934.128 962.574 964.917 962.574C995.707 962.574 1021.59 949.057 1021.59 933.19C1021.59 917.03 1001.94 911.153 960.384 903.366C920.339 895.58 870.471 885.883 870.471 845.04C870.471 818.742 898.238 796.411 936.584 788.918V756.891H993.251V788.918C1031.6 796.411 1059.36 818.742 1059.36 845.04H1021.59C1021.59 829.174 995.707 815.657 964.917 815.657C934.128 815.657 908.25 829.174 908.25 845.04C908.25 861.201 927.895 867.078 969.451 874.865C1009.5 882.651 1059.36 892.348 1059.36 933.19C1059.36 959.488 1031.6 981.82 993.251 989.312V1021.34H936.584V989.312C898.238 981.82 870.471 959.488 870.471 933.19Z" fill="#9D1923"/>
</svg>
