<svg width="1496" height="1495" viewBox="0 0 1496 1495" fill="none" xmlns="http://www.w3.org/2000/svg">
<path d="M748.058 121.482C624.878 121.482 504.466 158.009 402.046 226.444C299.626 294.878 219.8 392.147 172.661 505.95C125.523 619.752 113.189 744.978 137.22 865.79C161.251 986.602 220.568 1097.58 307.668 1184.68C394.769 1271.78 505.742 1331.09 626.554 1355.12C747.367 1379.16 872.592 1366.82 986.394 1319.68C1100.2 1272.54 1197.47 1192.72 1265.9 1090.3C1334.33 987.879 1370.86 867.466 1370.86 744.287C1370.86 662.499 1354.75 581.512 1323.45 505.95C1292.15 430.388 1246.28 361.73 1188.45 303.898C1130.61 246.065 1061.96 200.189 986.394 168.891C910.832 137.592 829.845 121.482 748.058 121.482V121.482Z" fill="#9E1724"/>
<path d="M748.03 1494.89C600.215 1494.89 455.72 1451.06 332.816 1368.93C209.913 1286.81 114.121 1170.09 57.5547 1033.53C0.988374 896.965 -13.812 746.694 15.0253 601.72C43.8626 456.745 115.042 323.577 219.563 219.056C324.084 114.535 457.252 43.3557 602.227 14.5185C747.201 -14.3188 897.471 0.481538 1034.03 57.0478C1170.6 113.614 1287.32 209.406 1369.44 332.309C1451.56 455.213 1495.4 599.708 1495.4 747.523C1495.62 825.965 1483.25 903.934 1458.77 978.459C1458.13 980.427 1457.1 982.247 1455.74 983.814C1454.39 985.382 1452.74 986.666 1450.88 987.592C1449.03 988.518 1447.01 989.069 1444.95 989.212C1442.88 989.355 1440.81 989.087 1438.84 988.424C1436.89 987.804 1435.07 986.799 1433.51 985.469C1431.94 984.139 1430.66 982.509 1429.73 980.677C1428.8 978.844 1428.25 976.845 1428.1 974.796C1427.96 972.747 1428.22 970.689 1428.88 968.744C1452.36 897.36 1464.22 822.668 1464.01 747.523C1463.95 576.884 1402.93 411.878 1291.95 282.258C1180.98 152.638 1027.34 66.9329 858.741 40.5972C690.146 14.2616 517.689 49.0278 372.466 138.627C227.242 228.227 118.809 366.763 66.7175 529.258C14.6261 691.752 22.3042 867.511 88.3676 1024.84C154.431 1182.18 274.532 1310.73 427.016 1387.32C579.5 1463.92 754.331 1483.51 919.988 1442.57C1085.64 1401.64 1231.22 1302.86 1330.48 1164.05C1331.47 1161.97 1332.91 1160.13 1334.69 1158.67C1336.47 1157.2 1338.56 1156.15 1340.8 1155.58C1343.03 1155.01 1345.37 1154.95 1347.63 1155.39C1349.9 1155.82 1352.04 1156.76 1353.9 1158.12C1355.77 1159.48 1357.31 1161.23 1358.42 1163.26C1359.53 1165.28 1360.17 1167.53 1360.32 1169.83C1360.46 1172.13 1360.09 1174.44 1359.24 1176.59C1358.39 1178.73 1357.07 1180.66 1355.39 1182.24C1286.22 1278.8 1195.06 1357.52 1089.45 1411.88C983.84 1466.24 866.81 1494.7 748.03 1494.89V1494.89Z" fill="#9E1724"/>
<path d="M1004.17 435.243H966.451V358.051H891.013V435.243H589.259V358.051H513.821V435.243H476.102C456.094 435.243 436.906 443.376 422.759 457.853C408.612 472.329 400.664 491.963 400.664 512.436V1052.78C400.664 1073.26 408.612 1092.89 422.759 1107.37C436.906 1121.84 456.094 1129.98 476.102 1129.98H1004.17C1024.18 1129.98 1043.37 1121.84 1057.51 1107.37C1071.66 1092.89 1079.61 1073.26 1079.61 1052.78V512.436C1079.61 491.963 1071.66 472.329 1057.51 457.853C1043.37 443.376 1024.18 435.243 1004.17 435.243V435.243ZM1004.17 1052.78H476.102V666.822H1004.17V1052.78ZM1004.17 589.629H476.102V512.436H1004.17V589.629ZM740.136 705.418C815.574 705.418 853.293 798.821 800.109 853.628C746.548 908.435 655.268 869.452 655.268 792.26C655.268 744.014 692.987 705.418 740.136 705.418ZM909.872 1009.56V1014.19H570.4V1009.56C570.4 961.312 645.838 922.715 740.136 922.715C834.434 922.715 909.872 961.312 909.872 1009.56Z" fill="white"/>
</svg>
