<svg width="1558" height="1559" viewBox="0 0 1558 1559" fill="none" xmlns="http://www.w3.org/2000/svg">
<path d="M780.623 132.441C652.264 132.441 526.787 170.504 420.06 241.817C313.333 313.129 230.15 414.489 181.029 533.077C131.908 651.665 119.056 782.157 144.098 908.05C169.139 1033.94 230.95 1149.58 321.714 1240.35C412.477 1331.11 528.117 1392.92 654.01 1417.96C779.903 1443 910.394 1430.15 1028.98 1381.03C1147.57 1331.91 1248.93 1248.73 1320.24 1142C1391.56 1035.27 1429.62 909.796 1429.62 781.437C1429.62 696.21 1412.83 611.817 1380.22 533.077C1347.6 454.337 1299.8 382.793 1239.53 322.528C1179.27 262.263 1107.72 214.458 1028.98 181.843C950.243 149.228 865.85 132.441 780.623 132.441V132.441Z" fill="white"/>
<path d="M778.795 1558.4C624.764 1558.4 474.192 1512.73 346.12 1427.15C218.048 1341.58 118.228 1219.95 59.2826 1077.64C0.337441 935.335 -15.0853 778.745 14.9647 627.674C45.0146 476.603 119.188 337.835 228.104 228.918C337.02 120.002 475.788 45.8291 626.86 15.7791C777.931 -14.2708 934.521 1.15189 1076.83 60.097C1219.13 119.042 1340.76 218.862 1426.34 346.934C1511.91 475.006 1557.59 625.578 1557.59 779.609C1557.82 861.35 1544.94 942.598 1519.43 1020.26C1518.75 1022.31 1517.68 1024.2 1516.27 1025.84C1514.86 1027.47 1513.14 1028.81 1511.21 1029.77C1509.28 1030.74 1507.17 1031.31 1505.02 1031.46C1502.87 1031.61 1500.71 1031.33 1498.66 1030.64C1496.62 1029.99 1494.73 1028.95 1493.1 1027.56C1491.47 1026.18 1490.13 1024.48 1489.16 1022.57C1488.19 1020.66 1487.62 1018.57 1487.47 1016.44C1487.31 1014.3 1487.59 1012.16 1488.28 1010.13C1512.74 935.747 1525.1 857.915 1524.88 779.609C1524.82 601.794 1461.24 429.849 1345.59 294.778C1229.95 159.707 1069.85 70.3978 894.162 42.9546C718.477 15.5114 538.767 51.7397 387.437 145.107C236.106 238.475 123.113 382.837 68.8307 552.165C14.5486 721.492 22.5497 904.643 91.3913 1068.59C160.233 1232.54 285.385 1366.5 444.281 1446.31C603.177 1526.13 785.361 1546.55 957.984 1503.89C1130.61 1461.23 1282.31 1358.3 1385.74 1213.66C1386.77 1211.49 1388.27 1209.57 1390.13 1208.04C1391.98 1206.52 1394.16 1205.42 1396.49 1204.83C1398.82 1204.24 1401.25 1204.17 1403.61 1204.62C1405.97 1205.08 1408.21 1206.05 1410.15 1207.47C1412.09 1208.89 1413.7 1210.72 1414.85 1212.83C1416.01 1214.94 1416.68 1217.28 1416.83 1219.68C1416.98 1222.08 1416.59 1224.48 1415.71 1226.72C1414.82 1228.95 1413.45 1230.96 1411.7 1232.61C1339.61 1333.23 1244.62 1415.25 1134.57 1471.9C1024.52 1528.55 902.57 1558.2 778.795 1558.4V1558.4Z" fill="white"/>
<path d="M776.053 695.514C851.007 695.514 888.484 786.209 835.642 839.427C782.424 892.644 691.729 854.792 691.729 779.838C691.729 732.991 729.206 695.514 776.053 695.514ZM944.7 1032.31C944.7 1032.59 944.476 1032.81 944.2 1032.81H607.905C607.629 1032.81 607.405 1032.59 607.405 1032.31V990.834C607.405 943.988 682.36 906.511 776.053 906.511C869.746 906.511 944.7 943.988 944.7 990.834V1032.31ZM1038.39 1069.79C1038.39 1070.06 1038.17 1070.29 1037.89 1070.29H514.212C513.936 1070.29 513.712 1070.06 513.712 1069.79V658.537C513.712 658.261 513.936 658.037 514.212 658.037H1037.89C1038.17 658.037 1038.39 658.261 1038.39 658.537V1069.79ZM926.462 395.696C926.185 395.696 925.962 395.92 925.962 396.196V470.151C925.962 470.427 925.738 470.651 925.462 470.651H626.644C626.368 470.651 626.144 470.427 626.144 470.151V396.196C626.144 395.92 625.92 395.696 625.644 395.696H551.689C551.413 395.696 551.189 395.92 551.189 396.196V470.151C551.189 470.427 550.966 470.651 550.689 470.651H513.712C493.833 470.651 474.768 478.548 460.711 492.604C446.655 506.661 438.758 525.726 438.758 545.605V1070.29C438.758 1090.17 446.655 1109.23 460.711 1123.29C474.768 1137.34 493.833 1145.24 513.712 1145.24H1038.39C1058.27 1145.24 1077.34 1137.34 1091.39 1123.29C1105.45 1109.23 1113.35 1090.17 1113.35 1070.29V545.605C1113.35 525.726 1105.45 506.661 1091.39 492.604C1077.34 478.548 1058.27 470.651 1038.39 470.651H1001.42C1001.14 470.651 1000.92 470.427 1000.92 470.151V396.196C1000.92 395.92 1000.69 395.696 1000.42 395.696H926.462Z" fill="#9E1724"/>
</svg>
