<?xml version="1.0" encoding="utf-8"?>
<!-- Generator: Adobe Illustrator 25.2.1, SVG Export Plug-In . SVG Version: 6.00 Build 0)  -->
<svg version="1.1" id="Capa_1" xmlns="http://www.w3.org/2000/svg" xmlns:xlink="http://www.w3.org/1999/xlink" x="0px" y="0px"
	 viewBox="0 0 60 60" enable-background="new 0 0 60 60" xml:space="preserve">
<g>
	<path fill="#9E1724" d="M30,0C13.4,0,0,13.4,0,30s13.4,30,30,30c9.7,0,18.7-4.7,24.4-12.5c0.1-0.1,0.1-0.1,0.1-0.2
		c0.1-0.3,0-0.7-0.3-0.8c-0.3-0.1-0.7,0-0.8,0.3c-5.4,7.5-14.1,12-23.4,12C14.2,58.7,1.3,45.9,1.3,30C1.3,14.2,14.1,1.3,30,1.3
		c15.9,0,28.7,12.9,28.7,28.7c0,3-0.5,6-1.4,8.9c0,0,0,0,0,0c-0.1,0.3,0.1,0.7,0.4,0.8c0,0,0,0,0,0c0.3,0.1,0.7-0.1,0.8-0.4
		c1-3,1.5-6.1,1.5-9.3C60,13.4,46.6,0,30,0z"/>
	<path fill="#9E1724" d="M30,5C16.2,5,5,16.2,5,30s11.2,25,25,25s25-11.2,25-25S43.8,5,30,5z M45.8,36.8c-3.8,8.9-14,13-22.8,9.3
		c-8.9-3.8-13-14-9.3-22.8c3.8-8.9,14-13,22.8-9.3c0.6,0.2,1.1,0.5,1.7,0.8l-2.5,2.5c-1.9-0.9-3.9-1.3-6-1.3
		c-7.8,0-14.1,6.3-14.1,14.1c0,7.8,6.3,14.1,14.1,14.1s14.1-6.3,14.1-14.1c0-2-0.4-3.9-1.2-5.7l2.5-2.5c0.3,0.5,0.5,0.9,0.7,1.4
		C47.7,27.6,47.7,32.5,45.8,36.8z M47.4,16.9l-19,19c0,0,0,0,0,0c-0.4,0.4-1,0.4-1.4,0l-2.7-2.7l-3.3-3.3c0,0,0,0,0,0
		c-0.4-0.4-0.4-1,0-1.4l2.7-2.7c0,0,0,0,0,0c0.4-0.4,1-0.4,1.4,0l2.6,2.6l15.6-15.6c0,0,0,0,0,0c0.4-0.4,1-0.4,1.4,0l2.7,2.7
		c0,0,0,0,0,0C47.8,15.9,47.8,16.5,47.4,16.9z"/>
</g>
</svg>
