<?xml version="1.0" encoding="utf-8"?>
<!-- Generator: Adobe Illustrator 25.2.1, SVG Export Plug-In . SVG Version: 6.00 Build 0)  -->
<svg version="1.1" id="Capa_1" xmlns="http://www.w3.org/2000/svg" xmlns:xlink="http://www.w3.org/1999/xlink" x="0px" y="0px"
	 viewBox="0 0 60 60" enable-background="new 0 0 60 60" xml:space="preserve">
<g>
	<path fill="#9E1724" d="M30,0C13.4,0,0,13.4,0,30s13.4,30,30,30c9.7,0,18.7-4.7,24.4-12.5c0.1-0.1,0.1-0.1,0.1-0.2
		c0.1-0.3,0-0.7-0.3-0.8c-0.3-0.1-0.7,0-0.8,0.3c-5.4,7.5-14.1,12-23.4,12C14.2,58.7,1.3,45.9,1.3,30C1.3,14.2,14.1,1.3,30,1.3
		c15.9,0,28.7,12.9,28.7,28.7c0,3-0.5,6-1.4,8.9c0,0,0,0,0,0c-0.1,0.3,0.1,0.7,0.4,0.8c0,0,0,0,0,0c0.3,0.1,0.7-0.1,0.8-0.4
		c1-3,1.5-6.1,1.5-9.3C60,13.4,46.6,0,30,0z"/>
	<path fill="#9E1724" d="M37,41.3h-2v3l2,0c0.4,0,0.8-0.1,1-0.4c0.2-0.3,0.3-0.7,0.3-1.1c0-0.4-0.1-0.8-0.3-1.1
		C37.8,41.4,37.4,41.2,37,41.3z"/>
	<path fill="#9E1724" d="M30.7,41.3h-2v3l2,0c0.4,0,0.8-0.1,1-0.4c0.2-0.3,0.3-0.7,0.3-1.1c0-0.4-0.1-0.8-0.3-1.1
		C31.4,41.4,31.1,41.2,30.7,41.3z"/>
	<path fill="#9E1724" d="M30,5C16.2,5,5,16.2,5,30s11.2,25,25,25s25-11.2,25-25S43.8,5,30,5z M38.8,18.6c0.8,0.9,2.4,1.2,2.7,2.3
		c0.8,2.3-3,5.7-5.8,5.6C37.2,24.8,39.7,21.8,38.8,18.6L38.8,18.6z M35,14.6c0.3,0,0.6-0.1,0.9-0.1l0,0c0.4,0,0.8,0.1,1.2,0.3
		c2,1.5,0.9,6.4-1.4,7.9c0.2-2.2,0.5-6.1-2.2-8.1C34.1,14.6,34.5,14.6,35,14.6z M27,14.4c1.1-0.5,1.8-1.9,3-1.9
		c2.5,0,4.5,4.7,3.5,7.2C32.4,17.8,30.4,14.5,27,14.4L27,14.4z M38.4,31.1c-0.6,1-0.3,2.6-1.3,3.3c-2,1.5-6.4-1.1-7.1-3.8
		C32.1,31.6,35.6,33,38.4,31.1z M22.9,14.8c0.4-0.3,0.9-0.4,1.4-0.4c2.2,0,5.1,2.1,5.7,4.2c-2-0.9-5.6-2.3-8.4-0.5
		C22.1,17.1,21.9,15.5,22.9,14.8z M18.5,20.9c0.5-1.4,2.5-2.1,4.4-2.1c1.3-0.1,2.5,0.3,3.5,1c-2.2,0.5-5.9,1.4-7.1,4.6
		C19.2,23.1,18.1,22,18.5,20.9z M26.4,34.7c-0.5-0.1-1-0.1-1.5,0c-0.7,0.2-1.5,0.1-2.1-0.3c-2-1.4-0.9-6.4,1.4-7.9
		C24,28.8,23.8,32.6,26.4,34.7z M18.5,28.4c-0.8-2.3,2.9-5.6,5.6-5.6h0.1c-1.5,1.7-3.9,4.6-3,7.9C20.4,29.8,18.8,29.5,18.5,28.4z
		 M25.7,47.5L25.2,46h-2.8l-0.6,1.6h-0.9l2.5-7h0.7l2.5,7H25.7z M32.3,44.4c-0.4,0.4-1,0.7-1.6,0.6h-2v2.5h-0.9v-7l2.9,0
		c0.6,0,1.2,0.2,1.6,0.6c0.4,0.5,0.6,1,0.5,1.6C32.9,43.3,32.7,43.9,32.3,44.4z M30,36.7c-2.5,0-4.5-4.7-3.5-7.2
		c1.1,1.9,3.1,5.2,6.5,5.3C31.9,35.3,31.2,36.7,30,36.7z M38.6,44.4c-0.4,0.4-1,0.7-1.6,0.6h-2v2.5h-0.9v-7l2.9,0
		c0.6,0,1.2,0.2,1.6,0.6c0.4,0.5,0.6,1,0.5,1.6C39.2,43.3,39,43.9,38.6,44.4z M41.6,28.4c-0.8,2.3-5.9,2.8-8,1.1
		c2.2-0.5,5.9-1.4,7.1-4.6h0C40.9,26.1,41.9,27.2,41.6,28.4z"/>
	<polygon fill="#9E1724" points="22.5,45.3 25,45.3 23.8,41.8 	"/>
</g>
</svg>
