<?xml version="1.0" encoding="utf-8"?>
<!-- Generator: Adobe Illustrator 25.2.1, SVG Export Plug-In . SVG Version: 6.00 Build 0)  -->
<svg version="1.1" id="Capa_1" xmlns="http://www.w3.org/2000/svg" xmlns:xlink="http://www.w3.org/1999/xlink" x="0px" y="0px"
	 viewBox="0 0 60 60" enable-background="new 0 0 60 60" xml:space="preserve">
<g>
	<path fill="#9E1724" d="M30,0C13.4,0,0,13.4,0,30s13.4,30,30,30c9.7,0,18.7-4.7,24.4-12.5c0.1-0.1,0.1-0.1,0.1-0.2
		c0.1-0.3,0-0.7-0.3-0.8c-0.3-0.1-0.7,0-0.8,0.3c-5.4,7.5-14.1,12-23.4,12C14.2,58.7,1.3,45.9,1.3,30C1.3,14.2,14.1,1.3,30,1.3
		c15.9,0,28.7,12.9,28.7,28.7c0,3-0.5,6-1.4,8.9c0,0,0,0,0,0c-0.1,0.3,0.1,0.7,0.4,0.8c0,0,0,0,0,0c0.3,0.1,0.7-0.1,0.8-0.4
		c1-3,1.5-6.1,1.5-9.3C60,13.4,46.6,0,30,0z"/>
	<path fill="#9E1724" d="M46.2,22.2H13.8v15.6h32.4V22.2z M23.5,33.6c-0.1,0.3-0.2,0.6-0.4,0.9c-0.2,0.2-0.4,0.4-0.7,0.5
		c-0.2,0.1-0.5,0.2-0.8,0.3c-0.3,0.1-0.6,0.1-0.8,0.1v0.9h-1.9v-0.9c-0.9-0.1-1.9-0.3-2.8-0.7l0.5-1.6c0.8,0.2,1.4,0.4,1.9,0.5
		c0.4,0.1,0.9,0.1,1.3,0.1h0.5c0.2,0,0.3-0.1,0.5-0.1c0.2,0,0.3-0.1,0.4-0.2c0.1-0.1,0.2-0.3,0.3-0.4c0.1-0.2,0.1-0.5,0.1-0.7
		c0-0.2,0-0.4-0.1-0.6c-0.1-0.2-0.2-0.3-0.3-0.4c-0.1-0.1-0.3-0.2-0.5-0.3c-0.2-0.1-0.3-0.2-0.5-0.2l-0.6-0.2
		c-0.4-0.1-0.7-0.2-0.9-0.3c-0.3-0.1-0.6-0.3-0.8-0.4c-0.3-0.2-0.5-0.3-0.8-0.6c-0.2-0.2-0.4-0.5-0.5-0.8c-0.1-0.3-0.2-0.7-0.2-1
		c-0.1-1.5,1-2.7,2.5-2.8c0,0,0,0,0,0v-1h1.9v0.9c0.9,0.1,1.8,0.4,2.6,0.9l-0.9,1.5c-0.7-0.5-1.5-0.7-2.3-0.8c-0.2,0-0.5,0-0.7,0.1
		c-0.2,0-0.3,0.1-0.5,0.2c-0.1,0.1-0.2,0.2-0.3,0.3c-0.1,0.1-0.1,0.2-0.2,0.4c0,0.1-0.1,0.3,0,0.4c0,0.2,0,0.3,0.1,0.5
		c0.1,0.1,0.1,0.2,0.2,0.3c0.1,0.1,0.3,0.2,0.4,0.3c0.2,0.1,0.3,0.2,0.5,0.2l0.6,0.2l0.7,0.2l0.7,0.3c0.4,0.2,0.8,0.4,1.2,0.8
		c0.2,0.2,0.3,0.3,0.5,0.6c0.1,0.2,0.2,0.4,0.3,0.7c0.1,0.3,0.1,0.6,0.1,0.8C23.6,32.8,23.6,33.2,23.5,33.6z M36.8,33.5H25.2
		c0.1-0.4,0.1-0.9,0.1-1.3h11.5c0.4,0,0.7,0.3,0.7,0.7C37.5,33.2,37.2,33.5,36.8,33.5z M41.1,30.5C41,30.5,41,30.5,41.1,30.5
		l-15.9,0c-0.1-0.2-0.2-0.4-0.3-0.6c-0.1-0.3-0.3-0.5-0.5-0.8H41c0.4,0,0.7,0.3,0.7,0.6c0,0,0,0,0,0C41.7,30.2,41.4,30.5,41.1,30.5z
		 M43.2,27.5C43.2,27.5,43.2,27.5,43.2,27.5l-18.8,0l0.8-1.3h17.9c0.4,0,0.7,0.3,0.7,0.7C43.8,27.2,43.5,27.5,43.2,27.5z"/>
	<path fill="#9E1724" d="M30,5C16.2,5,5,16.2,5,30s11.2,25,25,25s25-11.2,25-25S43.8,5,30,5z M47.5,39.1h-35V20.9h35V39.1z"/>
</g>
</svg>
