<?xml version="1.0" encoding="utf-8"?>
<!-- Generator: Adobe Illustrator 25.2.1, SVG Export Plug-In . SVG Version: 6.00 Build 0)  -->
<svg version="1.1" id="Capa_1" xmlns="http://www.w3.org/2000/svg" xmlns:xlink="http://www.w3.org/1999/xlink" x="0px" y="0px"
	 viewBox="0 0 60 60" enable-background="new 0 0 60 60" xml:space="preserve">
<g>
	<path fill="#9E1724" d="M30,0C13.4,0,0,13.4,0,30s13.4,30,30,30c9.7,0,18.7-4.7,24.4-12.5c0.1-0.1,0.1-0.1,0.1-0.2
		c0.1-0.3,0-0.7-0.3-0.8c-0.3-0.1-0.7,0-0.8,0.3c-5.4,7.5-14.1,12-23.4,12C14.2,58.7,1.3,45.9,1.3,30C1.3,14.2,14.1,1.3,30,1.3
		c15.9,0,28.7,12.9,28.7,28.7c0,3-0.5,6-1.4,8.9c0,0,0,0,0,0c-0.1,0.3,0.1,0.7,0.4,0.8c0,0,0,0,0,0c0.3,0.1,0.7-0.1,0.8-0.4
		c1-3,1.5-6.1,1.5-9.3C60,13.4,46.6,0,30,0z"/>
	<path fill="#9E1724" d="M25.2,27.6c-0.3,0-0.5,0.1-0.7,0.3c-0.2,0.2-0.3,0.5-0.3,0.8v2.6c0,0.3,0.1,0.6,0.3,0.8
		c0.2,0.2,0.4,0.3,0.7,0.3c0.2,0,0.3,0,0.5-0.1c0.2-0.1,0.3-0.2,0.4-0.4c0.1-0.2,0.1-0.4,0.1-0.6l0-2.6c0-0.3-0.1-0.6-0.3-0.8
		C25.7,27.7,25.5,27.6,25.2,27.6z"/>
	<path fill="#9E1724" d="M30,5C16.2,5,5,16.2,5,30s11.2,25,25,25s25-11.2,25-25S43.8,5,30,5z M40.4,35.7h-2.5l-4,9.3
		c-0.6,1.6-2.2,2.6-3.9,2.5c-1.7,0.1-3.3-1-4-2.5l-3.8-9.3h-2.6V12.5h2.5l3.9,9.5c0.7,1.4,2.2,2.2,3.7,2.2c2.7,0,3.6-1.1,4.2-2.6
		s3.3-8.2,3.8-9.2h2.5l0.1,0V35.7z"/>
	<path fill="#9E1724" d="M35.2,30.5h-1c-0.1,0-0.3,0.1-0.4,0.2c-0.1,0.1-0.2,0.3-0.2,0.4v0.5c0,0.5,0.4,0.7,1,0.7
		c0.7,0,1.1-0.2,1.1-0.7l0-0.5c0-0.2-0.1-0.3-0.2-0.4C35.4,30.5,35.3,30.5,35.2,30.5z"/>
	<path fill="#9E1724" d="M33.8,29c0.1,0,0.1,0.1,0.2,0.1c0.1,0,0.1,0,0.2,0l0.8,0c0.1,0,0.3-0.1,0.4-0.2c0.1-0.2,0.2-0.3,0.1-0.5
		c0-0.2-0.1-0.5-0.2-0.6c-0.2-0.1-0.5-0.2-0.7-0.2c-0.3,0-0.5,0-0.7,0.2c-0.2,0.2-0.3,0.4-0.2,0.6c0,0.1,0,0.2,0,0.3
		C33.7,28.9,33.8,29,33.8,29z"/>
	<path fill="#9E1724" d="M38.6,13.6c-0.9,2.1-2.9,7.2-3.5,8.5c-0.9,2-2.2,3.3-5.3,3.3c-2,0-3.9-1.2-4.8-3l-3.6-8.7h-0.5v20.8h1.4
		c0.5,0,0.9,0.3,1.1,0.8l3.8,9.3c0.5,1.1,1.7,1.8,2.9,1.8c1.2,0.1,2.3-0.6,2.8-1.7v-0.1l4-9.3c0.2-0.4,0.6-0.7,1.1-0.7h1.3V13.7l0,0
		H38.6z M27.7,31.3c0,0.7-0.2,1.3-0.7,1.7c-1,0.9-2.5,0.9-3.5,0c-0.5-0.4-0.7-1-0.7-1.7l0-2.6c0-0.6,0.2-1.3,0.7-1.7
		c1-0.9,2.5-0.9,3.5,0c0.5,0.4,0.8,1,0.7,1.7V31.3z M31.1,33.5h-1.5v-5.6l-1.2,0.2l-0.2-1.2l2-0.3h0.9V33.5z M37.3,31.6
		c0,0.4-0.1,0.8-0.4,1.1c-0.3,0.3-0.6,0.6-1,0.7c-0.8,0.3-1.7,0.3-2.6,0c-0.4-0.1-0.7-0.4-0.9-0.7C32.2,32.4,32,32,32,31.6v-0.5
		c0-0.3,0.1-0.5,0.2-0.8c0.1-0.2,0.3-0.4,0.5-0.5c-0.5-0.2-0.7-0.6-0.7-1.3c0-0.3,0.1-0.7,0.2-1c0.1-0.3,0.3-0.5,0.6-0.7
		c0.2-0.2,0.5-0.3,0.8-0.4c0.3-0.1,0.7-0.1,1-0.1c0.2,0,0.4,0,0.6,0c0.2,0,0.4,0.1,0.6,0.2c0.2,0.1,0.4,0.2,0.5,0.3
		c0.2,0.1,0.3,0.2,0.4,0.4c0.1,0.2,0.2,0.4,0.3,0.5c0.1,0.2,0.1,0.5,0.1,0.7c0,0.7-0.2,1.1-0.7,1.3c0.1,0.1,0.3,0.1,0.4,0.3
		c0.1,0.1,0.2,0.3,0.3,0.4c0.1,0.2,0.1,0.4,0.1,0.6V31.6z"/>
</g>
</svg>
