<svg xmlns="http://www.w3.org/2000/svg" viewBox="0 0 60 60"><defs><style>.cls-1{fill:#9e1724;}</style></defs><g id="Capa_2" data-name="Capa 2"><g id="Capa_1-2" data-name="Capa 1"><path class="cls-1" d="M30,60A30,30,0,1,1,60,30a29.44,29.44,0,0,1-1.47,9.27.63.63,0,0,1-.8.4.62.62,0,0,1-.4-.79A28.17,28.17,0,0,0,58.74,30a28.73,28.73,0,1,0-5.36,16.72.63.63,0,1,1,1,.73A30.05,30.05,0,0,1,30,60Z"/><path class="cls-1" d="M38,38.4l-.63-.25a.55.55,0,0,1-.33-.41l-.13-.88-.66.17a.52.52,0,0,1-.5-.14l-.63-.63-.43.53a.52.52,0,0,1-.49.18l-.87-.14-.05.67a.53.53,0,0,1-.28.43l-.8.4.36.58a.49.49,0,0,1,0,.51l-.4.8.63.25a.52.52,0,0,1,.32.4l.14.89.66-.17.13,0a.54.54,0,0,1,.37.16l.62.62.44-.52a.52.52,0,0,1,.48-.18l.88.14,0-.67a.54.54,0,0,1,.29-.43l.79-.4-.36-.58a.52.52,0,0,1,0-.51Z"/><path class="cls-1" d="M37,18.89V13.6H19.11a.25.25,0,0,0-.25.25V46.26a.25.25,0,0,0,.25.25H42.74a.26.26,0,0,0,.26-.25V19.56H37.63A.67.67,0,0,1,37,18.89ZM29.44,31.94H23.38a.71.71,0,0,1-.75-.67.72.72,0,0,1,.75-.68h6.06a.71.71,0,0,1,.74.68A.7.7,0,0,1,29.44,31.94Zm9.7,8.27a.52.52,0,0,1,.06.42.51.51,0,0,1-.26.33l-1,.52-.07,1a.51.51,0,0,1-.2.37.52.52,0,0,1-.4.11l-1.15-.19-.62.73a.52.52,0,0,1-.37.19h0a.56.56,0,0,1-.37-.15l-.82-.83-.93.24a.54.54,0,0,1-.41-.07.52.52,0,0,1-.23-.36l-.18-1.15L31.24,41a.57.57,0,0,1-.29-.3.51.51,0,0,1,0-.42l.53-1L31,38.41a.56.56,0,0,1-.06-.42.55.55,0,0,1,.27-.33l1-.53.06-1a.51.51,0,0,1,.2-.37.56.56,0,0,1,.41-.11l1.15.19.6-.74A.58.58,0,0,1,35,35a.54.54,0,0,1,.4.16l.82.83.92-.24a.5.5,0,0,1,.41.07.55.55,0,0,1,.24.36L38,37.29l.88.35a.54.54,0,0,1,.3.31.52.52,0,0,1,0,.42l-.53,1Zm-.66-8.27H32.42a.71.71,0,0,1-.75-.67.72.72,0,0,1,.75-.68h6.06a.71.71,0,0,1,.74.68A.7.7,0,0,1,38.48,31.94Zm0-2.9H23.38a.72.72,0,0,1-.75-.67.72.72,0,0,1,.75-.68h15.1a.71.71,0,0,1,.74.68A.71.71,0,0,1,38.48,29Zm0-2.74H23.38a.72.72,0,0,1-.75-.68.72.72,0,0,1,.75-.67h15.1a.71.71,0,0,1,.74.67A.71.71,0,0,1,38.48,26.3Zm.74-3.42a.71.71,0,0,1-.74.68H27.73a.68.68,0,1,1,0-1.35H38.48A.71.71,0,0,1,39.22,22.88Z"/><polygon class="cls-1" points="34.85 35.31 34.85 35.31 34.85 35.31 34.85 35.31"/><path class="cls-1" d="M30.93,5a25,25,0,1,0,25,25A25,25,0,0,0,30.93,5ZM44.1,19.19a.28.28,0,0,1,0,.09.37.37,0,0,1,0,.11V46.21a1.29,1.29,0,0,1-1.29,1.29H19a1.28,1.28,0,0,1-1.28-1.29V13.78A1.28,1.28,0,0,1,19,12.5H37.7L43,17.8l.8.8.1.11a.63.63,0,0,1,.2.47Z"/></g></g></svg>