<?xml version="1.0" encoding="utf-8"?>
<!-- Generator: Adobe Illustrator 24.1.0, SVG Export Plug-In . SVG Version: 6.00 Build 0)  -->
<svg version="1.1" id="Capa_1" xmlns="http://www.w3.org/2000/svg" xmlns:xlink="http://www.w3.org/1999/xlink" x="0px" y="0px"
	 viewBox="0 0 1558 1559" style="enable-background:new 0 0 1558 1559;" xml:space="preserve">
<style type="text/css">
	.st0{fill:#FFFFFF;}
	.st1{fill:#9E1724;}
</style>
<g>
	<circle class="st0" cx="532.9" cy="769.6" r="59.1"/>
	<polygon class="st0" points="965.9,454.7 532.9,454.7 473.8,631.9 1024.9,631.9 	"/>
	<path class="st0" d="M1027.4,176.7C948.6,144,864.2,127.2,779,127.2c-128.4,0-253.8,38.1-360.6,109.4
		c-106.7,71.3-189.9,172.7-239,291.3c-49.1,118.6-62,249.1-36.9,375c25,125.9,86.9,241.5,177.6,332.3
		c90.8,90.8,206.4,152.6,332.3,177.6s256.4,12.2,375-36.9s219.9-132.3,291.3-239c71.3-106.7,109.4-232.2,109.4-360.6
		c0-85.2-16.8-169.6-49.4-248.4c-32.6-78.7-80.4-150.3-140.7-210.5C1177.7,257.1,1106.2,209.3,1027.4,176.7z M753,946.8H513.3v39.4
		c0,21.7-17.7,39.4-39.4,39.4h-39.4c-21.7,0-39.4-17.7-39.4-39.4V671.3L477,435.1c7.9-22.9,29.9-39.4,55.9-39.4h433
		c26,0,48,16.6,55.9,39.4l81.9,236.2v31.9c-34.6-20.1-75.2-31.9-118.1-31.9c-130.3,0-236.2,105.9-236.2,236.2
		C749.4,920.9,750.9,933.8,753,946.8z M1005.3,1143.7c-119.6,0-216.5-96.9-216.5-216.5s96.9-216.5,216.5-216.5
		s216.5,96.9,216.5,216.5S1124.9,1143.7,1005.3,1143.7z"/>
	<path class="st0" d="M1426.5,346.9c-85.6-128-207.2-227.9-349.5-286.8S778.1-14.2,627,15.8c-151,30-289.8,104.2-398.7,213
		C119.4,337.8,45.2,476.5,15.2,627.6c-30.1,151.1-14.6,307.7,44.3,450s158.7,263.9,286.8,349.5c128.1,85.6,278.7,131.3,432.7,131.3
		c123.8-0.2,245.9-29.7,355.9-86.4s205-138.7,277.1-239.3c1.7-1.7,3.1-3.7,4-5.9s1.3-4.6,1.1-7s-0.9-4.8-2-6.9s-2.7-4-4.7-5.4
		c-1.9-1.4-4.1-2.3-6.5-2.8c-2.3-0.5-4.8-0.4-7.1,0.2c-2.4,0.6-4.5,1.7-6.4,3.2s-3.4,3.4-4.4,5.6
		c-103.5,144.6-255.2,247.5-427.8,290.2c-172.6,42.6-354.8,22.2-513.7-57.6c-158.9-79.8-284.1-213.7-352.9-377.7
		C22.7,904.7,14.7,721.5,69,552.2c54.3-169.4,167.3-313.7,318.6-407.1C539,51.7,718.7,15.5,894.3,43
		c175.7,27.4,335.6,116.9,451.3,251.9s179.2,307,179.3,484.8c0.2,78.3-12.1,156.1-36.6,230.5c-0.7,2-1,4.2-0.8,6.3s0.7,4.2,1.7,6.1
		c0.9,1.9,2.3,3.6,3.9,5c1.7,1.4,3.6,2.4,5.6,3.1c2.1,0.7,4.2,1,6.4,0.8s4.3-0.7,6.2-1.7c2-0.9,3.7-2.3,5.1-3.9
		c1.5-1.7,2.5-3.6,3.2-5.6c25.5-77.7,38.4-159,38.2-240.7C1557.8,625.5,1512.1,475,1426.5,346.9z"/>
	<path class="st1" d="M985.6,671.3c42.9,0,83.5,11.8,118.1,31.9v-31.9l-81.9-236.2c-7.9-22.8-29.9-39.4-55.9-39.4h-433
		c-26,0-48,16.5-55.9,39.4l-81.9,236.2v314.9c0,21.7,17.7,39.4,39.4,39.4h39.4c21.7,0,39.4-17.7,39.4-39.4v-39.4H753
		c-2.1-13-3.6-25.9-3.6-39.3C749.4,777.2,855.3,671.3,985.6,671.3z M532.9,828.7c-32.7,0-59.1-26.4-59.1-59.1s26.4-59.1,59.1-59.1
		s59.1,26.4,59.1,59.1S565.5,828.7,532.9,828.7z M473.8,631.9l59.1-177.2h433l59,177.2H473.8z"/>
	<path class="st1" d="M1005.3,710.7c-119.6,0-216.5,96.9-216.5,216.5s96.9,216.5,216.5,216.5s216.5-96.9,216.5-216.5
		S1124.9,710.7,1005.3,710.7z M1010,912.3c41.7,8.1,93.7,18.2,93.7,60.8c0,27.4-28.9,50.7-68.9,58.5v33.4h-59.1v-33.4
		c-39.9-7.8-68.9-31.1-68.9-58.5h39.4c0,16.5,27,30.6,59,30.6c32.1,0,59.1-14.1,59.1-30.6c0-16.8-20.5-23-63.8-31.1
		c-41.7-8.1-93.7-18.2-93.7-60.8c0-27.4,28.9-50.7,68.9-58.5v-33.4h59.1v33.4c40,7.8,68.9,31.1,68.9,58.5h-39.4
		c0-16.5-27-30.6-59.1-30.6s-59,14.1-59,30.6C946.2,898,966.7,904.2,1010,912.3z"/>
	<path class="st0" d="M1005.2,850.6c32.1,0,59.1,14.1,59.1,30.6h39.4c0-27.4-28.9-50.7-68.9-58.5v-33.4h-59.1v33.4
		c-40,7.8-68.9,31.1-68.9,58.5c0,42.6,52,52.7,93.7,60.8c43.3,8.1,63.8,14.3,63.8,31.1c0,16.5-27,30.6-59.1,30.6
		c-32,0-59-14.1-59-30.6h-39.4c0,27.4,29,50.7,68.9,58.5v33.4h59.1v-33.4c40-7.8,68.9-31.1,68.9-58.5c0-42.6-52-52.7-93.7-60.8
		c-43.3-8.1-63.8-14.3-63.8-31.1C946.2,864.7,973.1,850.6,1005.2,850.6z"/>
</g>
</svg>
