<svg width="1472" height="1472" viewBox="0 0 1472 1472" fill="none" xmlns="http://www.w3.org/2000/svg">
<path d="M735.96 119.464C614.669 119.464 496.103 155.431 395.254 222.816C294.405 290.202 215.802 385.979 169.387 498.036C122.971 610.094 110.826 733.399 134.489 852.359C158.151 971.318 216.558 1080.59 302.323 1166.36C388.089 1252.12 497.36 1310.53 616.32 1334.19C735.279 1357.85 858.584 1345.71 970.642 1299.29C1082.7 1252.88 1178.48 1174.27 1245.86 1073.42C1313.25 972.575 1349.21 854.009 1349.21 732.719C1349.21 652.185 1333.35 572.44 1302.53 498.036C1271.71 423.633 1226.54 356.028 1169.6 299.082C1112.65 242.136 1045.05 196.964 970.642 166.146C896.239 135.327 816.493 119.464 735.96 119.464V119.464Z" fill="#BF3822"/>
<path d="M735.933 1471.81C590.384 1471.81 448.104 1428.65 327.085 1347.79C206.066 1266.93 111.744 1151.99 56.0446 1017.52C0.345713 883.055 -14.2277 735.089 14.1674 592.338C42.5625 449.586 112.651 318.46 215.569 215.542C318.487 112.624 449.613 42.5356 592.365 14.1405C735.116 -14.2545 883.082 0.318858 1017.55 56.0178C1152.02 111.717 1266.95 206.04 1347.82 327.059C1428.68 448.078 1471.84 590.357 1471.84 735.906C1472.06 813.145 1459.88 889.918 1435.78 963.3C1435.14 965.238 1434.13 967.03 1432.79 968.573C1431.46 970.117 1429.83 971.381 1428.01 972.293C1426.19 973.205 1424.2 973.747 1422.16 973.888C1420.13 974.029 1418.09 973.765 1416.15 973.112C1414.23 972.502 1412.44 971.512 1410.9 970.203C1409.36 968.893 1408.09 967.289 1407.18 965.484C1406.26 963.679 1405.72 961.711 1405.58 959.693C1405.43 957.675 1405.69 955.649 1406.34 953.734C1429.46 883.444 1441.14 809.898 1440.93 735.906C1440.88 567.883 1380.79 405.407 1271.52 277.774C1162.24 150.142 1010.96 65.7513 844.946 39.8194C678.936 13.8876 509.123 48.1207 366.127 136.346C223.13 224.572 116.36 360.984 65.067 520.987C13.7743 680.989 21.3347 854.053 86.3851 1008.97C151.435 1163.89 269.695 1290.47 419.841 1365.89C569.986 1441.31 742.137 1460.61 905.253 1420.3C1068.37 1379.99 1211.72 1282.73 1309.45 1146.05C1310.42 1144 1311.84 1142.19 1313.6 1140.74C1315.35 1139.3 1317.41 1138.26 1319.61 1137.71C1321.81 1137.15 1324.11 1137.08 1326.34 1137.51C1328.57 1137.95 1330.68 1138.86 1332.52 1140.2C1334.35 1141.54 1335.87 1143.27 1336.96 1145.27C1338.05 1147.26 1338.69 1149.47 1338.83 1151.74C1338.97 1154.01 1338.61 1156.28 1337.77 1158.39C1336.93 1160.5 1335.64 1162.4 1333.98 1163.96C1265.87 1259.04 1176.11 1336.54 1072.12 1390.07C968.127 1443.6 852.891 1471.62 735.933 1471.81V1471.81Z" fill="#BF3822"/>
<path d="M707.955 856.725C707.955 733.596 808.02 633.53 931.15 633.53C971.697 633.53 1010.01 644.69 1042.75 663.661V633.53L965.373 410.334C957.933 388.759 937.102 373.135 912.55 373.135H503.359C478.807 373.135 457.976 388.759 450.536 410.334L373.162 633.53V931.124C373.162 951.583 389.901 968.323 410.361 968.323H447.56C468.02 968.323 484.759 951.583 484.759 931.124V893.924H711.303C709.443 881.649 707.955 869.373 707.955 856.725ZM503.359 428.934H912.55L968.349 596.331H447.56L503.359 428.934ZM503.359 782.327C472.484 782.327 447.56 757.403 447.56 726.528C447.56 695.652 472.484 670.729 503.359 670.729C534.234 670.729 559.158 695.652 559.158 726.528C559.158 757.403 534.234 782.327 503.359 782.327Z" fill="white"/>
<circle cx="949.749" cy="875.323" r="204.596" fill="white"/>
<path d="M856.749 918.726H893.948C893.948 934.349 919.429 947.659 949.747 947.659C980.064 947.659 1005.55 934.349 1005.55 918.726C1005.55 902.813 986.202 897.026 945.283 889.359C905.852 881.692 856.749 872.144 856.749 831.928C856.749 806.033 884.09 784.044 921.847 776.666V745.129H977.646V776.666C1015.4 784.044 1042.74 806.033 1042.74 831.928H1005.55C1005.55 816.304 980.064 802.995 949.747 802.995C919.429 802.995 893.948 816.304 893.948 831.928C893.948 847.841 913.291 853.627 954.21 861.294C993.642 868.961 1042.74 878.509 1042.74 918.726C1042.74 944.621 1015.4 966.609 977.646 973.987V1005.52H921.847V973.987C884.09 966.609 856.749 944.621 856.749 918.726Z" fill="#BF3822"/>
</svg>
