<svg width="1472" height="1472" viewBox="0 0 1472 1472" fill="none" xmlns="http://www.w3.org/2000/svg">
<path d="M735.987 119.464C614.697 119.464 496.131 155.431 395.281 222.816C294.432 290.202 215.83 385.979 169.414 498.036C122.998 610.094 110.854 733.399 134.516 852.359C158.179 971.318 216.586 1080.59 302.351 1166.36C388.116 1252.12 497.388 1310.53 616.347 1334.19C735.307 1357.85 858.612 1345.71 970.67 1299.29C1082.73 1252.88 1178.5 1174.27 1245.89 1073.42C1313.27 972.575 1349.24 854.009 1349.24 732.719C1349.24 652.185 1333.38 572.44 1302.56 498.036C1271.74 423.633 1226.57 356.028 1169.62 299.082C1112.68 242.136 1045.07 196.964 970.67 166.146C896.266 135.327 816.521 119.464 735.987 119.464V119.464Z" fill="#BF3822"/>
<path d="M735.96 1471.81C590.412 1471.81 448.132 1428.65 327.113 1347.79C206.094 1266.93 111.771 1151.99 56.0725 1017.52C0.373545 883.055 -14.1998 735.089 14.1952 592.338C42.5903 449.586 112.679 318.46 215.597 215.542C318.515 112.624 449.641 42.5356 592.392 14.1405C735.144 -14.2545 883.11 0.318858 1017.58 56.0178C1152.05 111.717 1266.98 206.04 1347.84 327.059C1428.71 448.078 1471.87 590.357 1471.87 735.906C1472.08 813.145 1459.91 889.918 1435.81 963.3C1435.17 965.238 1434.15 967.03 1432.82 968.573C1431.49 970.117 1429.86 971.381 1428.04 972.293C1426.21 973.205 1424.23 973.747 1422.19 973.888C1420.16 974.029 1418.11 973.765 1416.18 973.112C1414.25 972.502 1412.47 971.512 1410.93 970.203C1409.38 968.893 1408.12 967.289 1407.21 965.484C1406.29 963.679 1405.75 961.711 1405.6 959.693C1405.46 957.675 1405.72 955.649 1406.37 953.734C1429.49 883.444 1441.17 809.898 1440.96 735.906C1440.9 567.883 1380.82 405.407 1271.54 277.774C1162.27 150.142 1010.98 65.7513 844.974 39.8194C678.964 13.8876 509.151 48.1207 366.155 136.346C223.158 224.572 116.388 360.984 65.0948 520.987C13.8021 680.989 21.3626 854.053 86.4129 1008.97C151.463 1163.89 269.723 1290.47 419.868 1365.89C570.014 1441.31 742.165 1460.61 905.281 1420.3C1068.4 1379.99 1211.74 1282.73 1309.48 1146.05C1310.45 1144 1311.87 1142.19 1313.62 1140.74C1315.38 1139.3 1317.43 1138.26 1319.64 1137.71C1321.84 1137.15 1324.14 1137.08 1326.37 1137.51C1328.6 1137.95 1330.71 1138.86 1332.54 1140.2C1334.38 1141.54 1335.9 1143.27 1336.99 1145.27C1338.08 1147.26 1338.72 1149.47 1338.86 1151.74C1339 1154.01 1338.63 1156.28 1337.8 1158.39C1336.96 1160.5 1335.66 1162.4 1334.01 1163.96C1265.89 1259.04 1176.13 1336.54 1072.14 1390.07C968.155 1443.6 852.919 1471.62 735.96 1471.81V1471.81Z" fill="#BF3822"/>
<path d="M988.173 428.414H951.032V352.405H876.75V428.414H579.624V352.405H505.342V428.414H468.202C448.501 428.414 429.607 436.422 415.677 450.677C401.746 464.931 393.92 484.264 393.92 504.423V1036.49C393.92 1056.65 401.746 1075.98 415.677 1090.23C429.607 1104.49 448.501 1112.5 468.202 1112.5H988.173C1007.87 1112.5 1026.77 1104.49 1040.7 1090.23C1054.63 1075.98 1062.45 1056.65 1062.45 1036.49V504.423C1062.45 484.264 1054.63 464.931 1040.7 450.677C1026.77 436.422 1007.87 428.414 988.173 428.414V428.414ZM988.173 1036.49H468.202V656.441H988.173V1036.49ZM988.173 580.432H468.202V504.423H988.173V580.432ZM728.187 694.446C802.469 694.446 839.609 786.417 787.241 840.383C734.501 894.35 644.62 855.965 644.62 779.956C644.62 732.45 681.761 694.446 728.187 694.446ZM895.321 993.921V998.482H561.054V993.921C561.054 946.416 635.335 908.411 728.187 908.411C821.039 908.411 895.321 946.416 895.321 993.921Z" fill="white"/>
</svg>
