<?xml version="1.0" encoding="utf-8"?>
<!-- Generator: Adobe Illustrator 25.2.1, SVG Export Plug-In . SVG Version: 6.00 Build 0)  -->
<svg version="1.1" id="Capa_1" xmlns="http://www.w3.org/2000/svg" xmlns:xlink="http://www.w3.org/1999/xlink" x="0px" y="0px"
	 viewBox="0 0 60 60" enable-background="new 0 0 60 60" xml:space="preserve">
<g>
	<path fill="#9E1724" d="M30,0C13.4,0,0,13.4,0,30s13.4,30,30,30c9.7,0,18.7-4.7,24.4-12.5c0.1-0.1,0.1-0.1,0.1-0.2
		c0.1-0.3,0-0.7-0.3-0.8c-0.3-0.1-0.7,0-0.8,0.3c-5.4,7.5-14.1,12-23.4,12C14.2,58.7,1.3,45.9,1.3,30C1.3,14.2,14.1,1.3,30,1.3
		c15.9,0,28.7,12.9,28.7,28.7c0,3-0.5,6-1.4,8.9c0,0,0,0,0,0c-0.1,0.3,0.1,0.7,0.4,0.8c0,0,0,0,0,0c0.3,0.1,0.7-0.1,0.8-0.4
		c1-3,1.5-6.1,1.5-9.3C60,13.4,46.6,0,30,0z"/>
	<path fill="#9E1724" d="M30.2,5c-13.8,0-25,11.2-25,25s11.2,25,25,25c13.8,0,25-11.2,25-25S44,5,30.2,5z M30.2,47.5h-6.2v-6.1h6.2
		V47.5z M40.4,21.5c0,1.5-0.4,3-1.3,4.2c-0.9,1.3-2.2,2.4-3.6,3.2l-3.2,1.6c-0.4,0.2-0.8,0.5-1.2,0.8c-0.3,0.3-0.6,0.8-0.7,1.2
		c-0.2,0.6-0.3,1.2-0.3,1.8v3.8h-6v-3.8c-0.1-1.7,0.4-3.4,1.2-4.8c1-1.5,2.5-2.8,4.2-3.5l3.1-1.6c1.1-0.5,1.8-1.6,1.8-2.9v-0.7
		c0-2.1-1.7-3.2-5-3.2c-3.1,0.1-6.2,0.5-9.3,1.1l-0.4-5.1c3.2-0.7,6.5-1,9.7-1.1c1.9,0,3.7,0.2,5.5,0.8c1.6,0.5,3,1.5,4,2.7
		c1.1,1.3,1.7,3,1.6,4.8V21.5z"/>
</g>
</svg>
