<?xml version="1.0" encoding="utf-8"?>
<!-- Generator: Adobe Illustrator 25.2.1, SVG Export Plug-In . SVG Version: 6.00 Build 0)  -->
<svg version="1.1" id="Capa_1" xmlns="http://www.w3.org/2000/svg" xmlns:xlink="http://www.w3.org/1999/xlink" x="0px" y="0px"
	 viewBox="0 0 60 60" enable-background="new 0 0 60 60" xml:space="preserve">
<g id="Capa_2_1_">
	<g id="Capa_1-2">
		<g>
			<path fill="#9E1724" d="M30,0C13.4,0,0,13.4,0,30s13.4,30,30,30c9.7,0,18.7-4.7,24.4-12.5c0.1-0.1,0.1-0.1,0.1-0.2
				c0.1-0.3,0-0.7-0.3-0.8c-0.3-0.1-0.7,0-0.8,0.3c-5.4,7.5-14.1,12-23.4,12C14.2,58.7,1.3,45.9,1.3,30C1.3,14.2,14.1,1.3,30,1.3
				c15.9,0,28.7,12.9,28.7,28.7c0,3-0.5,6-1.4,8.9c0,0,0,0,0,0c-0.1,0.3,0.1,0.7,0.4,0.8c0,0,0,0,0,0c0.3,0.1,0.7-0.1,0.8-0.4
				c1-3,1.5-6.1,1.5-9.3C60,13.4,46.6,0,30,0z"/>
			<path fill="#9E1724" d="M30,5C16.2,5,5,16.2,5,30s11.2,25,25,25s25-11.2,25-25S43.8,5,30,5z M40.9,23.4c0.2,0.3,0.1,0.7-0.2,0.9
				c-0.2,0.1-0.5,0.1-0.7,0c-0.2-0.1-0.3-0.3-0.5-0.5c-0.8-0.9-1.7-1.6-2.7-2.3c-0.2-0.1-0.3-0.4-0.3-0.6v0c0-0.3,0.3-0.5,0.6-0.5
				c0.2,0,0.3,0.1,0.5,0.2C38.9,21.3,39.9,22.3,40.9,23.4C40.9,23.4,40.9,23.4,40.9,23.4z M36.4,38.4c0,0.2,0,0.3-0.1,0.4
				c-0.1,0.1-0.3,0.2-0.5,0.2c-0.3,0-0.6-0.2-0.6-0.6L35.1,38c-0.1-0.6-0.2-1.2-0.3-1.8c0-0.2,0-0.3,0.1-0.4
				c0.1-0.2,0.3-0.3,0.5-0.3h0c0.5,0,0.6,0.5,0.7,0.9v0.2C36.3,37.1,36.4,37.8,36.4,38.4z M35.4,34.8c-0.1,0.1-0.3,0.2-0.5,0.2
				c-0.1,0-0.1,0-0.2,0c-0.2-0.1-0.3-0.2-0.3-0.4c-0.3-1.6-1.3-4.3-3.9-5.3c-0.7-0.3-1.4-0.4-2.1-0.5c-0.2,0-0.4,0-0.7,0h-0.2
				c-0.3,0-0.6-0.2-0.7-0.6c0-0.3,0.1-0.6,0.4-0.6l-0.1,0c0.3-0.1,0.6-0.1,0.8-0.1c1,0,2,0.3,3,0.6c2.4,1.1,4.1,3.4,4.5,6.1
				C35.6,34.4,35.5,34.6,35.4,34.8z M20.5,36.2c0.1,0.2,0,0.5-0.2,0.7c-0.2,0.2-0.4,0.2-0.6,0.1c-0.6-0.2-0.8-1.9-0.8-2.6
				c0-1,0.1-1.9,0.4-2.8c0.2-0.9,0.6-1.7,1.1-2.4h-0.1c0.1-0.2,0.3-0.3,0.5-0.3c0.1,0,0.2,0,0.3,0.1c0.3,0.1,0.4,0.4,0.4,0.7
				c0,0.1-0.1,0.3-0.2,0.4c-0.5,0.9-0.9,1.9-1,3C20.1,34.1,20.2,35.2,20.5,36.2z M20.7,26.9c-0.5,0.4-0.9,0.9-1.3,1.3
				c-0.6,0.8-1.1,1.7-1.4,2.6c0,0,0,0.1,0,0.1c-0.1,0.3-0.5,0.5-0.8,0.3c-0.3-0.1-0.5-0.5-0.3-0.8c0.5-1.3,1.2-2.5,2.1-3.5
				c0.6-0.7,1.3-1.3,2-1.9h0c0.3-0.2,0.6-0.4,1-0.4c0.2,0,0.4,0.1,0.5,0.3c0.1,0.3,0,0.6-0.2,0.8C21.7,26,21.2,26.4,20.7,26.9z
				 M32.1,19.4c-1-0.3-2.1-0.4-3.2-0.5c-0.5,0-1.1,0-1.6,0c-0.8,0.1-1.6,0.2-2.4,0.3c-0.9,0.2-1.8,0.5-2.7,0.8c0,0-0.1,0-0.2,0.1
				c-0.3,0.1-0.7-0.1-0.8-0.5c-0.1-0.3,0.1-0.7,0.5-0.8c0.3-0.1,0.5-0.2,0.8-0.3l0,0c1.7-0.6,3.5-0.9,5.3-0.9c1.1,0,2.1,0.1,3.2,0.3
				c1.6,0.3,3.2,0.8,4.6,1.5c0.1,0,0.1,0.1,0.2,0.1c0.3,0.3,0.3,0.7,0,1c-0.2,0.2-0.5,0.2-0.7,0.1C34.1,20,33.1,19.7,32.1,19.4z
				 M32.8,21.6c-0.1,0.3-0.4,0.5-0.8,0.4c-1.4-0.5-2.8-0.7-4.2-0.7c-0.7,0-1.5,0.1-2.2,0.2c-0.3,0.1-0.7-0.1-0.8-0.5c0,0,0,0,0,0
				c-0.1-0.3,0.2-0.7,0.5-0.7c0.7-0.1,1.5-0.2,2.2-0.2l0,0.1H28c0.6,0,1.2,0,1.8,0.1c0.9,0.1,2.6,0.4,3,1
				C32.8,21.3,32.8,21.5,32.8,21.6z M21.5,21.6L21.5,21.6c0.5-0.4,1.2-0.6,1.9-0.7c0.3,0,0.5,0.1,0.6,0.3c0,0,0,0,0,0
				c0.1,0.3-0.1,0.7-0.5,0.8c-0.6,0.2-1.2,0.5-1.8,0.8c-0.7,0.4-1.3,0.9-2,1.3c-0.1,0.1-0.2,0.1-0.3,0.1c-0.4,0-0.6-0.3-0.7-0.6
				c0-0.4,0.2-0.6,0.5-0.7C20,22.5,20.7,22,21.5,21.6z M21.7,32.4c0.1-0.3,0.3-0.4,0.6-0.4h0.1c0.3,0,0.5,0.3,0.5,0.5
				c0,0.1,0,0.2,0,0.3c-0.2,0.9-0.2,1.8-0.1,2.7c0.2,0.9,0.5,1.8,1,2.6c0.1,0.2,0.1,0.5,0,0.7c-0.1,0.2-0.3,0.3-0.5,0.3
				c-0.6,0-1.2-1.5-1.4-2c-0.3-0.8-0.4-1.6-0.5-2.4C21.4,33.9,21.5,33.2,21.7,32.4L21.7,32.4z M22.2,30.9c0.6-1.5,1.9-2.6,3.5-2.9v0
				h0.2c0.3,0,0.6,0.2,0.6,0.5c0,0,0,0,0,0c0,0.3-0.1,0.5-0.4,0.6c-1.1,0.2-2.1,1-2.7,2c-0.1,0.3-0.3,0.4-0.6,0.4
				c-0.1,0-0.2,0-0.2,0c0,0,0,0-0.1,0C22.2,31.4,22.1,31.2,22.2,30.9z M24.4,39c0.1,0,0.3,0,0.4,0.1c1,0.8,2.2,1.2,3.5,1.1
				c1.5-0.1,2.4-0.9,2.4-2c0-1-0.6-1.6-2.9-1.9c-2.5-0.4-3.7-1.2-3.8-3c-0.1-1.7,1.4-3.1,3.5-3.2v0h0.5c1.1,0,2.2,0.2,3.1,0.8
				c0.2,0.1,0.3,0.3,0.3,0.5c0,0,0,0,0,0c0,0.3-0.2,0.6-0.6,0.6c-0.1,0-0.3,0-0.4-0.1c-0.9-0.6-1.9-0.8-2.9-0.7
				c-1.4,0.1-2.3,0.9-2.3,1.9c0.1,1,0.6,1.6,3.1,2c2.5,0.4,3.6,1.2,3.7,2.9c0.1,1.9-1.4,3.2-3.6,3.3c-1.5,0.1-3-0.4-4.2-1.3
				c-0.2-0.1-0.2-0.3-0.2-0.5c0,0,0,0,0,0C23.8,39.3,24.1,39,24.4,39z M27.2,42.4c4.4,0.4,6.2-1.5,5.9-3.7l-1-4.1
				c-1.1-0.4-2.2-0.5-3.3-0.3c-0.3,0.1-0.6-0.1-0.7-0.5c0,0,0,0,0,0c-0.1-0.3,0.1-0.6,0.5-0.7v0.1c1.5-0.3,3.1-0.1,4.5,0.6
				c0.2,0.1,0.3,0.2,0.3,0.4l1,4c0.9,4.5-4.1,6-7.3,5.4C26.4,43.3,26.5,42.3,27.2,42.4z M29.1,26c-0.1,0.3-0.3,0.5-0.7,0.5
				c-0.5,0-1,0.1-1.4,0.1c-0.8,0.1-1.6,0.3-2.3,0.7c-0.7,0.3-1.4,0.8-2,1.3c0,0,0,0,0,0c-0.3,0.2-0.7,0.2-0.9-0.1
				c-0.2-0.3-0.2-0.7,0.1-0.9c1.1-0.9,2.4-1.6,3.8-2l0,0c0.9-0.2,1.7-0.3,2.6-0.3h0.3c0,0,0.1,0,0.1,0C28.9,25.3,29.2,25.6,29.1,26z
				 M28.1,23.9c-0.9,0-1.8,0.1-2.7,0.3c-0.5,0.1-1,0.4-1.5,0.5c-0.2,0.1-0.4,0.1-0.5,0c-0.2-0.1-0.4-0.3-0.3-0.6
				c0-0.3,0.2-0.5,0.5-0.6c1.1-0.4,2.1-0.7,3.3-0.8l0,0c0.4-0.1,0.9-0.1,1.3-0.1c0.5,0,1,0,1.5,0.1c1.2,0.2,2.4,0.5,3.5,1
				c1.7,0.8,3.3,2,4.4,3.5c0.2,0.2,0.2,0.5,0,0.7c-0.1,0.2-0.4,0.3-0.7,0.3c-0.2-0.1-0.5-0.2-0.6-0.5C34.3,25.3,31.3,23.9,28.1,23.9
				z M36.1,24.1c-0.7-0.5-1.5-0.9-2.2-1.4c-0.2-0.1-0.4-0.3-0.4-0.5l-0.1,0c0-0.2,0-0.3,0.1-0.4c0.2-0.3,0.6-0.3,0.9-0.1
				c0.8,0.4,1.6,0.9,2.3,1.4c0.9,0.7,1.7,1.4,2.4,2.3c0.6,0.7,1.1,1.4,1.5,2.2c0.2,0.3,0.3,0.6,0.5,0.9c0.2,0.3,0.2,0.6,0.2,0.9
				c-0.1,0.2-0.2,0.3-0.4,0.3c-0.3,0.1-0.6,0-0.8-0.3c-0.2-0.3-0.3-0.7-0.5-1c-0.4-0.6-0.8-1.2-1.2-1.7C37.9,25.6,37,24.7,36.1,24.1
				z M40.1,19.1c0.2,0.1,0.4,0.3,0.5,0.5c0.2,0.3,0.2,0.7-0.1,0.9c-0.3,0.2-0.7,0.2-0.9-0.1c-0.4-0.3-0.7-0.6-1.1-0.8
				c-1.3-0.9-2.6-1.6-4.1-2.1c-0.6-0.2-1.3-0.4-2-0.6c-0.3-0.1-0.5-0.3-0.5-0.6c0-0.3,0.2-0.6,0.5-0.6h0h0.1h0.1
				c0.9,0.3,1.8,0.5,2.7,0.9C37.1,17.1,38.7,18,40.1,19.1z M27.8,12.5c1,0,1.9,0,3,0.1c1.1,0.2,2.2,0.4,3.2,0.6
				c0.2,0,0.4,0.1,0.5,0.3c0.2,0.2,0.3,0.5,0.1,0.8c-0.2,0.3-0.5,0.4-0.8,0.3c-1-0.3-2-0.5-3.1-0.6c-1-0.1-1.9-0.2-2.8-0.2
				c-0.3,0-0.6-0.2-0.7-0.5h0c0-0.1,0-0.1,0-0.2C27.3,12.8,27.5,12.5,27.8,12.5z M23,13.2c0.3-0.2,0.6-0.3,0.9-0.4
				c0.6-0.1,1.2-0.2,1.9-0.2v0h0.1c0.3,0,0.6,0.3,0.6,0.6c0,0.3-0.2,0.6-0.6,0.7l-2.3,0.3c-0.3,0.1-0.6-0.1-0.7-0.3
				C22.8,13.7,22.8,13.4,23,13.2z M19.1,17.1l0.9-0.4c1.6-0.7,3.4-1.2,5.1-1.5c0.6-0.1,1.3-0.2,2-0.2l0,0c0.3,0,0.6,0,0.9,0h0.6
				c0.7,0,1.3,0.1,1.9,0.2c0,0,0,0,0,0c0.3,0.1,0.5,0.4,0.5,0.7c0,0,0,0,0,0c0,0.3-0.3,0.6-0.7,0.5c-1-0.1-2-0.2-3-0.1
				c-1,0.1-2,0.2-3,0.3c-1.7,0.3-3.3,0.9-4.9,1.7c-0.2,0.1-0.3,0.1-0.5,0c-0.3-0.1-0.4-0.3-0.4-0.6C18.7,17.5,18.8,17.2,19.1,17.1z
				 M17.5,21.2c0.5-0.4,1.1-0.8,1.6-1.1c0.2-0.1,0.4-0.2,0.6-0.3h0c0.1,0,0.2,0,0.3,0c0.3,0,0.5,0.1,0.6,0.4c0.1,0.3,0,0.6-0.3,0.8
				c-0.7,0.4-1.3,0.9-2,1.3c-0.3,0.2-0.7,0.2-0.9-0.1c0,0,0,0,0,0C17.2,21.8,17.3,21.4,17.5,21.2z M16.5,25.8
				c0.3-0.4,0.6-0.7,0.9-1.1l0,0c0.1-0.1,0.3-0.2,0.4-0.2c0.2,0,0.3,0.1,0.5,0.2c0.2,0.2,0.2,0.6,0,0.9c-0.3,0.3-0.5,0.6-0.8,0.9
				c0,0,0,0-0.1,0.1c-0.3,0.2-0.7,0.2-0.9-0.1C16.3,26.3,16.3,26,16.5,25.8z M16.5,34.2c0-0.5,0-0.9,0-1.4l0.1,0
				c0-0.3,0.3-0.6,0.6-0.6c0.3,0,0.6,0.3,0.6,0.7c0,0.4,0,0.8,0,1.2c0,0,0,0.1,0,0.1c0,0.4-0.4,0.6-0.8,0.6
				C16.8,34.8,16.6,34.5,16.5,34.2z M19.4,42.9c-1.6-1.8-2.5-4.1-2.6-6.5l0,0c0,0,0-0.1,0-0.1c0-0.3,0.3-0.5,0.6-0.5
				c0.4,0,0.7,0.2,0.7,0.6c0.1,2,0.9,4,2.3,5.5C20.8,42.6,20,43.5,19.4,42.9z M24.8,45.7c-1.3-0.1-2.6-0.6-3.7-1.4h0
				c-0.1-0.1-0.2-0.3-0.2-0.5c0-0.3,0.3-0.6,0.7-0.6c0.2,0,0.3,0.1,0.4,0.2c0.8,0.6,1.8,1,2.8,1.1C25.7,44.6,25.7,45.8,24.8,45.7z
				 M25.1,43.3c-2.6-0.5-4.7-2.4-5.3-5l0,0c0-0.3,0.1-0.6,0.5-0.7c0.3-0.1,0.7,0.1,0.8,0.4c0.5,2,2.1,3.6,4.2,4
				C25.9,42.2,25.9,43.5,25.1,43.3z M27.1,46c-0.3-0.1-0.5-0.3-0.5-0.6c0-0.3,0.3-0.6,0.6-0.6c2.2,0.2,4.4-0.3,6.2-1.5
				c0.1-0.1,0.2-0.1,0.3-0.1c0.2,0,0.3,0.1,0.4,0.3c0.2,0.3,0.1,0.7-0.2,0.9C31.9,45.7,29.5,46.2,27.1,46z M35.3,47.2
				c-0.1,0.2-0.3,0.3-0.5,0.3c-0.1,0-0.2,0-0.3-0.1c0,0,0,0,0,0c-0.3-0.2-0.5-0.6-0.3-0.9c1-1.9,1.4-4,1.2-6.1
				c0-0.4,0.3-0.8,0.7-0.8h0c0,0,0,0,0,0c0.3,0,0.5,0.2,0.5,0.5C36.9,42.5,36.5,45,35.3,47.2z M36.7,34.5c-0.2-0.4-0.3-0.8-0.4-1.2
				c-0.3-0.8-0.7-1.7-1.1-2.5c-0.5-0.9-1.1-1.8-1.9-2.4c-0.9-0.7-1.9-1.3-3-1.6c-0.3-0.1-0.5-0.3-0.5-0.6l0,0c0-0.3,0.2-0.6,0.5-0.6
				c0.1,0,0.1,0,0.2,0c0.2,0.1,0.5,0.1,0.7,0.2c1.2,0.4,2.4,1.1,3.3,2.1c0.5,0.5,1,1.1,1.4,1.7c0.4,0.6,0.7,1.3,1,2
				c0.3,0.8,0.6,1.6,0.9,2.4c0.1,0.3,0,0.7-0.3,0.8c0,0,0,0,0,0C37.2,34.9,36.9,34.8,36.7,34.5z M39,41.1c0,0.8-0.1,1.5-0.1,2.2
				c0,0.3-0.3,0.5-0.5,0.5c-0.3,0-0.6-0.2-0.7-0.5c0,0,0-0.1,0-0.2c0.1-0.9,0.1-1.8,0.1-2.8c0-0.7,0-1.3-0.1-2
				c-0.1-0.8-0.3-1.5-0.4-2.3c0-0.1,0-0.3,0.1-0.4h0c0.1-0.2,0.3-0.3,0.6-0.3H38c0.3,0.1,0.5,0.3,0.5,0.5c0.1,0.4,0.2,0.8,0.2,1.2
				c0.1,0.8,0.2,1.5,0.3,2.3C39,40.1,39,40.6,39,41.1z M41,41c-0.1,0-0.1,0-0.2,0c-0.4,0-0.6-0.3-0.6-0.7c0-0.5,0-1-0.1-1.5
				c-0.1-0.9-0.2-1.7-0.3-2.5c-0.2-1.2-0.5-2.4-0.9-3.5c-0.4-1-0.8-2.1-1.3-3.1c0,0,0,0,0,0c-0.2-0.3-0.1-0.7,0.2-0.9l0.1,0.1
				c0,0,0.1,0,0.1,0c0.3-0.1,0.7,0.1,0.8,0.4c0.2,0.5,0.5,1,0.7,1.5c0.3,0.7,0.5,1.4,0.8,2.1c0.2,0.4,0.8,3.2,1,4.1V37
				c0.2,1.1,0.3,2.2,0.4,3.4C41.6,40.7,41.3,41,41,41z M43,36c-0.3,0.1-0.7-0.1-0.8-0.4c-0.1-0.4-0.2-0.8-0.3-1.2
				c-0.3-1-0.6-2-0.9-3c0,0,0,0,0,0c-0.2-0.3,0-0.8,0.4-0.9v-0.2c0.1,0,0.2,0,0.2,0c0.3,0,0.5,0.2,0.6,0.5l0.5,1.5
				c0.1,0.4,0.5,1.6,0.5,1.9s0.2,0.7,0.2,1C43.5,35.6,43.3,35.9,43,36z M43.2,28.3c-0.3,0.1-0.7,0-0.8-0.3c-0.4-0.7-0.8-1.4-1.2-2.2
				c-0.2-0.4,0-0.8,0.4-0.9l0,0c0.1,0,0.2-0.1,0.3-0.1c0.3,0,0.4,0.1,0.6,0.5s0.4,0.7,0.6,1c0.2,0.4,0.4,0.8,0.6,1.2c0,0,0,0,0,0.1
				C43.7,27.9,43.5,28.2,43.2,28.3z"/>
		</g>
		<path fill="none" d="M21.2,44.3c1.1,0.8,2.3,1.3,3.7,1.4c0.8,0.1,0.8-1.2,0-1.3c-1-0.1-2-0.4-2.9-1.1c-0.1-0.1-0.3-0.2-0.4-0.2
			c-0.3,0-0.6,0.2-0.7,0.6C20.9,44,21,44.2,21.2,44.3 M33.5,43.3c-1.9,1.2-4,1.7-6.2,1.5c-0.3,0-0.6,0.3-0.6,0.6
			c0,0.3,0.2,0.6,0.5,0.6c2.4,0.2,4.8-0.3,6.9-1.6c0.3-0.2,0.4-0.6,0.2-0.9c-0.1-0.1-0.3-0.3-0.4-0.3C33.6,43.2,33.5,43.2,33.5,43.3
			 M36.1,39.6c-0.4,0-0.7,0.4-0.7,0.8c0.3,2.1-0.1,4.2-1.2,6.1c-0.2,0.3,0,0.8,0.3,0.9c0,0,0,0,0,0c0.1,0,0.2,0.1,0.3,0.1
			c0.2,0,0.4-0.1,0.5-0.3c1.1-2.2,1.6-4.6,1.3-7.1C36.7,39.8,36.5,39.6,36.1,39.6C36.2,39.6,36.2,39.6,36.1,39.6L36.1,39.6
			 M19.7,38.3c0.6,2.6,2.7,4.5,5.3,5c0.8,0.2,0.9-1.1,0.1-1.2c-2-0.5-3.6-2-4.1-4c-0.1-0.3-0.4-0.5-0.8-0.4
			C19.9,37.7,19.7,37.9,19.7,38.3 M16.8,36.4c0.1,2.4,1,4.7,2.6,6.5c0.5,0.6,1.4-0.3,0.9-0.9c-1.4-1.5-2.2-3.5-2.3-5.5
			c0-0.4-0.3-0.6-0.7-0.6C17,35.9,16.8,36.1,16.8,36.4C16.7,36.4,16.7,36.4,16.8,36.4 M37.2,35.8c-0.1,0.1-0.1,0.3-0.1,0.4
			c0.1,0.8,0.3,1.5,0.4,2.3c0.1,0.6,0.1,1.3,0.1,2c0,0.9,0,1.8-0.1,2.8c0,0.1,0,0.1,0,0.2c0.1,0.3,0.4,0.5,0.7,0.5
			c0.3,0,0.5-0.2,0.5-0.5c0-0.7,0.1-1.5,0.1-2.2c0-0.5,0-1.1,0-1.6c-0.1-0.8-0.2-1.5-0.3-2.3c0-0.4-0.1-0.8-0.2-1.2
			c-0.1-0.3-0.3-0.5-0.5-0.5h-0.1C37.6,35.5,37.4,35.6,37.2,35.8 M35.4,35.5L35.4,35.5c-0.2,0-0.4,0.1-0.5,0.3
			c-0.1,0.1-0.1,0.3-0.1,0.5c0.1,0.6,0.2,1.2,0.3,1.8l0.1,0.5c0.1,0.3,0.3,0.5,0.6,0.5l0,0c0.2,0,0.3-0.1,0.5-0.2
			c0.1-0.1,0.2-0.3,0.1-0.4c-0.1-0.7-0.1-1.3-0.3-2v-0.2C36.1,35.9,36,35.5,35.4,35.5L35.4,35.5z M28.5,33.1
			c-0.3,0.1-0.5,0.4-0.5,0.7c0,0,0,0,0,0c0.1,0.3,0.4,0.5,0.7,0.5c1.1-0.2,2.3-0.1,3.3,0.3l1,4.1c0.2,2.2-1.6,4.1-5.9,3.7
			c-0.6-0.1-0.8,0.9-0.1,1.1c3.2,0.6,8.2-0.9,7.3-5.4l-1-4l0,0c0-0.2-0.1-0.3-0.3-0.4C31.6,33.1,30.1,32.9,28.5,33.1 M16.5,32.8
			c0,0.5,0,0.9,0,1.4c0,0.3,0.2,0.5,0.5,0.6c0.4,0,0.7-0.2,0.8-0.6c0,0,0-0.1,0-0.1c0-0.4,0-0.8,0-1.2c0-0.3-0.2-0.6-0.6-0.7l0,0
			C16.9,32.3,16.6,32.5,16.5,32.8 M21.7,32.4c-0.2,0.7-0.3,1.5-0.2,2.3c0,0.8,0.2,1.7,0.5,2.4c0.2,0.5,0.7,2,1.4,2l0,0
			c0.2,0,0.4-0.1,0.5-0.3c0.1-0.2,0.1-0.5,0-0.7c-0.5-0.8-0.8-1.7-1-2.6c-0.2-0.9-0.1-1.8,0.1-2.7l0,0c0-0.1,0-0.2,0-0.3
			c0-0.3-0.2-0.5-0.5-0.5h-0.1C22,32,21.7,32.2,21.7,32.4 M41.3,30.4C41,30.6,40.8,31,41,31.3c0,0,0,0,0,0c0.3,1,0.6,2,0.9,3
			c0.1,0.4,0.2,0.8,0.3,1.2c0.1,0.3,0.4,0.5,0.8,0.4c0.3-0.1,0.5-0.4,0.5-0.8c-0.1-0.3-0.1-0.6-0.2-1s-0.4-1.6-0.5-2l-0.5-1.5
			c-0.1-0.3-0.3-0.5-0.6-0.5c-0.1,0-0.2,0-0.2,0 M27.3,30.1c-2.1,0.1-3.5,1.5-3.5,3.2l0,0c0.1,1.8,1.3,2.5,3.8,3
			c2.3,0.4,2.9,0.9,2.9,1.9l0,0c0,1.1-0.9,1.9-2.4,2c-1.3,0.1-2.5-0.3-3.5-1.1c-0.1-0.1-0.2-0.1-0.4-0.1c-0.3,0-0.6,0.3-0.6,0.6
			c0,0,0,0,0,0c0,0.2,0.1,0.4,0.2,0.5c1.2,0.9,2.7,1.4,4.2,1.3c2.2-0.1,3.7-1.4,3.6-3.3l0,0c-0.1-1.7-1.2-2.5-3.7-2.9s-3-1-3.1-2
			l0,0c0-1,0.8-1.9,2.3-1.9c1-0.1,2,0.2,2.9,0.7c0.1,0.1,0.2,0.1,0.4,0.1c0.3,0,0.6-0.3,0.6-0.6c0,0,0,0,0,0c0-0.2-0.1-0.4-0.3-0.5
			c-0.9-0.6-2-0.9-3.1-0.8L27.3,30.1 M20.3,29.1c-0.5,0.7-0.8,1.6-1.1,2.4c-0.3,0.9-0.4,1.9-0.4,2.8c0,0.7,0.1,2.4,0.8,2.6
			c0.2,0.1,0.4,0,0.6-0.1c0.2-0.2,0.3-0.4,0.2-0.7c-0.3-1-0.4-2.1-0.2-3.2c0.1-1.1,0.5-2.1,1-3c0.1-0.1,0.1-0.2,0.2-0.4
			c0.1-0.3-0.1-0.6-0.4-0.7c-0.1,0-0.2-0.1-0.3-0.1C20.6,28.9,20.4,29,20.3,29.1 M37.8,28.7c-0.3,0.2-0.4,0.6-0.2,0.9c0,0,0,0,0,0
			c0.4,1,0.9,2.1,1.3,3.1c0.4,1.1,0.7,2.3,0.9,3.5c0.1,0.8,0.2,1.7,0.3,2.5c0.1,0.5,0.1,1,0.1,1.5c0,0.4,0.3,0.7,0.6,0.7
			c0.1,0,0.1,0,0.2,0c0.3,0,0.6-0.3,0.6-0.6c0-1.1-0.2-2.3-0.4-3.4v-0.1c-0.2-0.9-0.8-3.6-1-4.1c-0.2-0.7-0.5-1.4-0.8-2.1
			c-0.2-0.5-0.5-1-0.7-1.5c-0.1-0.3-0.5-0.5-0.8-0.4C37.9,28.8,37.9,28.8,37.8,28.7 M25.7,28c-1.6,0.3-2.9,1.4-3.5,2.9
			c-0.1,0.2,0,0.5,0.2,0.6c0,0,0,0,0.1,0c0.1,0,0.2,0,0.2,0c0.3,0,0.5-0.2,0.6-0.4c0.6-1,1.5-1.8,2.7-2c0.3,0,0.5-0.3,0.4-0.6
			c0,0,0,0,0,0c-0.1-0.3-0.3-0.5-0.6-0.5L25.7,28 M27.3,27.5c-0.3,0.1-0.5,0.3-0.4,0.6c0.1,0.3,0.4,0.6,0.7,0.6l0,0h0.2
			c0.2,0,0.4,0,0.6,0c0.7,0,1.4,0.2,2.1,0.5c2.7,1,3.6,3.8,3.9,5.3c0,0.2,0.2,0.4,0.3,0.4c0.1,0,0.1,0,0.2,0c0.2,0,0.3-0.1,0.5-0.2
			c0.2-0.1,0.2-0.4,0.2-0.6c-0.4-2.7-2.1-4.9-4.5-6.1c-1-0.4-2-0.6-3-0.6C27.8,27.4,27.5,27.5,27.3,27.5 M29.8,26.2
			c0,0.3,0.2,0.6,0.5,0.6c1.1,0.3,2.1,0.9,3,1.6c0.8,0.7,1.5,1.5,1.9,2.4c0.4,0.8,0.7,1.7,1,2.5c0.2,0.4,0.2,0.8,0.4,1.2
			c0.1,0.3,0.5,0.4,0.8,0.3c0,0,0,0,0,0c0.3-0.1,0.5-0.5,0.3-0.8c-0.3-0.8-0.6-1.6-0.9-2.4c-0.3-0.7-0.6-1.4-1-2
			c-0.4-0.6-0.9-1.2-1.4-1.7c-0.9-0.9-2.1-1.6-3.3-2.1c-0.2-0.1-0.5-0.1-0.7-0.2c-0.1,0-0.1,0-0.2,0l0,0
			C30.1,25.7,29.9,25.9,29.8,26.2 M25.5,25.5c-1.4,0.4-2.7,1.1-3.8,2c-0.3,0.2-0.3,0.6-0.1,0.9c0.2,0.3,0.6,0.3,0.9,0.1c0,0,0,0,0,0
			c0.6-0.5,1.3-1,2-1.3c0.7-0.3,1.5-0.6,2.3-0.7c0.5,0,1-0.1,1.4-0.1s0.7-0.2,0.7-0.5c0.1-0.3-0.1-0.7-0.5-0.8c0,0-0.1,0-0.1,0h-0.3
			C27.3,25.2,26.4,25.3,25.5,25.5 M41.6,24.9c-0.4,0.2-0.5,0.6-0.4,0.9c0.4,0.7,0.8,1.4,1.2,2.2c0.2,0.3,0.5,0.4,0.8,0.3
			c0.3-0.1,0.5-0.4,0.4-0.7c0,0,0,0,0-0.1c-0.2-0.4-0.4-0.8-0.6-1.2c-0.2-0.4-0.4-0.7-0.6-1s-0.3-0.5-0.6-0.5
			C41.7,24.9,41.6,24.9,41.6,24.9 M20.9,24.9c-0.7,0.6-1.4,1.2-2,1.9c-0.9,1-1.6,2.2-2.1,3.5c-0.1,0.3,0,0.7,0.3,0.8
			c0.3,0.1,0.7,0,0.8-0.3c0,0,0-0.1,0-0.1c0.4-0.9,0.8-1.8,1.4-2.6c0.4-0.5,0.8-0.9,1.3-1.3c0.4-0.5,0.9-0.9,1.5-1.2
			c0.2-0.2,0.3-0.5,0.2-0.8c-0.1-0.2-0.3-0.3-0.5-0.3C21.5,24.6,21.2,24.7,20.9,24.9 M17.4,24.7c-0.3,0.3-0.6,0.7-0.9,1.1
			c-0.2,0.2-0.2,0.5,0,0.8c0.2,0.3,0.7,0.3,0.9,0.1c0,0,0,0,0.1-0.1c0.3-0.3,0.5-0.6,0.8-0.9c0.2-0.2,0.2-0.6,0-0.9
			c-0.1-0.1-0.3-0.2-0.5-0.2C17.7,24.5,17.5,24.6,17.4,24.7 M26.8,22.7c-1.1,0.1-2.2,0.4-3.3,0.8c-0.3,0.1-0.5,0.3-0.5,0.6
			c0,0.2,0.1,0.5,0.4,0.6c0.2,0.1,0.4,0.1,0.5,0c0.5-0.1,1-0.4,1.5-0.5c0.9-0.2,1.8-0.3,2.7-0.3c3.2,0,6.2,1.4,8.2,3.9
			c0.1,0.2,0.3,0.4,0.6,0.5c0.3,0,0.5-0.1,0.7-0.3c0.2-0.2,0.2-0.5,0-0.7c-1.2-1.5-2.7-2.7-4.4-3.5c-1.1-0.5-2.3-0.8-3.5-1
			c-0.5-0.1-1-0.1-1.5-0.1C27.6,22.6,27.2,22.6,26.8,22.7 M33.5,22.1c0,0.2,0.1,0.4,0.4,0.5c0.7,0.5,1.5,0.9,2.2,1.4
			c0.9,0.7,1.8,1.5,2.5,2.4c0.4,0.6,0.8,1.1,1.2,1.7c0.2,0.3,0.3,0.7,0.5,1c0.1,0.3,0.5,0.4,0.8,0.3c0.2-0.1,0.3-0.2,0.4-0.3
			c0.1-0.3,0-0.6-0.2-0.9c-0.1-0.3-0.3-0.6-0.5-0.9c-0.4-0.8-0.9-1.5-1.5-2.2c-0.7-0.9-1.5-1.6-2.4-2.3c-0.8-0.5-1.5-1-2.3-1.4
			c-0.3-0.2-0.7-0.1-0.9,0.1C33.5,21.8,33.5,22,33.5,22.1 M21.5,21.6C20.7,22,20,22.5,19.3,23c-0.3,0.2-0.5,0.4-0.5,0.7
			c0,0.4,0.3,0.6,0.7,0.6c0.1,0,0.2,0,0.3-0.1c0.7-0.5,1.3-0.9,2-1.3c0.6-0.3,1.2-0.6,1.8-0.8c0.3-0.1,0.5-0.4,0.5-0.8c0,0,0,0,0,0
			c-0.1-0.2-0.4-0.4-0.6-0.4C22.7,21,22,21.3,21.5,21.6 M36.6,20.9c-0.1,0.2,0,0.5,0.3,0.6c1,0.7,1.9,1.4,2.7,2.3
			c0.1,0.2,0.3,0.3,0.5,0.5c0.2,0.1,0.5,0.1,0.7,0c0.3-0.2,0.4-0.6,0.2-0.9c0,0,0,0,0,0c-0.9-1.1-2-2-3.2-2.9
			c-0.1-0.1-0.3-0.2-0.5-0.1C36.9,20.3,36.6,20.6,36.6,20.9 M27.5,20c-0.7,0-1.5,0.2-2.2,0.2c-0.3,0.1-0.6,0.4-0.5,0.7c0,0,0,0,0,0
			c0.1,0.3,0.4,0.5,0.8,0.5c0.7-0.1,1.4-0.2,2.2-0.2c1.4,0,2.9,0.2,4.2,0.7c0.3,0.1,0.7-0.1,0.8-0.4c0-0.1,0-0.3,0-0.4
			c-0.4-0.6-2.1-0.9-3-1c-0.6-0.1-1.2-0.1-1.8-0.1L27.5,20 M19.8,19.7c-0.2,0.1-0.4,0.2-0.6,0.3c-0.5,0.4-1.1,0.7-1.6,1.1
			c-0.3,0.2-0.3,0.6-0.1,0.9c0,0,0,0,0,0c0.2,0.3,0.6,0.3,0.9,0.1c0.7-0.5,1.4-0.9,2-1.3c0.3-0.2,0.4-0.5,0.3-0.8
			c-0.1-0.2-0.3-0.4-0.6-0.4C19.9,19.6,19.8,19.7,19.8,19.7 M22.5,18.5c-0.3,0.1-0.5,0.2-0.8,0.3c-0.3,0.1-0.6,0.4-0.5,0.8
			c0.1,0.3,0.4,0.6,0.8,0.5c0.1,0,0.1,0,0.2-0.1c0.9-0.3,1.8-0.6,2.7-0.8c0.8-0.2,1.6-0.3,2.4-0.3c0.5,0,1.1,0,1.6,0
			c1.1,0.1,2.1,0.2,3.2,0.5c1.1,0.3,2.1,0.7,3.1,1.2c0.2,0.1,0.5,0.1,0.7-0.1c0.3-0.3,0.3-0.7,0-1c-0.1-0.1-0.1-0.1-0.2-0.1
			c-1.5-0.7-3-1.3-4.6-1.6c-1-0.2-2.1-0.3-3.1-0.3l0,0C26,17.6,24.2,17.9,22.5,18.5 M32.4,15.6c-0.3,0.1-0.5,0.3-0.5,0.6
			c0,0.3,0.2,0.5,0.5,0.6c0.7,0.2,1.4,0.4,2,0.6c1.5,0.5,2.8,1.2,4.1,2.1c0.4,0.3,0.7,0.6,1.1,0.8c0.2,0.3,0.6,0.3,0.9,0.1
			c0.3-0.2,0.3-0.6,0.1-0.9l0,0c-0.2-0.2-0.3-0.4-0.5-0.5c-1.4-1.1-3-2-4.7-2.7c-0.9-0.3-1.8-0.6-2.7-0.9h-0.1H32.4 M27.1,15
			c-0.7,0.1-1.4,0.1-2,0.2c-1.8,0.3-3.5,0.8-5.1,1.5l-0.9,0.4c-0.3,0.1-0.4,0.4-0.4,0.6c0,0.3,0.2,0.5,0.4,0.6
			c0.2,0.1,0.3,0.1,0.5,0c1.5-0.8,3.2-1.4,4.9-1.7c1-0.2,2-0.2,3-0.3c1-0.1,2,0,3,0.1c0.3,0,0.6-0.2,0.7-0.5c0,0,0,0,0,0
			c0.1-0.3-0.2-0.6-0.5-0.7c0,0,0,0,0,0c-0.6-0.1-1.3-0.1-1.9-0.2h-0.6C27.8,15,27.5,15,27.1,15 M25.8,12.6
			c-0.6,0.1-1.2,0.1-1.9,0.2c-0.3,0-0.7,0.2-0.9,0.4c-0.2,0.2-0.2,0.5-0.1,0.7c0.1,0.3,0.4,0.4,0.7,0.3l2.3-0.3
			c0.3-0.1,0.6-0.3,0.6-0.7C26.4,12.9,26.2,12.6,25.8,12.6L25.8,12.6 M27.3,13.3c0.1,0.3,0.4,0.5,0.7,0.5c1,0,1.9,0.1,2.9,0.2
			c1.1,0.1,2.1,0.3,3.1,0.6c0.3,0.1,0.6,0,0.8-0.3c0.2-0.2,0.2-0.6-0.1-0.8c-0.2-0.1-0.3-0.2-0.5-0.3c-1.1-0.2-2.1-0.5-3.2-0.6
			s-2-0.1-3-0.1l0,0c-0.3,0-0.6,0.3-0.6,0.6C27.3,13.2,27.3,13.2,27.3,13.3"/>
	</g>
</g>
</svg>
