<?xml version="1.0" encoding="utf-8"?>
<!-- Generator: Adobe Illustrator 25.2.1, SVG Export Plug-In . SVG Version: 6.00 Build 0)  -->
<svg version="1.1" id="Capa_1" xmlns="http://www.w3.org/2000/svg" xmlns:xlink="http://www.w3.org/1999/xlink" x="0px" y="0px"
	 viewBox="0 0 60 60" enable-background="new 0 0 60 60" xml:space="preserve">
<g>
	<path fill="#9E1724" d="M30,0C13.4,0,0,13.4,0,30s13.4,30,30,30c9.7,0,18.7-4.7,24.4-12.5c0.1-0.1,0.1-0.1,0.1-0.2
		c0.1-0.3,0-0.7-0.3-0.8c-0.3-0.1-0.7,0-0.8,0.3c-5.4,7.5-14.1,12-23.4,12C14.2,58.7,1.3,45.9,1.3,30C1.3,14.2,14.1,1.3,30,1.3
		c15.9,0,28.7,12.9,28.7,28.7c0,3-0.5,6-1.4,8.9c0,0,0,0,0,0c-0.1,0.3,0.1,0.7,0.4,0.8c0,0,0,0,0,0c0.3,0.1,0.7-0.1,0.8-0.4
		c1-3,1.5-6.1,1.5-9.3C60,13.4,46.6,0,30,0z"/>
	<polygon fill="#9E1724" points="37.1,18.6 41.2,18.6 37.1,14.5 	"/>
	<path fill="#9E1724" d="M30,5C16.2,5,5,16.2,5,30s11.2,25,25,25s25-11.2,25-25S43.8,5,30,5z M36.8,33.8c0.4,0,0.7,0.3,0.7,0.7v0
		c0,0.4-0.3,0.7-0.7,0.7h-1.5c-0.4,0-0.7-0.3-0.7-0.7v0c0-0.4,0.3-0.7,0.7-0.7H36.8z M36.8,31.6L36.8,31.6c0-0.4,0.3-0.7,0.7-0.7
		h1.5c0.4,0,0.7,0.3,0.7,0.7v0c0,0.4-0.3,0.7-0.7,0.7h-1.5C37.1,32.3,36.8,32,36.8,31.6z M35.3,31.7c0,0.4-0.3,0.7-0.7,0.7H21
		c-0.4,0-0.7-0.3-0.7-0.7v0c0-0.4,0.3-0.7,0.7-0.7h13.6C35,31,35.3,31.3,35.3,31.7L35.3,31.7z M21,33.8h11.6c0.4,0,0.7,0.3,0.7,0.7
		v0c0,0.4-0.3,0.7-0.7,0.7H21c-0.4,0-0.7-0.3-0.7-0.7v0C20.4,34.1,20.7,33.8,21,33.8z M21,36.6H39c0.4,0,0.7,0.3,0.7,0.7v0
		c0,0.4-0.3,0.7-0.7,0.7H21c-0.4,0-0.7-0.3-0.7-0.7v0C20.4,36.9,20.7,36.6,21,36.6z M39,29.5H21c-0.4,0-0.7-0.3-0.7-0.7v0
		c0-0.4,0.3-0.7,0.7-0.7H39c0.4,0,0.7,0.3,0.7,0.7v0C39.6,29.2,39.3,29.5,39,29.5z M20.4,26L20.4,26c0-0.4,0.3-0.7,0.7-0.7h11.6
		c0.4,0,0.7,0.3,0.7,0.7v0c0,0.4-0.3,0.7-0.7,0.7H21C20.7,26.7,20.4,26.4,20.4,26z M34.7,26L34.7,26c0-0.4,0.3-0.7,0.7-0.7h1.5
		c0.4,0,0.7,0.3,0.7,0.7v0c0,0.4-0.3,0.7-0.7,0.7h-1.5C35,26.7,34.7,26.4,34.7,26z M36.7,19.6c-0.4,0-0.7-0.3-0.7-0.7v-5.3H18.2
		c-0.1,0-0.2,0.1-0.2,0.2v32.4c0,0.1,0.1,0.2,0.2,0.2h23.6c0.1,0,0.2-0.1,0.2-0.2v-25c0-0.3,0.2-0.5,0.5-0.5c0,0,0,0,0,0
		c0.3,0,0.5,0.3,0.5,0.5v25c0,0.7-0.6,1.3-1.3,1.3H18.1c-0.7,0-1.3-0.6-1.3-1.3V13.8c0-0.7,0.6-1.3,1.3-1.3h18.7l0.3,0.3l0.2,0.2
		l0.1,0.1l4.1,4.2l0.5,0.5l0.8,0.8l0.1,0.1c0.1,0.1,0.2,0.3,0.2,0.5c0,0,0,0,0,0c0,0.2-0.2,0.3-0.4,0.3H36.7z"/>
</g>
</svg>
