<?xml version="1.0" encoding="utf-8"?>
<!-- Generator: Adobe Illustrator 25.2.1, SVG Export Plug-In . SVG Version: 6.00 Build 0)  -->
<svg version="1.1" id="Capa_1" xmlns="http://www.w3.org/2000/svg" xmlns:xlink="http://www.w3.org/1999/xlink" x="0px" y="0px"
	 viewBox="0 0 60 60" enable-background="new 0 0 60 60" xml:space="preserve">
<g>
	<path fill="#9E1724" d="M30,0C13.4,0,0,13.4,0,30s13.4,30,30,30c9.7,0,18.7-4.7,24.4-12.5c0.1-0.1,0.1-0.1,0.1-0.2
		c0.1-0.3,0-0.7-0.3-0.8c-0.3-0.1-0.7,0-0.8,0.3c-5.4,7.5-14.1,12-23.4,12C14.2,58.7,1.3,45.9,1.3,30C1.3,14.2,14.1,1.3,30,1.3
		c15.9,0,28.7,12.9,28.7,28.7c0,3-0.5,6-1.4,8.9c0,0,0,0,0,0c-0.1,0.3,0.1,0.7,0.4,0.8c0,0,0,0,0,0c0.3,0.1,0.7-0.1,0.8-0.4
		c1-3,1.5-6.1,1.5-9.3C60,13.4,46.6,0,30,0z"/>
	<polygon fill="#9E1724" points="37.1,18.6 41.2,18.6 37.1,14.5 	"/>
	<path fill="#9E1724" d="M30,5C16.2,5,5,16.2,5,30s11.2,25,25,25s25-11.2,25-25S43.8,5,30,5z M38.2,37.7H24.7
		c-0.4,0-0.7-0.3-0.7-0.7v0c0-0.4,0.3-0.7,0.7-0.7h13.5c0.4,0,0.7,0.3,0.7,0.7v0C38.8,37.4,38.5,37.7,38.2,37.7z M38.8,40.4
		L38.8,40.4c0,0.4-0.3,0.7-0.7,0.7H24.7c-0.4,0-0.7-0.3-0.7-0.7v0c0-0.4,0.3-0.7,0.7-0.7h13.5C38.5,39.7,38.8,40,38.8,40.4z
		 M38.2,34.4H24.7c-0.4,0-0.7-0.3-0.7-0.7v0c0-0.4,0.3-0.7,0.7-0.7h13.5c0.4,0,0.7,0.3,0.7,0.7v0C38.8,34.1,38.5,34.4,38.2,34.4z
		 M38.2,31H24.7c-0.4,0-0.7-0.3-0.7-0.7v0c0-0.4,0.3-0.7,0.7-0.7h13.5c0.4,0,0.7,0.3,0.7,0.7v0C38.8,30.7,38.5,31,38.2,31z
		 M38.2,27.7H24.7c-0.4,0-0.7-0.3-0.7-0.7v0c0-0.4,0.3-0.7,0.7-0.7h13.5c0.4,0,0.7,0.3,0.7,0.7v0C38.8,27.4,38.5,27.7,38.2,27.7z
		 M36.7,19.6c-0.4,0-0.7-0.3-0.7-0.7v-5.3H18.2c-0.1,0-0.2,0.1-0.2,0.2v32.4c0,0.1,0.1,0.2,0.2,0.2h23.6c0.1,0,0.2-0.1,0.2-0.2v-25
		c0-0.3,0.2-0.5,0.5-0.5c0,0,0,0,0,0c0.3,0,0.5,0.3,0.5,0.5v25c0,0.7-0.6,1.3-1.3,1.3H18.1c-0.7,0-1.3-0.6-1.3-1.3V13.8
		c0-0.7,0.6-1.3,1.3-1.3h18.7l0.3,0.3l0.2,0.2l0.1,0.1l4.1,4.2l0.5,0.5l0.8,0.8l0.1,0.1c0.1,0.1,0.2,0.3,0.2,0.5c0,0,0,0,0,0
		c0,0.2-0.2,0.3-0.4,0.3H36.7z M21.8,37.7c-0.4,0-0.7-0.3-0.7-0.7s0.3-0.7,0.7-0.7s0.7,0.3,0.7,0.7S22.2,37.7,21.8,37.7z M22.5,40.4
		c0,0.4-0.3,0.7-0.7,0.7s-0.7-0.3-0.7-0.7s0.3-0.7,0.7-0.7S22.5,40,22.5,40.4z M21.8,34.4c-0.4,0-0.7-0.3-0.7-0.7s0.3-0.7,0.7-0.7
		s0.7,0.3,0.7,0.7S22.2,34.4,21.8,34.4z M21.8,31c-0.4,0-0.7-0.3-0.7-0.7s0.3-0.7,0.7-0.7s0.7,0.3,0.7,0.7S22.2,31,21.8,31z
		 M21.8,27.7c-0.4,0-0.7-0.3-0.7-0.7c0-0.4,0.3-0.7,0.7-0.7s0.7,0.3,0.7,0.7C22.5,27.4,22.2,27.7,21.8,27.7z"/>
</g>
</svg>
