<?xml version="1.0" encoding="utf-8"?>
<!-- Generator: Adobe Illustrator 25.2.1, SVG Export Plug-In . SVG Version: 6.00 Build 0)  -->
<svg version="1.1" id="Capa_1" xmlns="http://www.w3.org/2000/svg" xmlns:xlink="http://www.w3.org/1999/xlink" x="0px" y="0px"
	 viewBox="0 0 60 60" enable-background="new 0 0 60 60" xml:space="preserve">
<g>
	<path fill="#9E1724" d="M30,0C13.4,0,0,13.4,0,30s13.4,30,30,30c9.7,0,18.7-4.7,24.4-12.5c0.1-0.1,0.1-0.1,0.1-0.2
		c0.1-0.3,0-0.7-0.3-0.8c-0.3-0.1-0.7,0-0.8,0.3c-5.4,7.5-14.1,12-23.4,12C14.2,58.7,1.3,45.9,1.3,30C1.3,14.2,14.1,1.3,30,1.3
		c15.9,0,28.7,12.9,28.7,28.7c0,3-0.5,6-1.4,8.9c0,0,0,0,0,0c-0.1,0.3,0.1,0.7,0.4,0.8c0,0,0,0,0,0c0.3,0.1,0.7-0.1,0.8-0.4
		c1-3,1.5-6.1,1.5-9.3C60,13.4,46.6,0,30,0z"/>
	<path fill="#9E1724" d="M23.1,25.1c0.3,0.1,0.7,0.2,1,0.2c0.6,0,1.1-0.2,1.6-0.5c0.3-0.2,0.5-0.5,0.7-0.8c0,0,0-0.1,0-0.1
		c0.1-0.2,0.2-0.5,0.3-0.7c0.1-0.2,0.1-0.5,0.1-0.7c0-0.1,0-0.2,0-0.4c-0.2-1.4-1.4-2.4-2.7-2.4c-0.2,0-0.3,0-0.5,0
		c-0.4,0.1-0.8,0.2-1.1,0.4c-0.8,0.5-1.2,1.4-1.2,2.3c0,0.8,0.3,1.5,0.8,2C22.5,24.7,22.8,24.9,23.1,25.1z"/>
	<path fill="#9E1724" d="M28,22.1c0,0.1,0,0.3,0,0.4c0,0.2,0,0.4,0,0.7c-0.1,0.3-0.1,0.6-0.3,0.9c0.6,0,1.3-0.2,1.8-0.6
		c0.3-0.2,0.6-0.5,0.9-0.8c0.6-0.7,0.9-1.6,0.9-2.5c0-2.1-1.7-3.8-3.8-3.8c-1.5,0-2.9,0.9-3.5,2.3h0.2C26.1,18.7,27.7,20.1,28,22.1z
		"/>
	<path fill="#9E1724" d="M30,5C16.2,5,5,16.2,5,30s11.2,25,25,25s25-11.2,25-25S43.8,5,30,5z M23.2,38.2c0,0.4-0.3,0.7-0.7,0.7h-1.5
		c-0.4,0-0.7-0.3-0.7-0.7v0c0-0.4,0.3-0.7,0.7-0.7h1.5C22.9,37.5,23.2,37.8,23.2,38.2L23.2,38.2z M24.6,40.4c0.4,0,0.7,0.3,0.7,0.7
		v0c0,0.4-0.3,0.7-0.7,0.7h-1.5c-0.4,0-0.7-0.3-0.7-0.7v0c0-0.4,0.3-0.7,0.7-0.7H24.6z M21,43.2H39c0.4,0,0.7,0.3,0.7,0.7v0
		c0,0.4-0.3,0.7-0.7,0.7H21c-0.4,0-0.7-0.3-0.7-0.7v0C20.4,43.5,20.7,43.2,21,43.2z M39,41.7H27.4c-0.4,0-0.7-0.3-0.7-0.7v0
		c0-0.4,0.3-0.7,0.7-0.7H39c0.4,0,0.7,0.3,0.7,0.7v0C39.6,41.4,39.3,41.7,39,41.7z M39,38.9H25.3c-0.4,0-0.7-0.3-0.7-0.7v0
		c0-0.4,0.3-0.7,0.7-0.7H39c0.4,0,0.7,0.3,0.7,0.7v0C39.6,38.6,39.3,38.9,39,38.9z M39,36.1H21c-0.4,0-0.7-0.3-0.7-0.7v0
		c0-0.4,0.3-0.7,0.7-0.7H39c0.4,0,0.7,0.3,0.7,0.7v0C39.6,35.8,39.3,36.1,39,36.1z M34.6,28.2c0,0.4,0.1,0.7,0.1,1.1H20.4
		c0-1.4,0.4-2.8,1.2-3.9c-0.4-0.4-0.8-0.9-1-1.4c-0.8-2,0.2-4.1,2.2-4.9c0.2-0.6,0.5-1.2,0.9-1.7c1.6-2.1,4.7-2.5,6.8-0.9
		c2.1,1.6,2.5,4.7,0.9,6.8C33.1,24.3,34.3,26.1,34.6,28.2z M25.3,32.6L25.3,32.6c0,0.4-0.3,0.7-0.7,0.7h-1.5c-0.4,0-0.7-0.3-0.7-0.7
		v0c0-0.4,0.3-0.7,0.7-0.7h1.5C25,31.9,25.3,32.2,25.3,32.6z M39,33.3H27.4c-0.4,0-0.7-0.3-0.7-0.7v0c0-0.4,0.3-0.7,0.7-0.7H39
		c0.4,0,0.7,0.3,0.7,0.7v0C39.6,33,39.3,33.3,39,33.3z M36.7,19.6c-0.4,0-0.7-0.3-0.7-0.7v-5.3H18.2c-0.1,0-0.2,0.1-0.2,0.2v32.4
		c0,0.1,0.1,0.2,0.2,0.2h23.6c0.1,0,0.2-0.1,0.2-0.2v-25c0-0.3,0.2-0.5,0.5-0.5c0,0,0,0,0,0c0.3,0,0.5,0.3,0.5,0.5v25
		c0,0.7-0.6,1.3-1.3,1.3H18.1c-0.7,0-1.3-0.6-1.3-1.3V13.8c0-0.7,0.6-1.3,1.3-1.3h18.7l0.3,0.3l0.2,0.2l0.1,0.1l4.1,4.2l0.5,0.5
		l0.8,0.8l0.1,0.1c0.1,0.1,0.2,0.3,0.2,0.5c0,0,0,0,0,0c0,0.2-0.2,0.3-0.4,0.3H36.7z"/>
	<path fill="#9E1724" d="M27.5,25l1.2,1.3c0.1,0.1,0.2,0.2,0.2,0.4c0,0.1-0.1,0.3-0.2,0.4c-0.2,0.2-0.5,0.2-0.7,0l-1.5-1.5
		c-0.7,0.5-1.5,0.8-2.3,0.8c-0.6,0-1.2-0.1-1.7-0.4c-0.5,0.7-0.8,1.5-0.9,2.3l12,0c-0.3-1.8-1.4-3.4-3-4.2
		C29.7,24.6,28.6,25,27.5,25z"/>
	<polygon fill="#9E1724" points="37.1,18.6 41.2,18.6 37.1,14.5 	"/>
</g>
</svg>
