<?xml version="1.0" encoding="utf-8"?>
<!-- Generator: Adobe Illustrator 25.2.1, SVG Export Plug-In . SVG Version: 6.00 Build 0)  -->
<svg version="1.1" id="Capa_1" xmlns="http://www.w3.org/2000/svg" xmlns:xlink="http://www.w3.org/1999/xlink" x="0px" y="0px"
	 viewBox="0 0 60 60" enable-background="new 0 0 60 60" xml:space="preserve">
<g>
	<path fill="#9E1724" d="M30,0C13.4,0,0,13.4,0,30s13.4,30,30,30c9.7,0,18.7-4.7,24.4-12.5c0.1-0.1,0.1-0.1,0.1-0.2
		c0.1-0.3,0-0.7-0.3-0.8c-0.3-0.1-0.7,0-0.8,0.3c-5.4,7.5-14.1,12-23.4,12C14.2,58.7,1.3,45.9,1.3,30C1.3,14.2,14.1,1.3,30,1.3
		c15.9,0,28.7,12.9,28.7,28.7c0,3-0.5,6-1.4,8.9c0,0,0,0,0,0c-0.1,0.3,0.1,0.7,0.4,0.8c0,0,0,0,0,0c0.3,0.1,0.7-0.1,0.8-0.4
		c1-3,1.5-6.1,1.5-9.3C60,13.4,46.6,0,30,0z"/>
	<path fill="#9E1724" d="M41.6,22.3L40,21.7l-0.8,1.9c-0.1,0.2-0.2,0.3-0.4,0.3l-1.2,0.4l-7.2,17.5l3.9,1.6l1.1-2.7L33.7,40
		c-0.2-0.1-0.4-0.3-0.5-0.5c-0.1-0.2-0.1-0.4,0-0.7c0.1-0.2,0.3-0.4,0.5-0.5c0.2-0.1,0.4-0.1,0.7,0l1.7,0.7l0.2-0.5l-1.7-0.7
		c-0.2-0.1-0.4-0.3-0.5-0.5c-0.1-0.2-0.1-0.4,0-0.7c0.2-0.4,0.7-0.6,1.1-0.5l1.7,0.7l0.2-0.5l-1.7-0.7c-0.4-0.2-0.6-0.7-0.5-1.1
		c0,0,0,0,0,0c0.2-0.4,0.7-0.6,1.1-0.4l1.7,0.7l0.2-0.5l-1.7-0.7c-0.2-0.1-0.4-0.3-0.5-0.5c-0.1-0.2-0.1-0.4,0-0.7
		c0.1-0.2,0.3-0.4,0.5-0.5c0.2-0.1,0.4-0.1,0.7,0l1.7,0.7l0.2-0.5l-1.7-0.7c-0.2-0.1-0.4-0.3-0.5-0.5c-0.1-0.2-0.1-0.4,0-0.7
		c0,0,0,0,0,0c0.2-0.4,0.7-0.6,1.1-0.4l1.7,0.7l0.2-0.5L38,29.6c-0.1,0-0.1,0-0.2-0.1c-0.4-0.2-0.6-0.8-0.4-1.2
		c0.2-0.4,0.8-0.6,1.2-0.4l1.6,0.7l0.2-0.5l-1.7-0.7c-0.4-0.2-0.6-0.7-0.5-1.1c0,0,0,0,0,0c0.2-0.4,0.7-0.6,1.1-0.4l1.7,0.7l0.3-0.6
		l-0.6-1.2c-0.1-0.2-0.1-0.3,0-0.5L41.6,22.3z"/>
	<rect x="19.7" y="21.3" fill="#9E1724" width="2.3" height="2.3"/>
	<path fill="#9E1724" d="M30,5C16.2,5,5,16.2,5,30s11.2,25,25,25s25-11.2,25-25S43.8,5,30,5z M27.8,47.5H17.5
		c-0.5,0-0.9-0.2-1.3-0.5c-0.3-0.3-0.5-0.8-0.5-1.2V15.9c0-1,0.8-1.8,1.7-1.8c0,0,0,0,0,0h4.2c1.4-1.2,3.8-1.6,6.5-1.6
		c2.6,0,4.9,0.5,6.3,1.6h4c0.5,0,0.9,0.2,1.2,0.5c0.1,0.1,0.2,0.2,0.2,0.3v3.6l-1.5,0v-2.2h-21v28.3h10.2V47.5z M24.9,32.5
		c-0.2,0-0.3-0.3-0.3-0.7c0-0.4,0.1-0.7,0.3-0.7h3.7l-0.2,1.4H24.9z M26.6,36l-0.2,1.4h-1.5c-0.2,0-0.3-0.3-0.3-0.7s0.1-0.7,0.3-0.7
		H26.6z M24.9,27.6c-0.2,0-0.3-0.3-0.3-0.7c0-0.4,0.1-0.7,0.3-0.7h5.7l-0.2,1.4H24.9z M24.9,22.8c-0.2,0-0.3-0.3-0.3-0.7
		c0-0.4,0.1-0.7,0.3-0.7h7.7l-0.2,1.4H24.9z M22.6,23.9c0,0.2-0.1,0.3-0.3,0.3h-2.9c-0.2,0-0.3-0.1-0.3-0.3V21c0,0,0,0,0,0
		c0-0.2,0.1-0.3,0.3-0.3h2.9c0.1,0,0.3,0.1,0.3,0.2V23.9z M22.9,24.9c0.1,0.1,0.2,0.3,0.1,0.4c0,0,0,0,0,0l-1.8,2.5
		C21.2,28,21.1,28,21,28c-0.1,0-0.1,0-0.2,0L20,27.4c-0.1-0.1-0.2-0.3-0.1-0.4c0.1-0.1,0.3-0.2,0.4-0.1l0.7,0.4l1.6-2.3
		C22.6,24.9,22.8,24.8,22.9,24.9z M19.4,25.4h2.4L21.3,26h-1.6v2.3H22v-1.1l0.6-0.6v2c0,0.2-0.1,0.3-0.3,0.3h-2.9
		c-0.2,0-0.3-0.1-0.3-0.3v-2.9C19.1,25.5,19.2,25.4,19.4,25.4z M19.4,30.4h2.9c0.2,0,0.3,0.1,0.3,0.3v2.9c0,0.2-0.1,0.3-0.3,0.3
		h-2.9c0,0,0,0,0,0c-0.2,0-0.3-0.1-0.3-0.3v-2.9C19.1,30.5,19.2,30.4,19.4,30.4z M19.4,35.2h2.4l-0.5,0.6h-1.6v2.3H22V37l0.6-0.6v2
		c0,0.2-0.1,0.3-0.3,0.3h-2.9c-0.2,0-0.3-0.1-0.3-0.3v-2.9C19.1,35.3,19.2,35.2,19.4,35.2z M21.3,37.7c-0.1,0.1-0.2,0.1-0.3,0.1
		c-0.1,0-0.1,0-0.2,0L20,37.2c-0.1-0.1-0.2-0.3-0.1-0.4c0.1-0.1,0.3-0.2,0.4-0.1l0.7,0.4l1.6-2.3c0.1-0.1,0.3-0.2,0.4-0.1
		c0.1,0.1,0.2,0.3,0.1,0.4c0,0,0,0,0,0L21.3,37.7z M44.2,15.2l-2.5,6l0.8,0.3c0,0,0,0,0,0c0.3,0.1,0.4,0.5,0.3,0.8L42,24.5l0.6,1.1
		c0.1,0.2,0.1,0.3,0,0.5l-7.3,17.7l0.9,0.4c0.1,0.1,0.3,0.2,0.3,0.3c0.1,0.1,0.1,0.3,0,0.5c-0.1,0.3-0.5,0.4-0.8,0.3l-3.3-1.4
		L31.5,46l0.9,0.4c0,0,0,0,0,0c0.3,0.1,0.4,0.5,0.3,0.8c-0.1,0.2-0.3,0.4-0.5,0.4c-0.1,0-0.2,0-0.2,0l-2.9-1.2c0,0,0,0,0,0
		c-0.3-0.1-0.4-0.5-0.3-0.8c0,0,0,0,0,0c0.1-0.3,0.5-0.4,0.7-0.3l0.9,0.4l0.9-2.1L28,42.1c-0.1-0.1-0.3-0.2-0.3-0.3
		c-0.1-0.1-0.1-0.3,0-0.4c0.1-0.3,0.5-0.4,0.8-0.3l0.9,0.3l7.3-17.7c0.1-0.2,0.2-0.3,0.4-0.3l1.2-0.4l0.9-2.2
		c0.1-0.1,0.2-0.3,0.3-0.3c0.1-0.1,0.3-0.1,0.5,0l0.8,0.3l2.5-6c0,0,0,0,0,0c0.1-0.3,0.5-0.4,0.8-0.3c0,0,0,0,0,0
		C44.2,14.6,44.4,14.9,44.2,15.2z"/>
	<rect x="19.7" y="31" fill="#9E1724" width="2.3" height="2.3"/>
</g>
</svg>
