<?xml version="1.0" encoding="utf-8"?>
<!-- Generator: Adobe Illustrator 25.2.1, SVG Export Plug-In . SVG Version: 6.00 Build 0)  -->
<svg version="1.1" id="Capa_1" xmlns="http://www.w3.org/2000/svg" xmlns:xlink="http://www.w3.org/1999/xlink" x="0px" y="0px"
	 viewBox="0 0 60 60" enable-background="new 0 0 60 60" xml:space="preserve">
<g>
	<path fill="#9E1724" d="M30,0C13.4,0,0,13.4,0,30s13.4,30,30,30c9.7,0,18.7-4.7,24.4-12.5c0.1-0.1,0.1-0.1,0.1-0.2
		c0.1-0.3,0-0.7-0.3-0.8c-0.3-0.1-0.7,0-0.8,0.3c-5.4,7.5-14.1,12-23.4,12C14.2,58.7,1.3,45.9,1.3,30C1.3,14.2,14.1,1.3,30,1.3
		c15.9,0,28.7,12.9,28.7,28.7c0,3-0.5,6-1.4,8.9c0,0,0,0,0,0c-0.1,0.3,0.1,0.7,0.4,0.8c0,0,0,0,0,0c0.3,0.1,0.7-0.1,0.8-0.4
		c1-3,1.5-6.1,1.5-9.3C60,13.4,46.6,0,30,0z"/>
	<path fill="#9E1724" d="M30,4.9c-13.8,0-25,11.2-25,25s11.2,25,25,25s25-11.2,25-25S43.8,4.9,30,4.9z M47.5,29v0.1l0,1.2
		c0,0.3,0,0.6,0,0.9c0,1.6,0,3.2-0.2,4.9c-0.3,2.2-0.9,4.5-3.2,5.3c-2.4,0.7-4.8,1-7.2,0.9h-0.2c-0.8,0-1.6,0.1-2.4,0.1
		c-2.1,0-4.2,0.1-6.4,0.1h-1.8c-0.4,0-0.8,0-1.2,0c-1.3,0-2.6,0-3.9-0.1c-1.7,0-3.4-0.3-5-0.9c-3.2-1.3-3.3-4.9-3.4-7.5
		c-0.1-2-0.1-3.9-0.1-6v-0.7c-0.2-2.2,0.2-4.3,0.9-6.4c1.2-2.6,3.7-3,6.2-3.2c1.9-0.2,3.8-0.2,5.6-0.2c3.6-0.1,7.2-0.1,10.9,0
		c1.9,0.1,3.7,0.2,5.4,0.4c1.6,0,3.1,0.7,4.3,1.8c1.2,1.4,1.4,3.3,1.6,5.3c0.1,0.4,0.1,0.8,0.1,1.2C47.5,27.1,47.5,28.1,47.5,29z"/>
	<path fill="#9E1724" d="M46.2,29c0-0.9,0-1.9,0-2.8c0-0.4,0-0.8,0-1.2c-0.1-1.8-0.4-3.5-1.3-4.6c-0.9-0.9-2.1-1.3-3.4-1.3
		c-1.7-0.2-3.4-0.3-5.3-0.4c-1.3-0.1-2.7-0.1-4.2-0.1c-2.2,0-4.4,0.1-6.5,0.1h-0.1c-1.8,0.1-3.7,0.1-5.5,0.2
		c-2.2,0.2-4.2,0.5-5.2,2.4c-0.7,1.9-0.9,3.9-0.8,5.8v0.7c0,2.1,0,4,0.1,5.9c0.1,2.4,0.2,5.4,2.6,6.4c1.5,0.5,3,0.8,4.6,0.8
		c1.2,0.1,2.6,0.1,3.8,0.1c0.4,0,0.8,0,1.2,0c2.7,0,5.4,0,8.1-0.1h2.6c2.3,0.1,4.6-0.2,6.9-0.8c1.6-0.6,2.1-2.4,2.4-4.2
		c0.2-1.5,0.2-3.1,0.2-4.7l0-1C46.2,29.9,46.2,29.4,46.2,29z M25.9,35.5V24.2l9.6,5.6L25.9,35.5z"/>
</g>
</svg>
