<?xml version="1.0" encoding="utf-8"?>
<!-- Generator: Adobe Illustrator 25.2.1, SVG Export Plug-In . SVG Version: 6.00 Build 0)  -->
<svg version="1.1" id="Capa_1" xmlns="http://www.w3.org/2000/svg" xmlns:xlink="http://www.w3.org/1999/xlink" x="0px" y="0px"
	 viewBox="0 0 60 60" enable-background="new 0 0 60 60" xml:space="preserve">
<g>
	<path fill="#9E1724" d="M30,0C13.4,0,0,13.4,0,30s13.4,30,30,30c9.7,0,18.7-4.7,24.4-12.5c0.1-0.1,0.1-0.1,0.1-0.2
		c0.1-0.3,0-0.7-0.3-0.8c-0.3-0.1-0.7,0-0.8,0.3c-5.4,7.5-14.1,12-23.4,12C14.2,58.7,1.3,45.9,1.3,30C1.3,14.2,14.1,1.3,30,1.3
		c15.9,0,28.7,12.9,28.7,28.7c0,3-0.5,6-1.4,8.9c0,0,0,0,0,0c-0.1,0.3,0.1,0.7,0.4,0.8c0,0,0,0,0,0c0.3,0.1,0.7-0.1,0.8-0.4
		c1-3,1.5-6.1,1.5-9.3C60,13.4,46.6,0,30,0z"/>
	<path fill="#9E1724" d="M44.6,15.4h-7.8V22c0,0.6-0.2,1.3-0.7,1.7l-1.7,1.8c-0.3,0.3-0.4,0.7-0.5,1.1V27h9.4c0.3,0,0.6,0.3,0.6,0.6
		c0,0.4-0.3,0.7-0.7,0.7H34v2.2h9.4c0.3,0,0.6,0.3,0.6,0.7c0,0.4-0.3,0.6-0.7,0.6H34v2.3h9.4c0.3,0,0.6,0.3,0.6,0.7
		c0,0.4-0.3,0.6-0.7,0.7H34v2.1h9.4c0.3,0,0.6,0.3,0.6,0.6c0,0.4-0.3,0.7-0.7,0.7H34v5.7h10.6c0,0,0,0,0,0c0.2,0,0.3-0.1,0.3-0.3
		V15.7c0,0,0,0,0,0C44.9,15.5,44.8,15.4,44.6,15.4z M43.4,21.8h-4.9c-0.4,0-0.7-0.3-0.7-0.7c0-0.4,0.3-0.7,0.7-0.7h4.9
		c0.4,0,0.7,0.3,0.7,0.6c0,0,0,0,0,0C44,21.5,43.7,21.8,43.4,21.8z"/>
	<path fill="#9E1724" d="M30,4.9c-13.8,0-25,11.2-25,25s11.2,25,25,25s25-11.2,25-25S43.8,4.9,30,4.9z M45.9,44.2
		c0,0.7-0.6,1.3-1.3,1.3H34v2H14.1V13.7c0,0,0,0,0,0c0-0.7,0.5-1.2,1.2-1.2h20.3c0.7,0,1.2,0.5,1.2,1.2v0.7h7.8c0,0,0,0,0,0
		c0.7,0,1.3,0.6,1.3,1.3V44.2z"/>
	<path fill="#9E1724" d="M35.8,22v-6.6v-1v-0.7c0,0,0,0,0,0c0-0.1-0.1-0.2-0.2-0.2H15.3c-0.1,0-0.2,0.1-0.2,0.2v32.8h17.8v-0.9v-1
		v-5.7v-1.3v-2.1v-1.3v-2.3v-1.3v-2.2V27v-0.4c0-0.7,0.3-1.3,0.8-1.8l1.7-1.8C35.6,22.7,35.8,22.4,35.8,22z"/>
</g>
</svg>
