<svg xmlns="http://www.w3.org/2000/svg" viewBox="0 0 60 60"><defs><style>.cls-1{fill:#9e1724;}</style></defs><g id="Capa_2" data-name="Capa 2"><g id="Capa_1-2" data-name="Capa 1"><path class="cls-1" d="M30,60A30,30,0,1,1,60,30a29.44,29.44,0,0,1-1.47,9.27.63.63,0,0,1-.8.4.62.62,0,0,1-.4-.79A28.17,28.17,0,0,0,58.74,30a28.73,28.73,0,1,0-5.36,16.72.63.63,0,1,1,1,.73A30.05,30.05,0,0,1,30,60Z"/><rect class="cls-1" x="35.54" y="32.34" width="3.14" height="1.98"/><rect class="cls-1" x="31.11" y="25.75" width="3.27" height="1.99"/><rect class="cls-1" x="31.11" y="28.91" width="3.27" height="2.27"/><rect class="cls-1" x="35.54" y="25.75" width="3.14" height="1.99"/><rect class="cls-1" x="35.54" y="28.91" width="3.14" height="2.27"/><polygon class="cls-1" points="37.12 18.6 41.25 18.6 37.12 14.46 37.12 18.6"/><rect class="cls-1" x="21.23" y="32.34" width="8.71" height="1.98"/><path class="cls-1" d="M27.74,40.46A2.26,2.26,0,1,0,30,38.2,2.26,2.26,0,0,0,27.74,40.46Zm3.34,0A1.08,1.08,0,1,1,30,39.38,1.08,1.08,0,0,1,31.08,40.46Z"/><rect class="cls-1" x="31.11" y="32.34" width="3.27" height="1.98"/><rect class="cls-1" x="21.23" y="28.91" width="8.71" height="2.27"/><rect class="cls-1" x="21.23" y="25.75" width="8.71" height="1.99"/><path class="cls-1" d="M30,5A25,25,0,1,0,55,30,25,25,0,0,0,30,5ZM43.17,19.2a.36.36,0,0,1-.36.36H36.7a.67.67,0,0,1-.67-.67V13.6H18.18a.25.25,0,0,0-.25.25V46.26a.25.25,0,0,0,.25.25H41.82a.25.25,0,0,0,.25-.25V21.19a.55.55,0,0,1,.55-.55.54.54,0,0,1,.55.55v25a1.28,1.28,0,0,1-1.28,1.28H18.11a1.28,1.28,0,0,1-1.28-1.28V13.78a1.28,1.28,0,0,1,1.28-1.28H36.77l.34.34.22.21.07.08,4.15,4.14.52.53.8.8.11.11a.67.67,0,0,1,.19.47ZM20.45,35.48a.4.4,0,0,1-.39-.38V25a.38.38,0,0,1,.38-.38h19a.39.39,0,0,1,.39.38V35.09a.38.38,0,0,1-.38.39h-19Zm12.87,5A3.32,3.32,0,1,1,30,37.14,3.32,3.32,0,0,1,33.32,40.46Zm-11.73.6h3.59a.52.52,0,1,1,0,1H21.59a.52.52,0,1,1,0-1Zm-.94-1.18a.52.52,0,1,1,0-1h4.46a.52.52,0,1,1,0,1Zm3.26-19.56a1.39,1.39,0,0,0-.17-.27,1.3,1.3,0,0,0-.3-.19,1.74,1.74,0,0,0-.33-.15l-.38-.15a4.56,4.56,0,0,1-.57-.2,3.53,3.53,0,0,1-.51-.26,1.85,1.85,0,0,1-.47-.35,1.89,1.89,0,0,1-.31-.48,1.52,1.52,0,0,1-.12-.62,1.65,1.65,0,0,1,1.55-1.74v-.72a.57.57,0,0,1,.56-.57h0a.57.57,0,0,1,.57.57v.69a3.45,3.45,0,0,1,1.59.56l-.57.89A2.83,2.83,0,0,0,23,16.85a1.89,1.89,0,0,0-.44,0,.91.91,0,0,0-.31.12.52.52,0,0,0-.19.17.51.51,0,0,0-.11.22,1,1,0,0,0,0,.25A.7.7,0,0,0,22,18a1.58,1.58,0,0,0,.16.22,1.39,1.39,0,0,0,.27.18,2.07,2.07,0,0,0,.3.12,3,3,0,0,0,.35.13l.45.16.41.17a3.73,3.73,0,0,1,.41.21,4.12,4.12,0,0,1,.32.26,1.23,1.23,0,0,1,.28.33,3.36,3.36,0,0,1,.16.42,2.18,2.18,0,0,1,.07.52,2.69,2.69,0,0,1-.11.79,1.74,1.74,0,0,1-.26.53,2,2,0,0,1-.41.34,1.91,1.91,0,0,1-.47.17,2.45,2.45,0,0,1-.51.09v.52a.58.58,0,0,1-.57.57h0a.56.56,0,0,1-.55-.57h0v-.54a8.33,8.33,0,0,1-1.69-.4l.3-1a11.06,11.06,0,0,0,1.15.31,3.72,3.72,0,0,0,.81.09h.34l.29-.06a.54.54,0,0,0,.26-.14.69.69,0,0,0,.16-.27,1.18,1.18,0,0,0,.07-.45A.69.69,0,0,0,23.91,20.32Zm3.32-1.69H34.4a.52.52,0,0,1,0,1H27.23a.52.52,0,0,1,0-1ZM26.71,17a.52.52,0,0,1,.52-.52h2.23A.52.52,0,0,1,30,17a.51.51,0,0,1-.51.52H27.23A.52.52,0,0,1,26.71,17Zm4.34,0a.52.52,0,0,1,.52-.52h1.17a.52.52,0,0,1,.51.52.51.51,0,0,1-.51.52H31.57A.52.52,0,0,1,31.05,17Zm3.87,4.35a.51.51,0,0,1-.52.51H33.19a.52.52,0,1,1,0-1H34.4A.52.52,0,0,1,34.92,21.3Zm-7.69-.52h3.82a.52.52,0,1,1,0,1H27.23a.52.52,0,1,1,0-1Zm7.21,18.58a1.1,1.1,0,0,1,1.1-1.1h3.23a1.1,1.1,0,0,1,1.1,1.1V41.6a1.1,1.1,0,0,1-1.1,1.1H35.54a1.1,1.1,0,0,1-1.1-1.1Z"/><rect class="cls-1" x="35.6" y="39.42" width="3.1" height="2.11"/></g></g></svg>