<?xml version="1.0" encoding="utf-8"?>
<!-- Generator: Adobe Illustrator 24.1.0, SVG Export Plug-In . SVG Version: 6.00 Build 0)  -->
<svg version="1.1" id="Capa_1" xmlns="http://www.w3.org/2000/svg" xmlns:xlink="http://www.w3.org/1999/xlink" x="0px" y="0px"
	 viewBox="0 0 1559 1559" style="enable-background:new 0 0 1559 1559;" xml:space="preserve">
<style type="text/css">
	.st0{fill:#FFFFFF;}
	.st1{fill:#9E1724;}
</style>
<g>
	<path class="st0" d="M1027.8,176.7c-78.9-32.7-163.3-49.5-248.5-49.5c-128.4,0-253.8,38.1-360.6,109.4
		c-106.7,71.3-189.9,172.7-239,291.3c-49.1,118.6-62,249.1-36.9,375c25,125.9,86.9,241.5,177.6,332.3
		c90.8,90.8,206.4,152.6,332.3,177.6s256.4,12.2,375-36.9s219.9-132.3,291.3-239c71.3-106.7,109.4-232.2,109.4-360.6
		c0-85.2-16.8-169.6-49.4-248.4c-32.6-78.7-80.4-150.3-140.7-210.5C1178,257.1,1106.5,209.3,1027.8,176.7z M1124.8,1097.8
		c0,21.4-8.2,41.8-23,56.9c-14.8,15.1-34.8,23.6-55.6,23.6H495.9c-20.9,0-40.9-8.5-55.6-23.6s-23-35.6-23-56.9V534.7
		c0-21.4,8.3-41.8,23-56.9c14.8-15.1,34.8-23.6,55.6-23.6h39.3v-80.4h78.6v80.4h314.5v-80.4h78.6v80.4h39.3
		c20.8,0,40.8,8.5,55.6,23.5c14.7,15.1,23,35.6,23,56.9V1097.8z"/>
	<path class="st0" d="M1426.8,346.9c-85.6-128-207.2-227.9-349.5-286.8s-298.9-74.3-450-44.3c-151,30-289.8,104.2-398.7,213
		c-108.9,109-183,247.7-213.1,398.8s-14.6,307.7,44.3,450s158.7,263.9,286.8,349.5c128.1,85.6,278.7,131.3,432.7,131.3
		c123.7-0.2,245.7-29.8,355.9-86.4c110-56.7,205-138.7,277.1-239.3c1.7-1.7,3.1-3.7,4-5.9s1.2-4.6,1.1-7c-0.2-2.4-0.8-4.8-2-6.9
		c-1.1-2.1-2.8-4-4.7-5.4s-4.1-2.3-6.5-2.8c-2.3-0.5-4.8-0.4-7.1,0.2c-2.4,0.6-4.6,1.7-6.4,3.2c-1.9,1.5-3.4,3.4-4.4,5.6
		c-103.5,144.6-255.2,247.5-427.8,290.2c-172.6,42.6-354.8,22.2-513.7-57.6s-284.1-213.7-352.9-377.7C23,904.6,15,721.5,69.3,552.2
		c54.3-169.4,167.3-313.7,318.6-407C539.2,51.8,718.9,15.6,894.6,43s335.8,116.7,451.3,251.9c115.7,135,179.2,307,179.3,484.8
		c0.2,78.3-12.1,156.1-36.6,230.5c-0.7,2-1,4.2-0.8,6.3s0.7,4.2,1.7,6.1c0.9,1.9,2.3,3.6,3.9,5c1.7,1.4,3.6,2.4,5.6,3.1
		c2.1,0.7,4.2,1,6.4,0.8s4.3-0.7,6.2-1.7c2-0.9,3.7-2.3,5.1-3.9c1.4-1.7,2.5-3.6,3.2-5.6c25.5-77.7,38.4-159,38.2-240.7
		C1558.1,625.5,1512.4,475,1426.8,346.9z"/>
	<path class="st1" d="M1046.2,454.2h-39.3v-80.4h-78.6v80.4H613.8v-80.4h-78.6v80.4h-39.3c-20.8,0-40.8,8.5-55.6,23.6
		c-14.7,15.1-23,35.5-23,56.9v563.1c0,21.3,8.3,41.8,23,56.9s34.7,23.6,55.6,23.6h550.3c20.8,0,40.8-8.5,55.6-23.6
		c14.8-15.1,23-35.5,23-56.9V534.6c0-21.3-8.3-41.8-23-56.9C1087,462.7,1067,454.2,1046.2,454.2z M1046.2,1097.7H495.9V695.5h550.3
		V1097.7z M1046.2,615.1H495.9v-80.4h550.3V615.1z"/>
	<path class="st1" d="M833.5,890.1c55.4-57.1,16.1-154.4-62.5-154.4c-49.1,0-88.4,40.3-88.4,90.5
		C682.6,906.6,777.7,947.2,833.5,890.1z"/>
	<path class="st1" d="M947.9,1052.7c0-50.3-78.6-90.5-176.8-90.5c-98.3,0-176.9,40.2-176.9,90.5v4.8h353.7V1052.7z"/>
</g>
</svg>
