<?xml version="1.0" encoding="utf-8"?>
<!-- Generator: Adobe Illustrator 25.1.0, SVG Export Plug-In . SVG Version: 6.00 Build 0)  -->
<svg version="1.1" id="Capa_1" xmlns="http://www.w3.org/2000/svg" xmlns:xlink="http://www.w3.org/1999/xlink" x="0px" y="0px"
	 viewBox="0 0 815.4 399.4" style="enable-background:new 0 0 815.4 399.4;" xml:space="preserve">
<style type="text/css">
	.st0{fill:#9E1724;}
	.st1{clip-path:url(#SVGID_2_);}
	.st2{fill:none;}
</style>
<g id="Capa_2_1_">
	<g id="Capa_1-2">
		<path class="st0" d="M67.8,205.2h17.6c2.6,0,5.1,0.4,7.5,1.2c2.3,0.7,4.5,1.9,6.4,3.5c1.9,1.6,3.3,3.5,4.3,5.7
			c1.1,2.5,1.6,5.1,1.6,7.8l0.1,33.1c0.1,2.8-0.5,5.5-1.7,8c-2,4.5-5.9,7.9-10.7,9.3c-2.5,0.8-5,1.2-7.6,1.2H67.8V205.2z
			 M44.3,294.9h41.3c5.6,0,11.2-0.9,16.5-2.8c5.1-1.7,9.8-4.3,13.9-7.8c4-3.4,7.2-7.5,9.6-12.2c2.5-4.9,3.7-10.4,3.6-15.9v-32.9
			c0.1-5.5-1.2-10.9-3.6-15.8c-2.3-4.6-5.6-8.7-9.6-12c-4.2-3.4-8.9-5.9-14-7.6c-5.3-1.8-10.8-2.7-16.4-2.7l-41.2-0.2V294.9z
			 M138.9,294.9h24V185.1h-24V294.9z M268.6,294.9h24V185.1h-24V294.9z M300.1,185.1v20.1h29.3v89.7h24v-89.7h29v-20.1H300.1z
			 M417.1,220.7l11.9,35.3h-23.9L417.1,220.7z M408.4,185.1l-40,109.8h24.9l7.4-21h33.4l7.8,21h24.6l-40-109.8H408.4z M471,185.1
			v109.8h72v-20.1h-48v-89.7H471z M195.7,187.1c-5.4,2.3-10.3,5.8-14.1,10.3c-3.4,4.1-5.8,8.9-7.1,14c-1.3,4.9-2,10-2,15.1l0.1,27
			c-0.1,6,1,12.1,3.1,17.7c1.9,5.2,5,9.9,8.9,13.7c4,3.9,8.8,7,14,8.9c5.9,2.2,12.2,3.3,18.5,3.2c0.3,0,2.1-0.1,5.2-0.2
			c3.2-0.2,6.9-0.6,11.1-1.2c4.3-0.7,8.6-1.6,12.9-2.8c3.8-0.9,7.3-2.5,10.5-4.7v-58h-40.6v19.9h16.6v25.7c-1.6,0.3-3.2,0.6-4.8,0.7
			c-1.7,0.2-3.4,0.3-5,0.3c-1.6,0.1-2.9,0.1-4.1,0.2l-2,0.1c-6.4,0-11.4-2.1-15.1-6.2s-5.6-9.9-5.5-17.4v-27.1
			c0-2.8,0.3-5.6,0.9-8.4c0.6-2.7,1.7-5.2,3.4-7.5c1.8-2.3,4.1-4.2,6.8-5.3c3.6-1.5,7.4-2.2,11.3-2c4.9,0,9.8,0.6,14.5,1.8
			c5.4,1.4,10.6,3.6,15.3,6.5l10.4-17.7c-3.2-1.9-6.5-3.5-10-4.8c-3.5-1.3-7-2.4-10.6-3.3c-3.4-0.9-6.8-1.5-10.3-2
			c-3.1-0.4-6.2-0.6-9.3-0.6C209.3,183,201.7,184.4,195.7,187.1 M236.8,162h8.5v-39.2h-8.6L236.8,162z M275.2,122.8v25.5
			c0,5-2.3,7.5-7,7.5c-4.7,0-7-2.5-6.9-7.5v-25.5h-8.6v25.5c0,2,0.3,4.1,1,6c0.6,1.7,1.6,3.3,2.9,4.6c1.4,1.3,3,2.4,4.9,3
			c2.2,0.7,4.4,1.1,6.7,1c2.3,0.1,4.6-0.3,6.7-1c1.8-0.6,3.5-1.7,4.9-3c1.3-1.3,2.3-2.9,2.9-4.6c0.7-1.9,1-4,1-6v-25.5L275.2,122.8z
			 M298,129.9h6.3c0.9,0,1.8,0.1,2.7,0.4c0.8,0.3,1.6,0.7,2.2,1.3c0.7,0.5,1.2,1.2,1.5,2c0.4,0.9,0.6,1.8,0.6,2.8l0.1,11.8
			c0.1,1.9-0.7,3.7-2.1,5c-0.7,0.6-1.4,1-2.3,1.3c-0.9,0.3-1.8,0.4-2.7,0.4H298L298,129.9z M289.6,162h14.7c2,0,4-0.3,5.9-1
			c1.8-0.6,3.5-1.5,5-2.8c1.4-1.2,2.6-2.7,3.4-4.3c0.9-1.8,1.3-3.7,1.3-5.7v-11.7c0-2-0.4-3.9-1.3-5.7c-0.8-1.7-2-3.1-3.5-4.3
			c-1.5-1.2-3.2-2.1-5-2.7c-1.9-0.6-3.9-1-5.9-0.9l-14.8-0.1L289.6,162z M338.5,135.6l4.3,12.6h-8.5L338.5,135.6z M335.4,122.8
			L321,162.1h8.9l2.6-7.5h12l2.8,7.5h8.8l-14.3-39.3H335.4z M367.7,130h6.3c0.9,0,1.8,0.1,2.7,0.4c0.8,0.3,1.6,0.7,2.3,1.2
			c0.7,0.5,1.2,1.2,1.5,2c0.4,0.9,0.6,1.8,0.6,2.8l0.1,11.8c0.1,1.9-0.7,3.7-2.1,4.9c-0.7,0.6-1.4,1-2.3,1.3
			c-0.9,0.3-1.8,0.4-2.7,0.4h-6.3V130z M359.3,162.1h14.8c2,0,4-0.3,5.9-1c1.8-0.6,3.5-1.6,5-2.8c1.4-1.2,2.6-2.7,3.4-4.4
			c0.9-1.8,1.3-3.7,1.3-5.7v-11.8c0-2-0.4-3.9-1.3-5.7c-0.8-1.7-2-3.1-3.5-4.3c-1.5-1.2-3.2-2.1-5-2.7c-1.9-0.6-3.9-1-5.9-1
			l-14.8-0.1V162.1z M408.3,135.6l4.3,12.6H404L408.3,135.6z M405.2,122.8l-14.4,39.3h8.9l2.6-7.5h12l2.8,7.5h8.8l-14.4-39.3H405.2z
			 M450.8,122.8v22.5L436,122.8h-7.3v39.3h8.5v-22.6l14.9,22.6h7.2v-39.3H450.8z M210.1,123.7c-2,1-3.7,2.6-4.8,4.6
			c-1.1,2-1.8,4.2-2,6.5c-0.3,2.5-0.5,5.1-0.4,7.6c0,1.8,0.1,3.5,0.2,5.2c0.1,1.6,0.3,3.2,0.7,4.8c0.3,1.5,0.9,2.9,1.6,4.3
			c0.7,1.3,1.7,2.4,2.8,3.3c1.3,1,2.8,1.7,4.3,2.2c2,0.6,4.1,0.8,6.2,0.8h1.4c1-0.1,2-0.2,3-0.4c1.4-0.2,2.7-0.6,4-1
			c1.5-0.5,3-1.2,4.4-2l-2.8-7c-1.2,0.7-2.5,1.3-3.9,1.9c-1,0.4-2,0.8-3.1,1c-0.7,0.2-1.4,0.3-2.1,0.3l-0.9,0.1
			c-1.4,0.1-2.8-0.3-3.9-1.1c-1-0.8-1.7-1.8-2.2-2.9c-0.5-1.4-0.8-2.8-0.9-4.2c-0.1-1.6-0.2-3.3-0.2-5.1s0.1-3.5,0.2-5.1
			c0.1-1.4,0.4-2.9,0.9-4.2c0.4-1.1,1.2-2.2,2.2-2.9c1.2-0.8,2.5-1.1,3.9-1.1c0.1,0,0.4,0,0.9,0c0.7,0.1,1.4,0.2,2.1,0.3
			c1,0.2,2.1,0.6,3.1,0.9c1.3,0.5,2.6,1.2,3.9,1.9l2.8-7c-1.4-0.8-2.9-1.4-4.4-1.9c-1.3-0.4-2.6-0.8-4-1c-1-0.2-2-0.3-3-0.4
			l-1.4-0.1C215.7,121.9,212.8,122.4,210.1,123.7 M476.7,155.3c-0.8-0.3-1.6-0.7-2.2-1.3c-0.7-0.6-1.2-1.3-1.5-2.1
			c-0.4-0.9-0.6-1.9-0.6-2.9v-13.4c0-1,0.2-1.9,0.6-2.8c0.4-0.8,0.9-1.4,1.5-2c0.7-0.6,1.4-1,2.2-1.2c0.9-0.3,1.8-0.4,2.7-0.4
			c0.9,0,1.8,0.1,2.7,0.4c0.8,0.3,1.6,0.7,2.3,1.2c0.6,0.6,1.2,1.2,1.5,2c0.4,0.9,0.6,1.8,0.6,2.8l0,13.4c0.1,1.9-0.7,3.7-2.1,4.9
			c-0.7,0.6-1.4,1-2.3,1.3C480.4,155.9,478.4,155.9,476.7,155.3 M473.6,122.9c-1.8,0.6-3.5,1.5-5,2.7c-1.4,1.2-2.6,2.7-3.5,4.3
			c-0.9,1.8-1.3,3.7-1.3,5.7l-0.1,13.4c0,2,0.4,3.9,1.3,5.7c0.8,1.7,2,3.2,3.4,4.4c1.5,1.2,3.2,2.2,5,2.8c1.9,0.7,3.9,1,5.9,1
			c2,0,4-0.3,6-1c1.8-0.6,3.5-1.6,5-2.8c1.4-1.2,2.6-2.7,3.4-4.4c0.9-1.8,1.3-3.7,1.3-5.7v-13.4c0-2-0.4-3.9-1.3-5.7
			c-0.8-1.7-2-3.1-3.4-4.3c-1.5-1.2-3.2-2.1-5-2.7c-1.9-0.7-3.9-1-5.9-1C477.4,122,475.4,122.3,473.6,122.9"/>
		<g>
			<defs>
				<path id="SVGID_1_" d="M67.8,205.2h17.6c2.6,0,5.1,0.4,7.5,1.2c2.3,0.7,4.5,1.9,6.4,3.5c1.9,1.6,3.3,3.5,4.3,5.7
					c1.1,2.5,1.6,5.1,1.6,7.8l0.1,33.1c0.1,2.8-0.5,5.5-1.7,8c-2,4.5-5.9,7.9-10.7,9.3c-2.5,0.8-5,1.2-7.6,1.2H67.8V205.2z
					 M44.3,294.9h41.3c5.6,0,11.2-0.9,16.5-2.8c5.1-1.7,9.8-4.3,13.9-7.8c4-3.4,7.2-7.5,9.6-12.2c2.5-4.9,3.7-10.4,3.6-15.9v-32.9
					c0.1-5.5-1.2-10.9-3.6-15.8c-2.3-4.6-5.6-8.7-9.6-12c-4.2-3.4-8.9-5.9-14-7.6c-5.3-1.8-10.8-2.7-16.4-2.7l-41.2-0.2V294.9z
					 M138.9,294.9h24V185.1h-24V294.9z M268.6,294.9h24V185.1h-24V294.9z M300.1,185.1v20.1h29.3v89.7h24v-89.7h29v-20.1H300.1z
					 M417.1,220.7l11.9,35.3h-23.9L417.1,220.7z M408.4,185.1l-40,109.8h24.9l7.4-21h33.4l7.8,21h24.6l-40-109.8H408.4z M471,185.1
					v109.8h72v-20.1h-48v-89.7H471z M195.7,187.1c-5.4,2.3-10.3,5.8-14.1,10.3c-3.4,4.1-5.8,8.9-7.1,14c-1.3,4.9-2,10-2,15.1l0.1,27
					c-0.1,6,1,12.1,3.1,17.7c1.9,5.2,5,9.9,8.9,13.7c4,3.9,8.8,7,14,8.9c5.9,2.2,12.2,3.3,18.5,3.2c0.3,0,2.1-0.1,5.2-0.2
					c3.2-0.2,6.9-0.6,11.1-1.2c4.3-0.7,8.6-1.6,12.9-2.8c3.8-0.9,7.3-2.5,10.5-4.7v-58h-40.6v19.9h16.6v25.7
					c-1.6,0.3-3.2,0.6-4.8,0.7c-1.7,0.2-3.4,0.3-5,0.3c-1.6,0.1-2.9,0.1-4.1,0.2l-2,0.1c-6.4,0-11.4-2.1-15.1-6.2s-5.6-9.9-5.5-17.4
					v-27.1c0-2.8,0.3-5.6,0.9-8.4c0.6-2.7,1.7-5.2,3.4-7.5c1.8-2.3,4.1-4.2,6.8-5.3c3.6-1.5,7.4-2.2,11.3-2c4.9,0,9.8,0.6,14.5,1.8
					c5.4,1.4,10.6,3.6,15.3,6.5l10.4-17.7c-3.2-1.9-6.5-3.5-10-4.8c-3.5-1.3-7-2.4-10.6-3.3c-3.4-0.9-6.8-1.5-10.3-2
					c-3.1-0.4-6.2-0.6-9.3-0.6C209.3,183,201.7,184.4,195.7,187.1 M236.8,162h8.5v-39.2h-8.6L236.8,162z M275.2,122.8v25.5
					c0,5-2.3,7.5-7,7.5c-4.7,0-7-2.5-6.9-7.5v-25.5h-8.6v25.5c0,2,0.3,4.1,1,6c0.6,1.7,1.6,3.3,2.9,4.6c1.4,1.3,3,2.4,4.9,3
					c2.2,0.7,4.4,1.1,6.7,1c2.3,0.1,4.6-0.3,6.7-1c1.8-0.6,3.5-1.7,4.9-3c1.3-1.3,2.3-2.9,2.9-4.6c0.7-1.9,1-4,1-6v-25.5
					L275.2,122.8z M298,129.9h6.3c0.9,0,1.8,0.1,2.7,0.4c0.8,0.3,1.6,0.7,2.2,1.3c0.7,0.5,1.2,1.2,1.5,2c0.4,0.9,0.6,1.8,0.6,2.8
					l0.1,11.8c0.1,1.9-0.7,3.7-2.1,5c-0.7,0.6-1.4,1-2.3,1.3c-0.9,0.3-1.8,0.4-2.7,0.4H298L298,129.9z M289.6,162h14.7
					c2,0,4-0.3,5.9-1c1.8-0.6,3.5-1.5,5-2.8c1.4-1.2,2.6-2.7,3.4-4.3c0.9-1.8,1.3-3.7,1.3-5.7v-11.7c0-2-0.4-3.9-1.3-5.7
					c-0.8-1.7-2-3.1-3.5-4.3c-1.5-1.2-3.2-2.1-5-2.7c-1.9-0.6-3.9-1-5.9-0.9l-14.8-0.1L289.6,162z M338.5,135.6l4.3,12.6h-8.5
					L338.5,135.6z M335.4,122.8L321,162.1h8.9l2.6-7.5h12l2.8,7.5h8.8l-14.3-39.3H335.4z M367.7,130h6.3c0.9,0,1.8,0.1,2.7,0.4
					c0.8,0.3,1.6,0.7,2.3,1.2c0.7,0.5,1.2,1.2,1.5,2c0.4,0.9,0.6,1.8,0.6,2.8l0.1,11.8c0.1,1.9-0.7,3.7-2.1,4.9
					c-0.7,0.6-1.4,1-2.3,1.3c-0.9,0.3-1.8,0.4-2.7,0.4h-6.3V130z M359.3,162.1h14.8c2,0,4-0.3,5.9-1c1.8-0.6,3.5-1.6,5-2.8
					c1.4-1.2,2.6-2.7,3.4-4.4c0.9-1.8,1.3-3.7,1.3-5.7v-11.8c0-2-0.4-3.9-1.3-5.7c-0.8-1.7-2-3.1-3.5-4.3c-1.5-1.2-3.2-2.1-5-2.7
					c-1.9-0.6-3.9-1-5.9-1l-14.8-0.1V162.1z M408.3,135.6l4.3,12.6H404L408.3,135.6z M405.2,122.8l-14.4,39.3h8.9l2.6-7.5h12
					l2.8,7.5h8.8l-14.4-39.3H405.2z M450.8,122.8v22.5L436,122.8h-7.3v39.3h8.5v-22.6l14.9,22.6h7.2v-39.3H450.8z M210.1,123.7
					c-2,1-3.7,2.6-4.8,4.6c-1.1,2-1.8,4.2-2,6.5c-0.3,2.5-0.5,5.1-0.4,7.6c0,1.8,0.1,3.5,0.2,5.2c0.1,1.6,0.3,3.2,0.7,4.8
					c0.3,1.5,0.9,2.9,1.6,4.3c0.7,1.3,1.7,2.4,2.8,3.3c1.3,1,2.8,1.7,4.3,2.2c2,0.6,4.1,0.8,6.2,0.8h1.4c1-0.1,2-0.2,3-0.4
					c1.4-0.2,2.7-0.6,4-1c1.5-0.5,3-1.2,4.4-2l-2.8-7c-1.2,0.7-2.5,1.3-3.9,1.9c-1,0.4-2,0.8-3.1,1c-0.7,0.2-1.4,0.3-2.1,0.3
					l-0.9,0.1c-1.4,0.1-2.8-0.3-3.9-1.1c-1-0.8-1.7-1.8-2.2-2.9c-0.5-1.4-0.8-2.8-0.9-4.2c-0.1-1.6-0.2-3.3-0.2-5.1s0.1-3.5,0.2-5.1
					c0.1-1.4,0.4-2.9,0.9-4.2c0.4-1.1,1.2-2.2,2.2-2.9c1.2-0.8,2.5-1.1,3.9-1.1c0.1,0,0.4,0,0.9,0c0.7,0.1,1.4,0.2,2.1,0.3
					c1,0.2,2.1,0.6,3.1,0.9c1.3,0.5,2.6,1.2,3.9,1.9l2.8-7c-1.4-0.8-2.9-1.4-4.4-1.9c-1.3-0.4-2.6-0.8-4-1c-1-0.2-2-0.3-3-0.4
					l-1.4-0.1C215.7,121.9,212.8,122.4,210.1,123.7 M476.7,155.3c-0.8-0.3-1.6-0.7-2.2-1.3c-0.7-0.6-1.2-1.3-1.5-2.1
					c-0.4-0.9-0.6-1.9-0.6-2.9v-13.4c0-1,0.2-1.9,0.6-2.8c0.4-0.8,0.9-1.4,1.5-2c0.7-0.6,1.4-1,2.2-1.2c0.9-0.3,1.8-0.4,2.7-0.4
					c0.9,0,1.8,0.1,2.7,0.4c0.8,0.3,1.6,0.7,2.3,1.2c0.6,0.6,1.2,1.2,1.5,2c0.4,0.9,0.6,1.8,0.6,2.8l0,13.4c0.1,1.9-0.7,3.7-2.1,4.9
					c-0.7,0.6-1.4,1-2.3,1.3C480.4,155.9,478.4,155.9,476.7,155.3 M473.6,122.9c-1.8,0.6-3.5,1.5-5,2.7c-1.4,1.2-2.6,2.7-3.5,4.3
					c-0.9,1.8-1.3,3.7-1.3,5.7l-0.1,13.4c0,2,0.4,3.9,1.3,5.7c0.8,1.7,2,3.2,3.4,4.4c1.5,1.2,3.2,2.2,5,2.8c1.9,0.7,3.9,1,5.9,1
					c2,0,4-0.3,6-1c1.8-0.6,3.5-1.6,5-2.8c1.4-1.2,2.6-2.7,3.4-4.4c0.9-1.8,1.3-3.7,1.3-5.7v-13.4c0-2-0.4-3.9-1.3-5.7
					c-0.8-1.7-2-3.1-3.4-4.3c-1.5-1.2-3.2-2.1-5-2.7c-1.9-0.7-3.9-1-5.9-1C477.4,122,475.4,122.3,473.6,122.9"/>
			</defs>
			<clipPath id="SVGID_2_">
				<use xlink:href="#SVGID_1_"  style="overflow:visible;"/>
			</clipPath>
			<g class="st1">
				<rect x="44.3" y="122" class="st0" width="498.7" height="175"/>
			</g>
		</g>
		<path class="st0" d="M603.2,307c7.2,6.6,18.2,9.4,27.6,10.7c6,0.8,6-8.6,0.1-9.4c-6.9-0.9-15.9-3.2-21.1-8
			c-0.8-0.8-1.9-1.3-3.1-1.3C602.9,299,599.6,303.7,603.2,307 M695.5,299.1c-13.9,9.1-30.1,12.1-46.5,11.1c-6-0.4-6.8,9-0.8,9.4
			c17.9,1.2,36.3-2,51.5-12c4.2-2.8,2-9.2-1.8-9.2C697,298.3,696.1,298.6,695.5,299.1 M715.6,271.5c-3.1,0.1-5.5,2.8-5.4,5.9
			c0.9,21.3-1,31.2-8.7,45.8c-1.3,2.5-0.3,5.6,2.2,6.9c0,0,0.1,0,0.1,0.1c0.7,0.4,1.5,0.6,2.2,0.6c1.6,0,3-0.9,3.7-2.4
			c8.4-16.1,11.2-30.9,10-53.1c0.1-2.1-1.6-3.8-3.7-3.8c-0.1,0-0.2,0-0.3,0L715.6,271.5 M592.6,261.8c4.5,19,18.7,32.5,40,37.5
			c5.9,1.4,6.4-8,0.6-9.4c-14.6-3.4-27.9-15.5-31.4-30.1c-0.4-2.1-2.3-3.6-4.5-3.5C594.5,256.3,591.8,258.4,592.6,261.8
			 M570.2,248.2c1.3,18.2,7.3,34.7,19.8,48.3c4.1,4.4,10.7-2.2,6.6-6.7c-10.7-11.6-15.9-25.9-17-41.5c-0.2-2.6-2.4-4.7-5.1-4.6
			C572.3,243.7,570.1,245.2,570.2,248.2 M723.8,243.3c-0.5,1-0.6,2.1-0.5,3.1c0.9,5.7,2.1,11.3,2.8,17c0.6,4.8,1,9.7,1,14.6
			c0,6.9-0.3,13.8-0.5,20.7c0,0.4,0.1,0.9,0.1,1.3c0.5,2.4,2.8,4,5.2,3.7c2.1-0.2,3.9-1.8,4.1-3.9c0.4-5.6,0.7-11.2,0.8-16.8
			c0.1-4.1,0-8.1-0.4-12.2c-0.5-5.8-1.3-11.5-2.1-17.3c-0.4-3-1-6-1.7-9c-0.4-1.9-1.9-3.4-3.8-3.8c-0.3,0-0.5,0-0.8-0.1
			C726.3,240.7,724.6,241.7,723.8,243.3 M709.9,240.7L709.9,240.7c-1.6,0.2-3.1,1-4,2.3c-0.8,1-1.1,2.2-0.9,3.4
			c0.9,4.4,1.7,8.9,2.4,13.2c0.2,1.4,0.5,2.7,0.7,4.1c0.4,2.3,2.4,4,4.7,4.1h0.2c1.3,0,2.5-0.6,3.4-1.5c0.8-0.9,1.2-2.1,1-3.3
			c-0.4-4.9-1.1-9.8-2.2-14.6c-0.1-0.4-0.2-0.8-0.2-1.2c-0.5-2.9-1.2-6.6-4.9-6.6H709.9z M658.3,222.9c-2.4,0.5-4,2.9-3.4,5.3
			c0.5,2.4,2.9,4,5.3,3.4l0,0c0.1,0,12.9-2.6,24.8,2.3l7.2,30.5c1.8,16.4-11.7,31-44.5,27.9c-4.7-0.4-5.6,7-0.9,8.5
			c23.9,4.6,61.5-6.4,54.7-40.1l-7.2-30.4v-0.1c-0.3-1.3-1.1-2.4-2.3-3c-7.2-3.6-15.2-5.5-23.3-5.3
			C665.2,221.9,661.7,222.2,658.3,222.9 M568.5,220.6c-0.2,3.5-0.2,7-0.1,10.4c0.1,2.2,1.6,3.7,3.8,4.3c2.7,0.4,5.2-1.6,5.6-4.3
			c0-0.2,0-0.4,0-0.6c0.2-3.1,0.1-6.2,0.1-9.2c0.1-2.5-1.8-4.6-4.3-4.9h-0.4C570.8,216.3,568.7,218.1,568.5,220.6 M606.7,217.3
			c-1.4,5.6-2.1,11.4-1.8,17.1c0.2,6.2,1.3,12.4,3.4,18.3c1.3,3.7,5.4,14.7,10.2,15.1l0,0c1.6,0.1,3.1-0.8,3.8-2.2
			c0.9-1.6,0.9-3.5-0.2-5.1c-7.4-11.8-9.9-26.1-6.9-39.7l0.1-0.4c0.2-0.8,0.3-1.6,0.3-2.4c-0.2-2.2-1.8-3.9-4-4.1
			c-0.2,0-0.4,0-0.6,0C609,214.1,607.3,215.4,606.7,217.3 M754.1,202.3c-2.7,1-3.6,3.9-2.5,7c2.5,7.6,4.7,15.2,7,22.8
			c0.9,3,1.6,6.1,2.4,9.2c0.5,2.5,3,4.1,5.5,3.6c0.1,0,0.2,0,0.2-0.1c2.5-0.7,4-3.3,3.4-5.9c-0.5-2.4-1-4.7-1.6-7.2
			c-0.4-2-3.2-11.7-4.1-14.6c-1.2-3.7-2.5-7.6-3.8-11.4c-0.6-2.2-2.5-3.7-4.7-3.8C755.3,202,754.7,202.1,754.1,202.3 M649,201.5
			c-15.5,0.7-26.4,11.2-25.8,24.1v0.2c0.6,13.4,9.6,19.1,28.6,22.3c17.4,2.8,21.7,6.9,22,14.6v0.2c0.4,8.1-6.6,14.3-17.6,14.8
			c-10.4,0.5-18.3-2.3-26.3-8.5c-0.8-0.7-1.8-1-2.9-0.9c-2.5,0.1-4.4,2.2-4.2,4.7c0,0,0,0,0,0.1c0,1.4,0.7,2.7,1.9,3.4
			c9,6.8,20.2,10.2,31.5,9.5c16.3-0.8,27.5-10.4,26.9-24.5v-0.2c-0.6-12.5-9.3-18.8-27.8-21.9c-18.2-3-22.6-7.1-23-14.9v-0.2
			c-0.3-7.4,6.3-14,16.9-14.5c7.6-0.4,14.7,0.6,21.8,5.3c0.8,0.5,1.8,0.8,2.7,0.7c2.5-0.1,4.4-2.2,4.2-4.7c-0.1-1.5-0.9-2.8-2.2-3.6
			c-6.8-4.4-14.2-6.1-23.1-6.1C651.6,201.4,650.3,201.4,649,201.5 M596.5,193.6c-3.5,5.6-6.2,11.7-8,18.1c-2,6.9-2.9,14-2.7,21.2
			c0.2,5.2,0.9,17.9,5.6,19.7c1.6,0.6,3.3,0.2,4.5-0.9c1.4-1.3,2-3.3,1.4-5.2c-4-15.7-1.7-32.4,6.4-46.4c0.6-0.9,1-1.8,1.4-2.8
			c0.5-2.2-0.6-4.5-2.7-5.4c-0.6-0.3-1.3-0.4-2-0.4C598.8,191.5,597.3,192.3,596.5,193.6 M727.9,190.7c-2.4,1.2-3,4.2-1.7,7.1
			c3.2,7.7,6.5,15.5,9.5,23.3c3.2,8.5,5.5,17.4,7,26.4c1.1,6.4,1.9,12.7,2.7,19.1c0.4,3.6,0.5,7.2,0.7,10.8c0.3,2.7,2.6,4.7,5.4,4.5
			c2.4-0.3,4.3-2.3,4.2-4.8c-0.1-8.5-0.9-16.9-2.5-25.2l-0.2-1c-1.3-6.7-6.3-27.1-7.5-30.4c-1.8-5.2-3.7-10.5-5.6-15.8
			c-1.5-3.9-3.3-7.7-5.1-11.5c-0.7-1.9-2.5-3.1-4.5-3.2C729.4,190.1,728.6,190.3,727.9,190.7 M637.1,184.4
			c-11.6,2.5-22.3,11.5-26,21.8c-0.8,1.9,0.1,4,1.9,4.8c0.1,0.1,0.3,0.1,0.4,0.1c0.6,0.2,1.2,0.3,1.8,0.3c2.1,0,3.9-1.2,4.6-3.2
			c2.3-6.3,11.6-13.5,20-15.3c2.1-0.4,3.5-2.4,3.1-4.4c0-0.1,0-0.2-0.1-0.3c-0.4-2.2-2.3-3.9-4.6-3.9
			C637.8,184.3,637.4,184.3,637.1,184.4 M649.1,181.3c-2.1,0.4-3.5,2.4-3.2,4.5c0.5,2.5,2.7,4.3,5.3,4.2h0.3c0,0,0.6-0.1,1.3-0.1
			c1.6-0.1,3.2-0.1,4.9,0c5.4,0.3,10.6,1.5,15.6,3.4c20,7.5,27,28.3,29.5,40c0.2,1.4,1.2,2.6,2.6,3.1c0.4,0.1,0.9,0.2,1.4,0.2
			c1.3,0,2.5-0.5,3.4-1.3c1.2-1.1,1.8-2.7,1.4-4.3c-4.6-22-16.5-38.2-33.7-45.5c-5.3-2.3-14.5-4.9-22.3-4.9
			C653.2,180.5,651.1,180.8,649.1,181.3 M668.6,171.4c-0.1,2.2,1.3,4.2,3.5,4.8c8.3,2.4,16,6.5,22.5,12.1c6,4.9,11,11.1,14.5,18
			c2.9,6.1,5.3,12.4,7.8,18.6c1.2,2.9,1.9,5.9,3.2,8.7c1.1,2.2,3.8,3.1,5.9,2c0,0,0,0,0.1,0c2.2-1,3.3-3.6,2.6-5.9
			c-2.2-6-4.2-12.1-6.7-18c-2.1-5.2-4.6-10.2-7.5-15c-3-4.6-6.5-8.8-10.4-12.7c-6.9-7-15.4-12.3-24.6-15.5c-1.7-0.6-3.3-1.1-5-1.6
			c-0.5-0.1-1-0.2-1.5-0.1h-0.4C670.3,167.3,668.7,169.2,668.6,171.4 M636,165.8c-10.4,2.9-20,8.1-28.2,15.1c-2,1.7-2.2,4.6-0.7,6.7
			c1.6,2.1,4.5,2.5,6.6,0.9c0.1-0.1,0.2-0.2,0.3-0.2c4.4-3.9,9.4-7.2,14.8-9.6c5.4-2.6,11.2-4.3,17.2-5c3.5-0.3,7.1-0.5,10.6-0.6
			c3-0.1,5-1.4,5.5-3.7c0.7-2.6-0.9-5.2-3.5-5.9c-0.4-0.1-0.8-0.2-1.2-0.1c-0.7,0-1.3,0-2,0C648.9,163.3,642.4,164.1,636,165.8
			 M755.7,161.6c-2.8,1.3-4.1,4.8-2.7,7c3.2,5.3,6,10.8,9,16.2c1.2,2.1,3.8,3.1,6.1,2.3c2.3-0.8,3.6-3.3,2.8-5.6
			c0-0.1-0.1-0.3-0.2-0.4c-1.2-3-2.7-5.8-4.2-8.7c-1.4-2.7-3.1-5.2-4.6-7.8c-1-1.7-2.2-3.4-4.2-3.4
			C757,161.1,756.3,161.3,755.7,161.6 M601.2,161.7c-5.4,4.3-10.5,9-15,14.2c-6.6,7.8-11.8,16.6-15.4,26.1c-1,2.4,0.1,5.2,2.5,6.3
			c2.7,1.1,5.2-0.1,6.4-2.9c2.7-6.9,6.3-13.4,10.6-19.3c2.7-3.8,6.2-6.7,9.4-10c3.3-3.5,7-6.6,11.1-9.2c1.8-1.3,2.5-3.8,1.6-5.9
			c-0.7-1.6-2.3-2.5-4-2.4C606.6,158.6,604.3,159.4,601.2,161.7 M575.1,159.7c-2.4,2.6-4.6,5.2-6.7,8c-1.4,1.8-1.1,3.8,0.2,5.8
			c1.9,2,5,2.1,7.1,0.2c0.1-0.1,0.3-0.3,0.4-0.4c2.1-2.2,4-4.7,6-7c1.6-1.9,1.5-4.7-0.2-6.5c-0.9-0.9-2.2-1.3-3.5-1.3
			C577.2,158.4,576,158.9,575.1,159.7 M645.1,145c-8.3,1.1-16.5,3.1-24.4,6c-2.1,0.6-3.5,2.5-3.5,4.6c-0.2,1.8,0.9,3.6,2.6,4.3
			c1.3,0.5,2.7,0.5,4.1,0.2c3.7-1.1,7.3-2.6,11-3.6c6.6-1.7,13.4-2.5,20.2-2.4c12.1,0,24.1,2.7,34.9,8c10.3,4.9,19.4,12.1,26.6,20.9
			c1.2,1.4,2.2,3.1,4.3,3.4c1.9,0.3,3.8-0.6,4.9-2.2c1.1-1.6,1-3.8-0.2-5.3c-17.1-21.7-43.2-34.4-70.8-34.5
			C651.5,144.3,648.3,144.5,645.1,145 M695.7,140.8c0,2,1.1,3.1,2.6,4.1c5.5,3.4,11.2,6.6,16.5,10.4c7.1,5.1,13.3,11.2,18.4,18.3
			c3.1,4.2,5.9,8.6,8.6,13c1.5,2.4,2.5,5.2,3.8,7.7c1.1,2.1,3.6,3.1,5.9,2.3c1.2-0.4,2.2-1.4,2.7-2.5c1-2.4-0.8-5.8-1.2-6.7
			c-1-2.1-2.1-4.3-3.4-6.5c-3.2-5.7-7-11.1-11.2-16.1c-5.2-6.5-11.3-12.3-18-17.2c-5.6-3.9-11.5-7.4-17.5-10.8
			c-0.8-0.5-1.7-0.7-2.6-0.7C697.7,136,695.6,138.2,695.7,140.8c0,0.1,0,0.1,0,0.1 M605.6,137.3c-5.6,3.1-11,6.6-16.4,10
			c-1.9,1.2-3.9,2.6-3.9,5.4c0.1,2.7,2.3,4.8,4.9,4.7c0.9,0,1.8-0.3,2.6-0.8c5-3.4,10-7,15.2-9.9c4.4-2.3,8.9-4.3,13.6-6
			c2.9-1.1,4.2-3.2,3.4-6.1c-0.8-1.9-2.5-2.6-4.7-2.6c-5,0-12.1,3.7-14.8,5.2 M719.3,131.7c-0.4,1.9,0.4,3.8,2.1,4.8
			c7.3,5,14,10.8,20,17.3c1,1.3,2.2,2.5,3.5,3.5c1.1,0.7,3.8,1.2,5.4,0.2c2.2-1.5,2.8-4.5,1.3-6.7c-0.1-0.1-0.2-0.3-0.3-0.4
			c-7-8.2-15.1-15.4-23.9-21.5c-1-0.7-2.2-1.1-3.4-1.1C721.6,127.7,719.6,129.4,719.3,131.7 M651.2,125.5c-5.5,0.2-11,1.2-16.4,1.9
			c-3,0.4-4.1,3.5-3.7,5.7c0.5,2.2,3.1,4,5.9,3.6c5.4-0.8,10.9-1.3,16.3-1.5c10.6-0.3,21.2,1.2,31.3,4.4c2.4,0.7,5-0.7,5.7-3.1
			c0.3-0.9,0.2-1.8,0-2.7c-2.8-4.8-15.9-6.8-22.5-7.4c-4.3-0.4-8.8-0.7-13.1-0.7C653.5,125.5,652.3,125.5,651.2,125.5 M592.9,122.4
			c-1.6,0.7-3.1,1.6-4.6,2.5c-4.1,2.7-8.1,5.6-12.1,8.4c-2.1,1.5-2.6,4.4-1.1,6.5c0,0,0,0.1,0.1,0.1c1.6,2.1,4.7,2.6,6.9,1
			c5-3.4,10.1-6.7,15.2-9.9c1.9-1.2,3-4.1,2.2-6c-0.7-1.8-2.5-3-4.4-2.9C594.3,122.1,593.6,122.2,592.9,122.4 M613.5,113.3
			c-2,0.6-3.9,1.4-5.8,2.1c-2.5,1-3.8,3.7-3,6.2c1,2.7,3.8,3.7,6.5,2.8c6.6-2,13.2-4.2,19.9-5.7c5.9-1.2,11.9-2,17.9-2.5
			c4.1-0.3,8.1-0.3,12.2,0c8.1,0.4,16,1.7,23.8,3.8c7.9,2.1,15.7,5.1,23,8.8c1.7,1,3.8,0.8,5.3-0.5c3.8-3.8-0.2-7.6-1.5-8.3
			c-11-5.5-22.7-9.4-34.8-11.5c-7.8-1.3-15.7-2-23.6-2h-0.2C639.6,106.4,626.4,109.1,613.5,113.3 M687.6,91.6
			c-2.7,0.7-4,2.4-4.1,4.8c0.1,2.2,1.6,4.1,3.8,4.6c5.1,1.6,10.2,2.9,15.2,4.7c10.9,3.9,21.3,9.3,30.8,16c2.8,2,5.6,4.2,8.4,6.2
			c1.7,1.5,4.3,1.4,6-0.1c1.7-1.6,2.4-4.2,1.1-5.9c-1.2-1.4-2.5-2.7-4-3.7c-10.7-8.4-22.5-15.2-35.2-20.2c-6.5-2.6-13.3-4.4-20-6.5
			c-0.2-0.1-0.5-0.1-0.7-0.1C688.3,91.5,687.8,91.6,687.6,91.6 M647.9,87.6c-5.1,0.4-10.2,0.8-15.2,1.7
			c-16.6,2.8-31.1,7.8-38.2,11.2c-2.2,1-4.5,2-6.8,3.1c-1.9,0.8-3.2,2.6-3.2,4.7c-0.1,2,1.2,3.8,3.1,4.3c1.2,0.4,2.5,0.4,3.6-0.1
			c11.5-6,23.9-10.2,36.6-12.6c7.3-1.3,14.7-1.8,22.1-2.6c7.6-0.7,15.1,0.1,22.6,0.8c2.5,0.3,4.7-1.5,5-4c0,0,0-0.1,0-0.1
			c0.5-2.4-1-4.7-3.4-5.1c-0.1,0-0.1,0-0.2,0c-4.8-0.6-9.7-1.1-14.5-1.4c-1.6-0.1-3.3-0.1-4.9-0.1C652.3,87.3,650.1,87.4,647.9,87.6
			 M637.9,69.5c-4.6,0.5-9.2,1.1-13.9,1.8c-1,0.1-5.2,0.9-7,2.6c-1.5,1.4-1.8,3.6-0.8,5.4c1,1.9,3.1,2.8,5.1,2.4
			c5.7-0.9,11.3-1.8,17-2.6c2.5-0.4,4.4-2.6,4.3-5.2c0-2.4-1.9-4.3-4.3-4.4L637.9,69.5 M649,74.5c0.7,2.2,2.8,3.6,5.1,3.6
			c7.1,0.3,14.3,0.6,21.4,1.3c7.9,0.9,15.7,2.5,23.2,4.8c2.1,0.8,4.5,0,5.8-1.9c1.2-2,1.2-4.2-0.5-5.8c-1.2-1-2.6-1.7-4.1-2
			c-8-1.7-16-3.7-24.2-4.8c-7.5-0.8-15-1.2-22.6-1.1H653C650,68.7,648.2,71.6,649,74.5"/>
		<path class="st2" d="M603.2,307c7.2,6.6,18.2,9.4,27.6,10.7c6,0.8,6-8.6,0.1-9.4c-6.9-0.9-15.9-3.2-21.1-8
			c-0.8-0.8-1.9-1.3-3.1-1.3C602.9,299,599.6,303.7,603.2,307 M695.5,299.1c-13.9,9.1-30.1,12.1-46.5,11.1c-6-0.4-6.8,9-0.8,9.4
			c17.9,1.2,36.3-2,51.5-12c4.2-2.8,2-9.2-1.8-9.2C697,298.3,696.1,298.6,695.5,299.1 M715.6,271.5c-3.1,0.1-5.5,2.8-5.4,5.9
			c0.9,21.3-1,31.2-8.7,45.8c-1.3,2.5-0.3,5.6,2.2,6.9c0,0,0.1,0,0.1,0.1c0.7,0.4,1.5,0.6,2.2,0.6c1.6,0,3-0.9,3.7-2.4
			c8.4-16.1,11.2-30.9,10-53.1c0.1-2.1-1.6-3.8-3.7-3.8c-0.1,0-0.2,0-0.3,0L715.6,271.5 M592.6,261.8c4.5,19,18.7,32.5,40,37.5
			c5.9,1.4,6.4-8,0.6-9.4c-14.6-3.4-27.9-15.5-31.4-30.1c-0.4-2.1-2.3-3.6-4.5-3.5C594.5,256.3,591.8,258.4,592.6,261.8
			 M570.2,248.2c1.3,18.2,7.3,34.7,19.8,48.3c4.1,4.4,10.7-2.2,6.6-6.7c-10.7-11.6-15.9-25.9-17-41.5c-0.2-2.6-2.4-4.7-5.1-4.6
			C572.3,243.7,570.1,245.2,570.2,248.2 M723.8,243.3c-0.5,1-0.6,2.1-0.5,3.1c0.9,5.7,2.1,11.3,2.8,17c0.6,4.8,1,9.7,1,14.6
			c0,6.9-0.3,13.8-0.5,20.7c0,0.4,0.1,0.9,0.1,1.3c0.5,2.4,2.8,4,5.2,3.7c2.1-0.2,3.9-1.8,4.1-3.9c0.4-5.6,0.7-11.2,0.8-16.8
			c0.1-4.1,0-8.1-0.4-12.2c-0.5-5.8-1.3-11.5-2.1-17.3c-0.4-3-1-6-1.7-9c-0.4-1.9-1.9-3.4-3.8-3.8c-0.3,0-0.5,0-0.8-0.1
			C726.3,240.7,724.6,241.7,723.8,243.3 M709.9,240.7L709.9,240.7c-1.6,0.2-3.1,1-4,2.3c-0.8,1-1.1,2.2-0.9,3.4
			c0.9,4.4,1.7,8.9,2.4,13.2c0.2,1.4,0.5,2.7,0.7,4.1c0.4,2.3,2.4,4,4.7,4.1h0.2c1.3,0,2.5-0.6,3.4-1.5c0.8-0.9,1.2-2.1,1-3.3
			c-0.4-4.9-1.1-9.8-2.2-14.6c-0.1-0.4-0.2-0.8-0.2-1.2c-0.5-2.9-1.2-6.6-4.9-6.6H709.9z M658.3,222.9c-2.4,0.5-4,2.9-3.4,5.3
			c0.5,2.4,2.9,4,5.3,3.4l0,0c0.1,0,12.9-2.6,24.8,2.3l7.2,30.5c1.8,16.4-11.7,31-44.5,27.9c-4.7-0.4-5.6,7-0.9,8.5
			c23.9,4.6,61.5-6.4,54.7-40.1l-7.2-30.4v-0.1c-0.3-1.3-1.1-2.4-2.3-3c-7.2-3.6-15.2-5.5-23.3-5.3
			C665.2,221.9,661.7,222.2,658.3,222.9 M568.5,220.6c-0.2,3.5-0.2,7-0.1,10.4c0.1,2.2,1.6,3.7,3.8,4.3c2.7,0.4,5.2-1.6,5.6-4.3
			c0-0.2,0-0.4,0-0.6c0.2-3.1,0.1-6.2,0.1-9.2c0.1-2.5-1.8-4.6-4.3-4.9h-0.4C570.8,216.3,568.7,218.1,568.5,220.6 M606.7,217.3
			c-1.4,5.6-2.1,11.4-1.8,17.1c0.2,6.2,1.3,12.4,3.4,18.3c1.3,3.7,5.4,14.7,10.2,15.1l0,0c1.6,0.1,3.1-0.8,3.8-2.2
			c0.9-1.6,0.9-3.5-0.2-5.1c-7.4-11.8-9.9-26.1-6.9-39.7l0.1-0.4c0.2-0.8,0.3-1.6,0.3-2.4c-0.2-2.2-1.8-3.9-4-4.1
			c-0.2,0-0.4,0-0.6,0C609,214.1,607.3,215.4,606.7,217.3 M754.1,202.3c-2.7,1-3.6,3.9-2.5,7c2.5,7.6,4.7,15.2,7,22.8
			c0.9,3,1.6,6.1,2.4,9.2c0.5,2.5,3,4.1,5.5,3.6c0.1,0,0.2,0,0.2-0.1c2.5-0.7,4-3.3,3.4-5.9c-0.5-2.4-1-4.7-1.6-7.2
			c-0.4-2-3.2-11.7-4.1-14.6c-1.2-3.7-2.5-7.6-3.8-11.4c-0.6-2.2-2.5-3.7-4.7-3.8C755.3,202,754.7,202.1,754.1,202.3 M649,201.5
			c-15.5,0.7-26.4,11.2-25.8,24.1v0.2c0.6,13.4,9.6,19.1,28.6,22.3c17.4,2.8,21.7,6.9,22,14.6v0.2c0.4,8.1-6.6,14.3-17.6,14.8
			c-10.4,0.5-18.3-2.3-26.3-8.5c-0.8-0.7-1.8-1-2.9-0.9c-2.5,0.1-4.4,2.2-4.2,4.7c0,0,0,0,0,0.1c0,1.4,0.7,2.7,1.9,3.4
			c9,6.8,20.2,10.2,31.5,9.5c16.3-0.8,27.5-10.4,26.9-24.5v-0.2c-0.6-12.5-9.3-18.8-27.8-21.9c-18.2-3-22.6-7.1-23-14.9v-0.2
			c-0.3-7.4,6.3-14,16.9-14.5c7.6-0.4,14.7,0.6,21.8,5.3c0.8,0.5,1.8,0.8,2.7,0.7c2.5-0.1,4.4-2.2,4.2-4.7c-0.1-1.5-0.9-2.8-2.2-3.6
			c-6.8-4.4-14.2-6.1-23.1-6.1C651.6,201.4,650.3,201.4,649,201.5 M596.5,193.6c-3.5,5.6-6.2,11.7-8,18.1c-2,6.9-2.9,14-2.7,21.2
			c0.2,5.2,0.9,17.9,5.6,19.7c1.6,0.6,3.3,0.2,4.5-0.9c1.4-1.3,2-3.3,1.4-5.2c-4-15.7-1.7-32.4,6.4-46.4c0.6-0.9,1-1.8,1.4-2.8
			c0.5-2.2-0.6-4.5-2.7-5.4c-0.6-0.3-1.3-0.4-2-0.4C598.8,191.5,597.3,192.3,596.5,193.6 M727.9,190.7c-2.4,1.2-3,4.2-1.7,7.1
			c3.2,7.7,6.5,15.5,9.5,23.3c3.2,8.5,5.5,17.4,7,26.4c1.1,6.4,1.9,12.7,2.7,19.1c0.4,3.6,0.5,7.2,0.7,10.8c0.3,2.7,2.6,4.7,5.4,4.5
			c2.4-0.3,4.3-2.3,4.2-4.8c-0.1-8.5-0.9-16.9-2.5-25.2l-0.2-1c-1.3-6.7-6.3-27.1-7.5-30.4c-1.8-5.2-3.7-10.5-5.6-15.8
			c-1.5-3.9-3.3-7.7-5.1-11.5c-0.7-1.9-2.5-3.1-4.5-3.2C729.4,190.1,728.6,190.3,727.9,190.7 M637.1,184.4
			c-11.6,2.5-22.3,11.5-26,21.8c-0.8,1.9,0.1,4,1.9,4.8c0.1,0.1,0.3,0.1,0.4,0.1c0.6,0.2,1.2,0.3,1.8,0.3c2.1,0,3.9-1.2,4.6-3.2
			c2.3-6.3,11.6-13.5,20-15.3c2.1-0.4,3.5-2.4,3.1-4.4c0-0.1,0-0.2-0.1-0.3c-0.4-2.2-2.3-3.9-4.6-3.9
			C637.8,184.3,637.4,184.3,637.1,184.4 M649.1,181.3c-2.1,0.4-3.5,2.4-3.2,4.5c0.5,2.5,2.7,4.3,5.3,4.2h0.3c0,0,0.6-0.1,1.3-0.1
			c1.6-0.1,3.2-0.1,4.9,0c5.4,0.3,10.6,1.5,15.6,3.4c20,7.5,27,28.3,29.5,40c0.2,1.4,1.2,2.6,2.6,3.1c0.4,0.1,0.9,0.2,1.4,0.2
			c1.3,0,2.5-0.5,3.4-1.3c1.2-1.1,1.8-2.7,1.4-4.3c-4.6-22-16.5-38.2-33.7-45.5c-5.3-2.3-14.5-4.9-22.3-4.9
			C653.2,180.5,651.1,180.8,649.1,181.3 M668.6,171.4c-0.1,2.2,1.3,4.2,3.5,4.8c8.3,2.4,16,6.5,22.5,12.1c6,4.9,11,11.1,14.5,18
			c2.9,6.1,5.3,12.4,7.8,18.6c1.2,2.9,1.9,5.9,3.2,8.7c1.1,2.2,3.8,3.1,5.9,2c0,0,0,0,0.1,0c2.2-1,3.3-3.6,2.6-5.9
			c-2.2-6-4.2-12.1-6.7-18c-2.1-5.2-4.6-10.2-7.5-15c-3-4.6-6.5-8.8-10.4-12.7c-6.9-7-15.4-12.3-24.6-15.5c-1.7-0.6-3.3-1.1-5-1.6
			c-0.5-0.1-1-0.2-1.5-0.1h-0.4C670.3,167.3,668.7,169.2,668.6,171.4 M636,165.8c-10.4,2.9-20,8.1-28.2,15.1c-2,1.7-2.2,4.6-0.7,6.7
			c1.6,2.1,4.5,2.5,6.6,0.9c0.1-0.1,0.2-0.2,0.3-0.2c4.4-3.9,9.4-7.2,14.8-9.6c5.4-2.6,11.2-4.3,17.2-5c3.5-0.3,7.1-0.5,10.6-0.6
			c3-0.1,5-1.4,5.5-3.7c0.7-2.6-0.9-5.2-3.5-5.9c-0.4-0.1-0.8-0.2-1.2-0.1c-0.7,0-1.3,0-2,0C648.9,163.3,642.4,164.1,636,165.8
			 M755.7,161.6c-2.8,1.3-4.1,4.8-2.7,7c3.2,5.3,6,10.8,9,16.2c1.2,2.1,3.8,3.1,6.1,2.3c2.3-0.8,3.6-3.3,2.8-5.6
			c0-0.1-0.1-0.3-0.2-0.4c-1.2-3-2.7-5.8-4.2-8.7c-1.4-2.7-3.1-5.2-4.6-7.8c-1-1.7-2.2-3.4-4.2-3.4
			C757,161.1,756.3,161.3,755.7,161.6 M601.2,161.7c-5.4,4.3-10.5,9-15,14.2c-6.6,7.8-11.8,16.6-15.4,26.1c-1,2.4,0.1,5.2,2.5,6.3
			c2.7,1.1,5.2-0.1,6.4-2.9c2.7-6.9,6.3-13.4,10.6-19.3c2.7-3.8,6.2-6.7,9.4-10c3.3-3.5,7-6.6,11.1-9.2c1.8-1.3,2.5-3.8,1.6-5.9
			c-0.7-1.6-2.3-2.5-4-2.4C606.6,158.6,604.3,159.4,601.2,161.7 M575.1,159.7c-2.4,2.6-4.6,5.2-6.7,8c-1.4,1.8-1.1,3.8,0.2,5.8
			c1.9,2,5,2.1,7.1,0.2c0.1-0.1,0.3-0.3,0.4-0.4c2.1-2.2,4-4.7,6-7c1.6-1.9,1.5-4.7-0.2-6.5c-0.9-0.9-2.2-1.3-3.5-1.3
			C577.2,158.4,576,158.9,575.1,159.7 M645.1,145c-8.3,1.1-16.5,3.1-24.4,6c-2.1,0.6-3.5,2.5-3.5,4.6c-0.2,1.8,0.9,3.6,2.6,4.3
			c1.3,0.5,2.7,0.5,4.1,0.2c3.7-1.1,7.3-2.6,11-3.6c6.6-1.7,13.4-2.5,20.2-2.4c12.1,0,24.1,2.7,34.9,8c10.3,4.9,19.4,12.1,26.6,20.9
			c1.2,1.4,2.2,3.1,4.3,3.4c1.9,0.3,3.8-0.6,4.9-2.2c1.1-1.6,1-3.8-0.2-5.3c-17.1-21.7-43.2-34.4-70.8-34.5
			C651.5,144.3,648.3,144.5,645.1,145 M695.7,140.8c0,2,1.1,3.1,2.6,4.1c5.5,3.4,11.2,6.6,16.5,10.4c7.1,5.1,13.3,11.2,18.4,18.3
			c3.1,4.2,5.9,8.6,8.6,13c1.5,2.4,2.5,5.2,3.8,7.7c1.1,2.1,3.6,3.1,5.9,2.3c1.2-0.4,2.2-1.4,2.7-2.5c1-2.4-0.8-5.8-1.2-6.7
			c-1-2.1-2.1-4.3-3.4-6.5c-3.2-5.7-7-11.1-11.2-16.1c-5.2-6.5-11.3-12.3-18-17.2c-5.6-3.9-11.5-7.4-17.5-10.8
			c-0.8-0.5-1.7-0.7-2.6-0.7C697.7,136,695.6,138.2,695.7,140.8c0,0.1,0,0.1,0,0.1 M605.6,137.3c-5.6,3.1-11,6.6-16.4,10
			c-1.9,1.2-3.9,2.6-3.9,5.4c0.1,2.7,2.3,4.8,4.9,4.7c0.9,0,1.8-0.3,2.6-0.8c5-3.4,10-7,15.2-9.9c4.4-2.3,8.9-4.3,13.6-6
			c2.9-1.1,4.2-3.2,3.4-6.1c-0.8-1.9-2.5-2.6-4.7-2.6c-5,0-12.1,3.7-14.8,5.2 M719.3,131.7c-0.4,1.9,0.4,3.8,2.1,4.8
			c7.3,5,14,10.8,20,17.3c1,1.3,2.2,2.5,3.5,3.5c1.1,0.7,3.8,1.2,5.4,0.2c2.2-1.5,2.8-4.5,1.3-6.7c-0.1-0.1-0.2-0.3-0.3-0.4
			c-7-8.2-15.1-15.4-23.9-21.5c-1-0.7-2.2-1.1-3.4-1.1C721.6,127.7,719.6,129.4,719.3,131.7 M651.2,125.5c-5.5,0.2-11,1.2-16.4,1.9
			c-3,0.4-4.1,3.5-3.7,5.7c0.5,2.2,3.1,4,5.9,3.6c5.4-0.8,10.9-1.3,16.3-1.5c10.6-0.3,21.2,1.2,31.3,4.4c2.4,0.7,5-0.7,5.7-3.1
			c0.3-0.9,0.2-1.8,0-2.7c-2.8-4.8-15.9-6.8-22.5-7.4c-4.3-0.4-8.8-0.7-13.1-0.7C653.5,125.5,652.3,125.5,651.2,125.5 M592.9,122.4
			c-1.6,0.7-3.1,1.6-4.6,2.5c-4.1,2.7-8.1,5.6-12.1,8.4c-2.1,1.5-2.6,4.4-1.1,6.5c0,0,0,0.1,0.1,0.1c1.6,2.1,4.7,2.6,6.9,1
			c5-3.4,10.1-6.7,15.2-9.9c1.9-1.2,3-4.1,2.2-6c-0.7-1.8-2.5-3-4.4-2.9C594.3,122.1,593.6,122.2,592.9,122.4 M613.5,113.3
			c-2,0.6-3.9,1.4-5.8,2.1c-2.5,1-3.8,3.7-3,6.2c1,2.7,3.8,3.7,6.5,2.8c6.6-2,13.2-4.2,19.9-5.7c5.9-1.2,11.9-2,17.9-2.5
			c4.1-0.3,8.1-0.3,12.2,0c8.1,0.4,16,1.7,23.8,3.8c7.9,2.1,15.7,5.1,23,8.8c1.7,1,3.8,0.8,5.3-0.5c3.8-3.8-0.2-7.6-1.5-8.3
			c-11-5.5-22.7-9.4-34.8-11.5c-7.8-1.3-15.7-2-23.6-2h-0.2C639.6,106.4,626.4,109.1,613.5,113.3 M687.6,91.6
			c-2.7,0.7-4,2.4-4.1,4.8c0.1,2.2,1.6,4.1,3.8,4.6c5.1,1.6,10.2,2.9,15.2,4.7c10.9,3.9,21.3,9.3,30.8,16c2.8,2,5.6,4.2,8.4,6.2
			c1.7,1.5,4.3,1.4,6-0.1c1.7-1.6,2.4-4.2,1.1-5.9c-1.2-1.4-2.5-2.7-4-3.7c-10.7-8.4-22.5-15.2-35.2-20.2c-6.5-2.6-13.3-4.4-20-6.5
			c-0.2-0.1-0.5-0.1-0.7-0.1C688.3,91.5,687.8,91.6,687.6,91.6 M647.9,87.6c-5.1,0.4-10.2,0.8-15.2,1.7
			c-16.6,2.8-31.1,7.8-38.2,11.2c-2.2,1-4.5,2-6.8,3.1c-1.9,0.8-3.2,2.6-3.2,4.7c-0.1,2,1.2,3.8,3.1,4.3c1.2,0.4,2.5,0.4,3.6-0.1
			c11.5-6,23.9-10.2,36.6-12.6c7.3-1.3,14.7-1.8,22.1-2.6c7.6-0.7,15.1,0.1,22.6,0.8c2.5,0.3,4.7-1.5,5-4c0,0,0-0.1,0-0.1
			c0.5-2.4-1-4.7-3.4-5.1c-0.1,0-0.1,0-0.2,0c-4.8-0.6-9.7-1.1-14.5-1.4c-1.6-0.1-3.3-0.1-4.9-0.1C652.3,87.3,650.1,87.4,647.9,87.6
			 M637.9,69.5c-4.6,0.5-9.2,1.1-13.9,1.8c-1,0.1-5.2,0.9-7,2.6c-1.5,1.4-1.8,3.6-0.8,5.4c1,1.9,3.1,2.8,5.1,2.4
			c5.7-0.9,11.3-1.8,17-2.6c2.5-0.4,4.4-2.6,4.3-5.2c0-2.4-1.9-4.3-4.3-4.4L637.9,69.5 M649,74.5c0.7,2.2,2.8,3.6,5.1,3.6
			c7.1,0.3,14.3,0.6,21.4,1.3c7.9,0.9,15.7,2.5,23.2,4.8c2.1,0.8,4.5,0,5.8-1.9c1.2-2,1.2-4.2-0.5-5.8c-1.2-1-2.6-1.7-4.1-2
			c-8-1.7-16-3.7-24.2-4.8c-7.5-0.8-15-1.2-22.6-1.1H653C650,68.7,648.2,71.6,649,74.5"/>
	</g>
</g>
</svg>
