<?xml version="1.0" encoding="utf-8"?>
<!-- Generator: Adobe Illustrator 24.1.0, SVG Export Plug-In . SVG Version: 6.00 Build 0)  -->
<svg version="1.1" id="Capa_1" xmlns="http://www.w3.org/2000/svg" xmlns:xlink="http://www.w3.org/1999/xlink" x="0px" y="0px"
	 viewBox="0 0 68 68" style="enable-background:new 0 0 68 68;" xml:space="preserve">
<style type="text/css">
	.st0{fill:#9E1724;}
	.st1{fill:#FFFFFF;}
</style>
<g>
	<rect x="21.9" y="23.5" class="st0" width="23.4" height="3.4"/>
	<path class="st0" d="M21.9,47.4h23.4V30.3H21.9V47.4z M33.6,32c3.3,0,5,4.1,2.7,6.6c-2.4,2.4-6.4,0.7-6.4-2.7
		C29.8,33.8,31.5,32,33.6,32z M26,45.5c0-2.1,3.3-3.8,7.5-3.8c4.2,0,7.5,1.7,7.5,3.8v0.2H26V45.5z"/>
	<path class="st0" d="M44.5,8.3c-3.3-1.4-6.9-2.1-10.6-2.1c-5.5,0-10.8,1.6-15.3,4.7c-4.5,3-8.1,7.3-10.2,12.4
		c-2.1,5-2.6,10.6-1.6,15.9s3.7,10.3,7.6,14.1c3.9,3.9,8.8,6.5,14.1,7.6s10.9,0.5,15.9-1.6c5-2.1,9.4-5.6,12.4-10.2
		c3-4.5,4.7-9.9,4.7-15.3c0-3.6-0.7-7.2-2.1-10.6c-1.4-3.3-3.4-6.4-6-9C50.9,11.7,47.8,9.7,44.5,8.3z M48.6,47.4
		c0,0.9-0.4,1.8-1,2.4c-0.6,0.6-1.5,1-2.4,1H21.9c-0.9,0-1.7-0.4-2.4-1c-0.6-0.6-1-1.5-1-2.4V23.5c0-0.9,0.4-1.8,1-2.4
		c0.6-0.6,1.5-1,2.4-1h1.7v-3.4h3.3v3.4h13.4v-3.4h3.3v3.4h1.7c0.9,0,1.7,0.4,2.4,1c0.6,0.6,1,1.5,1,2.4V47.4z"/>
	<path class="st0" d="M61.4,15.5c-3.6-5.4-8.8-9.7-14.9-12.2c-6.1-2.5-12.7-3.2-19.1-1.9c-6.4,1.3-12.3,4.4-17,9.1
		c-4.6,4.6-7.8,10.5-9.1,17c-1.3,6.4-0.6,13.1,1.9,19.1c2.5,6.1,6.8,11.2,12.2,14.9C21,65.1,27.4,67,33.9,67
		c5.3,0,10.4-1.3,15.1-3.7c4.7-2.4,8.7-5.9,11.8-10.2c0.1-0.1,0.1-0.2,0.2-0.3c0-0.1,0.1-0.2,0-0.3c0-0.1,0-0.2-0.1-0.3
		c0-0.1-0.1-0.2-0.2-0.2C60.7,52,60.6,52,60.5,52c-0.1,0-0.2,0-0.3,0c-0.1,0-0.2,0.1-0.3,0.1s-0.1,0.1-0.2,0.2
		c-4.4,6.1-10.8,10.5-18.2,12.3c-7.3,1.8-15.1,0.9-21.8-2.4s-12.1-9.1-15-16.1s-3.3-14.8-1-22s7.1-13.3,13.5-17.3
		c6.4-4,14.1-5.5,21.5-4.3c7.5,1.2,14.3,5,19.2,10.7c4.9,5.7,7.6,13.1,7.6,20.6c0,3.3-0.5,6.6-1.6,9.8c0,0.1,0,0.2,0,0.3
		c0,0.1,0,0.2,0.1,0.3c0,0.1,0.1,0.2,0.2,0.2c0.1,0.1,0.1,0.1,0.2,0.1c0.1,0,0.2,0,0.3,0c0.1,0,0.2,0,0.3-0.1c0.1,0,0.2-0.1,0.2-0.2
		c0.1-0.1,0.1-0.2,0.1-0.2c1.1-3.3,1.6-6.8,1.6-10.2C67,27.4,65.1,21,61.4,15.5z"/>
	<path class="st1" d="M41.1,45.5c0-2.1-3.3-3.8-7.5-3.8c-4.2,0-7.5,1.7-7.5,3.8v0.2h15V45.5z"/>
	<path class="st1" d="M45.3,20.1h-1.7v-3.4h-3.3v3.4H26.9v-3.4h-3.3v3.4h-1.7c-0.9,0-1.7,0.4-2.4,1c-0.6,0.6-1,1.5-1,2.4v23.9
		c0,0.9,0.4,1.8,1,2.4c0.6,0.6,1.5,1,2.4,1h23.4c0.9,0,1.7-0.4,2.4-1c0.6-0.6,1-1.5,1-2.4V23.5c0-0.9-0.4-1.8-1-2.4
		C47,20.4,46.1,20.1,45.3,20.1z M45.3,47.4H21.9V30.3h23.4V47.4z M45.3,26.9H21.9v-3.4h23.4V26.9z"/>
	<path class="st1" d="M36.2,38.6c2.4-2.4,0.7-6.6-2.7-6.6c-2.1,0-3.8,1.7-3.8,3.8C29.8,39.3,33.8,41,36.2,38.6z"/>
</g>
</svg>
