<?xml version="1.0" encoding="utf-8"?>
<!-- Generator: Adobe Illustrator 24.1.0, SVG Export Plug-In . SVG Version: 6.00 Build 0)  -->
<svg version="1.1" id="Capa_1" xmlns="http://www.w3.org/2000/svg" xmlns:xlink="http://www.w3.org/1999/xlink" x="0px" y="0px"
	 viewBox="0 0 70 70" style="enable-background:new 0 0 70 70;" xml:space="preserve">
<style type="text/css">
	.st0{fill:#FFFFFF;}
	.st1{fill:#9E1724;}
</style>
<g>
	<path class="st0" d="M45.5,30H23.3c-0.3,0-0.5,0.2-0.5,0.5v17.3c0,0.3,0.2,0.5,0.5,0.5h22.2c0.3,0,0.5-0.2,0.5-0.5V30.5
		C46,30.3,45.8,30,45.5,30z M34.4,31.7c3.3,0,5,4,2.6,6.4c-2.4,2.4-6.4,0.7-6.4-2.6C30.6,33.4,32.3,31.7,34.4,31.7z M41.9,46.1
		c0,0.3-0.2,0.5-0.5,0.5H27.4c-0.3,0-0.5-0.2-0.5-0.5v-1.4c0-2.1,3.3-3.7,7.5-3.7c4.2,0,7.5,1.7,7.5,3.7V46.1z"/>
	<path class="st0" d="M45.6,8.9c-3.5-1.4-7.2-2.2-11-2.2c-5.7,0-11.2,1.7-16,4.8c-4.7,3.2-8.4,7.7-10.6,12.9
		c-2.2,5.3-2.7,11-1.6,16.6c1.1,5.6,3.8,10.7,7.9,14.7s9.1,6.8,14.7,7.9c5.6,1.1,11.4,0.5,16.6-1.6c5.3-2.2,9.7-5.9,12.9-10.6
		c3.2-4.7,4.8-10.3,4.8-16c0-3.8-0.7-7.5-2.2-11s-3.6-6.7-6.2-9.3C52.2,12.5,49.1,10.4,45.6,8.9z M49.3,48.3c0,0.9-0.3,1.7-1,2.3
		c-0.6,0.6-1.5,1-2.3,1H22.8c-0.9,0-1.7-0.3-2.3-1c-0.6-0.6-1-1.5-1-2.3V25.1c0-0.9,0.3-1.7,1-2.3c0.6-0.6,1.5-1,2.3-1h1.2
		c0.3,0,0.5-0.2,0.5-0.5v-2.3c0-0.3,0.2-0.5,0.5-0.5h2.3c0.3,0,0.5,0.2,0.5,0.5v2.3c0,0.3,0.2,0.5,0.5,0.5h12.3
		c0.3,0,0.5-0.2,0.5-0.5v-2.3c0-0.3,0.2-0.5,0.5-0.5h2.3c0.3,0,0.5,0.2,0.5,0.5v2.3c0,0.3,0.2,0.5,0.5,0.5H46c0.9,0,1.7,0.3,2.3,1
		c0.6,0.6,1,1.5,1,2.3V48.3z"/>
	<path class="st0" d="M63.2,16.3C59.4,10.6,54,6.2,47.7,3.5c-6.3-2.6-13.2-3.3-19.9-2C21.1,2.9,14.9,6.2,10.1,11
		C5.3,15.8,2,22,0.7,28.7c-1.3,6.7-0.6,13.6,2,19.9c2.6,6.3,7,11.7,12.7,15.5c5.7,3.8,12.3,5.8,19.2,5.8c5.5,0,10.9-1.3,15.8-3.8
		s9.1-6.1,12.3-10.6c0.1-0.1,0.1-0.2,0.2-0.3c0-0.1,0.1-0.2,0-0.3c0-0.1,0-0.2-0.1-0.3c-0.1-0.1-0.1-0.2-0.2-0.2
		c-0.1-0.1-0.2-0.1-0.3-0.1c-0.1,0-0.2,0-0.3,0c-0.1,0-0.2,0.1-0.3,0.1c-0.1,0.1-0.1,0.2-0.2,0.2c-4.6,6.4-11.3,11-19,12.9
		c-7.6,1.9-15.7,1-22.8-2.6c-7-3.5-12.6-9.5-15.6-16.7C1,41,0.6,32.8,3,25.3s7.4-13.9,14.1-18c6.7-4.1,14.7-5.7,22.5-4.5
		C47.4,4,54.5,8,59.6,13.9c5.1,6,7.9,13.6,7.9,21.5c0,3.5-0.5,6.9-1.6,10.2c0,0.1,0,0.2,0,0.3c0,0.1,0,0.2,0.1,0.3
		c0,0.1,0.1,0.2,0.2,0.2c0.1,0.1,0.2,0.1,0.2,0.1c0.1,0,0.2,0,0.3,0s0.2,0,0.3-0.1c0.1,0,0.2-0.1,0.2-0.2c0.1-0.1,0.1-0.2,0.1-0.2
		c1.1-3.4,1.7-7,1.7-10.7C69,28.6,67,21.9,63.2,16.3z"/>
	<path class="st1" d="M37,38.1c2.3-2.4,0.7-6.4-2.6-6.4c-2.1,0-3.7,1.7-3.7,3.7C30.6,38.8,34.7,40.4,37,38.1z"/>
	<path class="st1" d="M46,21.7h-1.2c-0.3,0-0.5-0.2-0.5-0.5v-2.3c0-0.3-0.2-0.5-0.5-0.5h-2.3c-0.3,0-0.5,0.2-0.5,0.5v2.3
		c0,0.3-0.2,0.5-0.5,0.5H28.2c-0.3,0-0.5-0.2-0.5-0.5v-2.3c0-0.3-0.2-0.5-0.5-0.5h-2.3c-0.3,0-0.5,0.2-0.5,0.5v2.3
		c0,0.3-0.2,0.5-0.5,0.5h-1.2c-0.9,0-1.7,0.3-2.3,1c-0.6,0.6-1,1.5-1,2.3v23.2c0,0.9,0.3,1.7,1,2.3c0.6,0.6,1.5,1,2.3,1H46
		c0.9,0,1.7-0.3,2.3-1c0.6-0.6,1-1.5,1-2.3V25.1c0-0.9-0.3-1.7-1-2.3C47.7,22.1,46.9,21.7,46,21.7z M46,47.8c0,0.3-0.2,0.5-0.5,0.5
		H23.3c-0.3,0-0.5-0.2-0.5-0.5V30.5c0-0.3,0.2-0.5,0.5-0.5h22.2c0.3,0,0.5,0.2,0.5,0.5V47.8z"/>
	<path class="st1" d="M34.4,41c-4.2,0-7.5,1.7-7.5,3.7v1.4c0,0.3,0.2,0.5,0.5,0.5h13.9c0.3,0,0.5-0.2,0.5-0.5v-1.4
		C41.9,42.7,38.5,41,34.4,41z"/>
</g>
</svg>
