<?xml version="1.0" encoding="utf-8"?>
<!-- Generator: Adobe Illustrator 24.1.0, SVG Export Plug-In . SVG Version: 6.00 Build 0)  -->
<svg version="1.1" id="Capa_1" xmlns="http://www.w3.org/2000/svg" xmlns:xlink="http://www.w3.org/1999/xlink" x="0px" y="0px"
	 viewBox="0 0 1558 1559" style="enable-background:new 0 0 1558 1559;" xml:space="preserve">
<style type="text/css">
	.st0{fill:#FFFFFF;}
	.st1{fill:#BF3822;}
</style>
<g>
	<path class="st0" d="M776.1,695.3c75,0,112.4,90.7,59.6,143.9c-53.2,53.2-143.9,15.4-143.9-59.6
		C691.7,732.8,729.2,695.3,776.1,695.3z M944.2,1032.6H607.9c-0.3,0-0.5-0.2-0.5-0.5v-41.5c0-46.8,75-84.3,168.6-84.3
		s168.6,37.5,168.6,84.3v41.5h0.1C944.7,1032.4,944.5,1032.6,944.2,1032.6z"/>
	<path class="st0" d="M1029,181.7c-78.8-32.7-163.2-49.5-248.4-49.5c-128.4,0-253.8,38.1-360.6,109.4
		c-106.7,71.3-189.9,172.7-239,291.3c-49.1,118.6-62,249.1-36.9,375c25,125.9,86.9,241.5,177.6,332.3
		c90.8,90.8,206.4,152.6,332.3,177.6s256.4,12.2,375-36.9s220-132.3,291.3-239s109.4-232.2,109.4-360.6
		c0-85.2-16.8-169.6-49.4-248.4c-32.6-78.7-80.4-150.3-140.7-210.5C1179.3,262.1,1107.8,214.3,1029,181.7z M1113.3,1070.2
		c0,19.9-7.9,38.9-22,53s-33.1,22-53,22H513.6c-19.9,0-38.9-7.9-53-22c-14.1-14.1-22-33.1-22-53V545.5c0-19.9,7.9-38.9,22-53
		c14.1-14.1,33.1-22,53-22h37c0.3,0,0.5-0.2,0.5-0.5v-74c0-0.3,0.2-0.5,0.5-0.5h74c0.3,0,0.5,0.2,0.5,0.5v74c0,0.3,0.2,0.5,0.5,0.5
		h298.9c0.3,0,0.5-0.2,0.5-0.5v-74c0-0.3,0.2-0.5,0.5-0.5v-0.1h73.8c0.3,0,0.5,0.2,0.5,0.5v74c0,0.3,0.2,0.5,0.5,0.5h37
		c19.9,0,38.9,7.9,53,22s22,33.1,22,53V1070.2z"/>
	<path class="st0" d="M1426.4,346.7c-85.6-128-207.2-227.9-349.5-286.8C934.6,1,778-14.4,626.9,15.6S337,119.8,228.1,228.7
		C119.2,337.7,45,476.4,15,627.5c-30.1,151-14.7,307.6,44.3,449.9c58.9,142.3,158.7,263.9,286.8,349.5
		c128.1,85.6,278.7,131.3,432.7,131.3c123.8-0.2,245.7-29.9,355.9-86.6c110-56.7,205-138.7,277.1-239.3c1.7-1.7,3.1-3.7,4-5.9
		s1.3-4.6,1.1-7c-0.2-2.3-0.8-4.7-2-6.8s-2.8-4-4.7-5.4s-4.1-2.4-6.5-2.8c-2.3-0.5-4.7-0.4-7.1,0.2s-4.6,1.7-6.4,3.2
		c-1.9,1.5-3.4,3.4-4.4,5.6c-103.5,144.6-255.2,247.5-427.8,290.2c-172.6,42.6-354.8,22.2-513.7-57.6
		c-158.9-79.8-284.1-213.8-352.9-377.7C22.5,904.4,14.5,721.2,68.8,551.9s167.3-313.6,318.7-407c151.3-93.4,331-129.6,506.7-102.2
		c175.6,27.5,335.7,116.8,451.3,251.9c115.7,135,179.2,307,179.3,484.8c0.2,78.3-12.1,156.1-36.6,230.5c-0.7,2-1,4.2-0.8,6.3
		s0.7,4.2,1.7,6.1c0.9,1.9,2.3,3.6,3.9,5c1.7,1.4,3.6,2.5,5.6,3.1c2.1,0.7,4.2,1,6.4,0.8s4.3-0.7,6.2-1.7c2-0.9,3.7-2.3,5.1-3.9
		s2.5-3.5,3.2-5.6c25.5-77.6,38.4-158.9,38.2-240.6C1557.7,625.3,1512,474.8,1426.4,346.7z"/>
	<path class="st1" d="M835.7,839.2c52.8-53.2,15.4-143.9-59.6-143.9c-46.9,0-84.4,37.5-84.3,84.3
		C691.8,854.6,782.5,892.4,835.7,839.2z"/>
	<path class="st1" d="M944.6,990.6c0-46.8-75-84.3-168.6-84.3s-168.6,37.5-168.6,84.3v41.5c0,0.3,0.2,0.5,0.5,0.5h336.3
		c0.3,0,0.5-0.2,0.5-0.5h-0.1V990.6z"/>
	<path class="st1" d="M1038.3,470.4h-37c-0.3,0-0.5-0.2-0.5-0.5v-74c0-0.3-0.2-0.5-0.5-0.5h-73.8v0.1c-0.3,0-0.5,0.2-0.5,0.5v74
		c0,0.3-0.2,0.5-0.5,0.5H626.6c-0.3,0-0.5-0.2-0.5-0.5v-74c0-0.3-0.2-0.5-0.5-0.5h-74c-0.3,0-0.5,0.2-0.5,0.5v74
		c0,0.3-0.2,0.5-0.5,0.5h-37c-19.9,0-38.9,7.9-53,22c-14.1,14.1-22,33.1-22,53v524.7c0,19.9,7.9,38.9,22,53c14.1,14.1,33.1,22,53,22
		h524.7c19.9,0,38.9-7.9,53-22s22-33.1,22-53V545.4c0-19.9-7.9-38.9-22-53S1058.2,470.4,1038.3,470.4z M1038.4,1069.6
		c0,0.3-0.2,0.5-0.5,0.5H514.2c-0.3,0-0.5-0.2-0.5-0.5V658.3c0-0.3,0.2-0.5,0.5-0.5h523.7c0.3,0,0.5,0.2,0.5,0.5V1069.6z"/>
</g>
</svg>
