<svg width="1558" height="1559" viewBox="0 0 1558 1559" fill="none" xmlns="http://www.w3.org/2000/svg">
<path d="M780.652 132.223C652.293 132.223 526.817 170.286 420.09 241.598C313.363 312.911 230.18 414.27 181.059 532.858C131.938 651.447 119.086 781.938 144.127 907.831C169.169 1033.72 230.98 1149.36 321.743 1240.13C412.507 1330.89 528.147 1392.7 654.04 1417.74C779.933 1442.78 910.424 1429.93 1029.01 1380.81C1147.6 1331.69 1248.96 1248.51 1320.27 1141.78C1391.58 1035.05 1429.65 909.577 1429.65 781.218C1429.65 695.991 1412.86 611.598 1380.25 532.858C1347.63 454.119 1299.83 382.574 1239.56 322.309C1179.3 262.044 1107.75 214.24 1029.01 181.624C950.273 149.009 865.88 132.223 780.652 132.223Z" fill="white"/>
<path d="M778.825 1558.19C624.794 1558.19 474.222 1512.51 346.15 1426.93C218.078 1341.36 118.257 1219.73 59.3123 1077.42C0.367226 935.116 -15.0555 778.527 14.9945 627.455C45.0444 476.384 119.217 337.616 228.134 228.7C337.05 119.783 475.818 45.6103 626.89 15.5604C777.961 -14.4896 934.551 0.933144 1076.86 59.8783C1219.16 118.823 1340.79 218.643 1426.37 346.716C1511.94 474.788 1557.62 625.36 1557.62 779.391C1557.85 861.131 1544.97 942.379 1519.46 1020.04C1518.78 1022.09 1517.71 1023.99 1516.3 1025.62C1514.89 1027.25 1513.17 1028.59 1511.24 1029.56C1509.31 1030.52 1507.2 1031.09 1505.05 1031.24C1502.9 1031.39 1500.74 1031.11 1498.69 1030.42C1496.65 1029.78 1494.76 1028.73 1493.13 1027.34C1491.5 1025.96 1490.16 1024.26 1489.19 1022.35C1488.22 1020.44 1487.65 1018.36 1487.5 1016.22C1487.34 1014.09 1487.62 1011.94 1488.31 1009.91C1512.77 935.528 1525.13 857.696 1524.91 779.391C1524.85 601.575 1461.27 429.63 1345.62 294.559C1229.98 159.488 1069.88 70.1791 894.192 42.7359C718.506 15.2927 538.797 51.5209 387.466 144.888C236.136 238.256 123.143 382.618 68.8605 551.946C14.5784 721.274 22.5795 904.424 91.421 1068.37C160.263 1232.32 285.414 1366.28 444.311 1446.1C603.207 1525.91 785.391 1546.33 958.014 1503.67C1130.64 1461.01 1282.34 1358.08 1385.77 1213.44C1386.8 1211.27 1388.3 1209.35 1390.16 1207.82C1392.01 1206.3 1394.19 1205.2 1396.52 1204.61C1398.85 1204.02 1401.28 1203.95 1403.64 1204.41C1406 1204.86 1408.24 1205.83 1410.18 1207.25C1412.12 1208.67 1413.73 1210.5 1414.88 1212.61C1416.04 1214.72 1416.71 1217.06 1416.86 1219.46C1417.01 1221.86 1416.62 1224.26 1415.74 1226.5C1414.85 1228.73 1413.48 1230.74 1411.73 1232.39C1339.64 1333.01 1244.65 1415.03 1134.6 1471.68C1024.55 1528.34 902.6 1557.99 778.825 1558.19V1558.19Z" fill="white"/>
<circle cx="998.204" cy="960.876" r="208.41" fill="#BF3822"/>
<path d="M676.115 1017.72V790.359H827.686V809.306L846.632 790.359C846.632 790.359 865.579 771.413 903.472 752.467C903.472 752.467 956.04 736.422 979.257 733.52C993.941 731.685 1017.15 733.52 1017.15 733.52V714.574H1130.83L751.901 373.54L372.974 714.574H486.652V1017.72H676.115Z" fill="#BF3822"/>
<path d="M903.467 1005.09H941.36C941.36 1021 967.316 1034.56 998.199 1034.56C1029.08 1034.56 1055.04 1021 1055.04 1005.09C1055.04 988.876 1035.33 982.981 993.652 975.171C953.486 967.361 903.467 957.635 903.467 916.669C903.467 890.292 931.318 867.893 969.78 860.378V828.253H1026.62V860.378C1065.08 867.893 1092.93 890.292 1092.93 916.669H1055.04C1055.04 900.754 1029.08 887.197 998.199 887.197C967.316 887.197 941.36 900.754 941.36 916.669C941.36 932.879 961.064 938.773 1002.75 946.583C1042.91 954.394 1092.93 964.119 1092.93 1005.09C1092.93 1031.46 1065.08 1053.86 1026.62 1061.38V1093.5H969.78V1061.38C931.318 1053.86 903.467 1031.46 903.467 1005.09Z" fill="white"/>
</svg>
