<svg width="1558" height="1558" viewBox="0 0 1558 1558" fill="none" xmlns="http://www.w3.org/2000/svg">
<path d="M780.652 131.627C652.293 131.627 526.817 169.69 420.09 241.002C313.363 312.315 230.18 413.674 181.059 532.263C131.938 650.851 119.086 781.342 144.127 907.235C169.169 1033.13 230.98 1148.77 321.743 1239.53C412.507 1330.3 528.147 1392.11 654.04 1417.15C779.933 1442.19 910.424 1429.34 1029.01 1380.22C1147.6 1331.1 1248.96 1247.91 1320.27 1141.18C1391.58 1034.46 1429.65 908.982 1429.65 780.622C1429.65 695.395 1412.86 611.002 1380.25 532.263C1347.63 453.523 1299.83 381.978 1239.56 321.713C1179.3 261.449 1107.75 213.644 1029.01 181.029C950.273 148.414 865.88 131.627 780.652 131.627Z" fill="white"/>
<path d="M778.825 1557.59C624.794 1557.59 474.222 1511.91 346.15 1426.34C218.078 1340.76 118.257 1219.13 59.3123 1076.83C0.367226 934.521 -15.0555 777.931 14.9945 626.86C45.0444 475.788 119.217 337.02 228.134 228.104C337.05 119.188 475.818 45.0146 626.89 14.9647C777.961 -15.0853 934.551 0.337441 1076.86 59.2826C1219.16 118.228 1340.79 218.048 1426.37 346.12C1511.94 474.192 1557.62 624.764 1557.62 778.795C1557.85 860.535 1544.97 941.784 1519.46 1019.44C1518.78 1021.49 1517.71 1023.39 1516.3 1025.02C1514.89 1026.66 1513.17 1027.99 1511.24 1028.96C1509.31 1029.92 1507.2 1030.5 1505.05 1030.65C1502.9 1030.8 1500.74 1030.52 1498.69 1029.83C1496.65 1029.18 1494.76 1028.13 1493.13 1026.75C1491.5 1025.36 1490.16 1023.66 1489.19 1021.75C1488.22 1019.84 1487.65 1017.76 1487.5 1015.62C1487.34 1013.49 1487.62 1011.35 1488.31 1009.32C1512.77 934.932 1525.13 857.1 1524.91 778.795C1524.85 600.979 1461.27 429.034 1345.62 293.963C1229.98 158.892 1069.88 69.5833 894.192 42.1402C718.506 14.697 538.797 50.9252 387.466 144.293C236.136 237.66 123.143 382.023 68.8605 551.35C14.5784 720.678 22.5795 903.828 91.421 1067.78C160.263 1231.73 285.414 1365.68 444.311 1445.5C603.207 1525.31 785.391 1545.73 958.014 1503.07C1130.64 1460.41 1282.34 1357.48 1385.77 1212.84C1386.8 1210.67 1388.3 1208.75 1390.16 1207.23C1392.01 1205.7 1394.19 1204.6 1396.52 1204.01C1398.85 1203.42 1401.28 1203.35 1403.64 1203.81C1406 1204.27 1408.24 1205.24 1410.18 1206.66C1412.12 1208.08 1413.73 1209.9 1414.88 1212.01C1416.04 1214.12 1416.71 1216.46 1416.86 1218.86C1417.01 1221.26 1416.62 1223.67 1415.74 1225.9C1414.85 1228.14 1413.48 1230.15 1411.73 1231.79C1339.64 1332.41 1244.65 1414.44 1134.6 1471.09C1024.55 1527.74 902.6 1557.39 778.825 1557.59V1557.59Z" fill="white"/>
<circle cx="998.204" cy="960.28" r="208.41" fill="#9E1724"/>
<path d="M676.115 1017.12V789.763H827.686V808.709L846.632 789.763C846.632 789.763 865.579 770.817 903.472 751.87C903.472 751.87 956.04 735.826 979.257 732.924C993.941 731.089 1017.15 732.924 1017.15 732.924V713.978H1130.83L751.901 372.943L372.974 713.978H486.652V1017.12H676.115Z" fill="#9E1724"/>
<path d="M903.467 1004.49H941.36C941.36 1020.4 967.316 1033.96 998.199 1033.96C1029.08 1033.96 1055.04 1020.4 1055.04 1004.49C1055.04 988.28 1035.33 982.386 993.652 974.576C953.486 966.766 903.467 957.04 903.467 916.074C903.467 889.696 931.318 867.297 969.78 859.782V827.657H1026.62V859.782C1065.08 867.297 1092.93 889.696 1092.93 916.074H1055.04C1055.04 900.159 1029.08 886.601 998.199 886.601C967.316 886.601 941.36 900.159 941.36 916.074C941.36 932.283 961.064 938.178 1002.75 945.988C1042.91 953.798 1092.93 963.524 1092.93 1004.49C1092.93 1030.87 1065.08 1053.27 1026.62 1060.78V1092.91H969.78V1060.78C931.318 1053.27 903.467 1030.87 903.467 1004.49Z" fill="white"/>
</svg>
