<svg width="1559" height="1559" viewBox="0 0 1559 1559" fill="none" xmlns="http://www.w3.org/2000/svg">
<path d="M779.294 127.24C650.935 127.24 525.458 165.303 418.731 236.616C312.005 307.928 228.821 409.287 179.7 527.876C130.579 646.464 117.727 776.956 142.769 902.848C167.81 1028.74 229.621 1144.38 320.385 1235.14C411.148 1325.91 526.788 1387.72 652.681 1412.76C778.574 1437.8 909.065 1424.95 1027.65 1375.83C1146.24 1326.71 1247.6 1243.52 1318.91 1136.8C1390.23 1030.07 1428.29 904.595 1428.29 776.236C1428.29 691.008 1411.5 606.616 1378.89 527.876C1346.27 449.136 1298.47 377.591 1238.2 317.327C1177.94 257.062 1106.39 209.257 1027.65 176.642C948.914 144.027 864.521 127.24 779.294 127.24V127.24Z" fill="white"/>
<path d="M779.265 1558.4C625.234 1558.4 474.662 1512.73 346.59 1427.15C218.518 1341.58 118.698 1219.95 59.7528 1077.64C0.807656 935.335 -14.6151 778.745 15.4349 627.674C45.4849 476.603 119.658 337.835 228.574 228.918C337.491 120.002 476.259 45.8291 627.33 15.7791C778.401 -14.2708 934.991 1.15189 1077.3 60.097C1219.6 119.042 1341.23 218.862 1426.81 346.934C1512.38 475.006 1558.06 625.578 1558.06 779.609C1558.29 861.35 1545.41 942.598 1519.9 1020.26C1519.22 1022.31 1518.15 1024.2 1516.74 1025.84C1515.33 1027.47 1513.61 1028.81 1511.68 1029.77C1509.75 1030.74 1507.64 1031.31 1505.49 1031.46C1503.34 1031.61 1501.18 1031.33 1499.13 1030.64C1497.09 1029.99 1495.2 1028.95 1493.57 1027.56C1491.94 1026.18 1490.6 1024.48 1489.63 1022.57C1488.66 1020.66 1488.09 1018.57 1487.94 1016.44C1487.78 1014.3 1488.06 1012.16 1488.75 1010.13C1513.21 935.747 1525.57 857.915 1525.35 779.609C1525.29 601.794 1461.71 429.849 1346.06 294.778C1230.42 159.707 1070.32 70.3978 894.632 42.9546C718.947 15.5114 539.237 51.7397 387.907 145.107C236.576 238.475 123.583 382.837 69.3009 552.165C15.0189 721.492 23.0199 904.643 91.8615 1068.59C160.703 1232.54 285.855 1366.5 444.751 1446.31C603.647 1526.13 785.831 1546.55 958.454 1503.89C1131.08 1461.23 1282.78 1358.3 1386.21 1213.66C1387.24 1211.49 1388.74 1209.57 1390.6 1208.04C1392.45 1206.52 1394.63 1205.42 1396.96 1204.83C1399.29 1204.24 1401.72 1204.17 1404.08 1204.62C1406.44 1205.08 1408.68 1206.05 1410.62 1207.47C1412.56 1208.89 1414.17 1210.72 1415.32 1212.83C1416.48 1214.94 1417.15 1217.28 1417.3 1219.68C1417.45 1222.08 1417.06 1224.48 1416.18 1226.72C1415.29 1228.95 1413.92 1230.96 1412.17 1232.61C1340.08 1333.23 1245.09 1415.25 1135.04 1471.9C1024.99 1528.55 903.041 1558.2 779.265 1558.4V1558.4Z" fill="white"/>
<path d="M1046.18 454.197H1006.87V373.758H928.26V454.197H613.817V373.758H535.207V454.197H495.901C475.052 454.197 455.057 462.672 440.315 477.757C425.573 492.842 417.291 513.302 417.291 534.636V1097.71C417.291 1119.04 425.573 1139.5 440.315 1154.59C455.057 1169.67 475.052 1178.15 495.901 1178.15H1046.18C1067.03 1178.15 1087.02 1169.67 1101.76 1154.59C1116.51 1139.5 1124.79 1119.04 1124.79 1097.71V534.636C1124.79 513.302 1116.51 492.842 1101.76 477.757C1087.02 462.672 1067.03 454.197 1046.18 454.197V454.197ZM1046.18 1097.71H495.901V695.513H1046.18V1097.71ZM1046.18 615.075H495.901V534.636H1046.18V615.075ZM771.039 735.733C849.65 735.733 888.955 833.064 833.534 890.176C777.721 947.287 682.602 906.666 682.602 826.227C682.602 775.952 721.907 735.733 771.039 735.733ZM947.913 1052.66V1057.49H594.165V1052.66C594.165 1002.39 672.775 962.168 771.039 962.168C869.302 962.168 947.913 1002.39 947.913 1052.66Z" fill="#9E1724"/>
</svg>
