<svg width="1559" height="1559" viewBox="0 0 1559 1559" fill="none" xmlns="http://www.w3.org/2000/svg">
<path d="M779.356 127.208C650.997 127.208 525.52 165.271 418.794 236.584C312.067 307.896 228.883 409.256 179.762 527.844C130.642 646.433 117.789 776.924 142.831 902.817C167.873 1028.71 229.683 1144.35 320.447 1235.11C411.211 1325.88 526.851 1387.69 652.743 1412.73C778.636 1437.77 909.127 1424.92 1027.72 1375.8C1146.3 1326.68 1247.66 1243.49 1318.98 1136.77C1390.29 1030.04 1428.35 904.563 1428.35 776.204C1428.35 690.977 1411.56 606.584 1378.95 527.844C1346.33 449.104 1298.53 377.56 1238.27 317.295C1178 257.03 1106.46 209.225 1027.72 176.61C948.976 143.995 864.583 127.208 779.356 127.208V127.208Z" fill="white"/>
<path d="M779.327 1558.37C625.296 1558.37 474.724 1512.7 346.652 1427.12C218.58 1341.55 118.76 1219.92 59.815 1077.61C0.869912 935.303 -14.5528 778.713 15.4971 627.642C45.5471 476.571 119.72 337.803 228.636 228.886C337.553 119.97 476.321 45.7969 627.392 15.7469C778.464 -14.3031 935.053 1.11967 1077.36 60.0648C1219.67 119.01 1341.3 218.83 1426.87 346.902C1512.45 474.974 1558.12 625.546 1558.12 779.577C1558.35 861.318 1545.47 942.566 1519.96 1020.22C1519.29 1022.28 1518.21 1024.17 1516.8 1025.81C1515.39 1027.44 1513.67 1028.78 1511.74 1029.74C1509.81 1030.71 1507.71 1031.28 1505.55 1031.43C1503.4 1031.58 1501.24 1031.3 1499.19 1030.61C1497.15 1029.96 1495.26 1028.92 1493.63 1027.53C1492 1026.14 1490.66 1024.45 1489.69 1022.54C1488.73 1020.63 1488.15 1018.54 1488 1016.41C1487.85 1014.27 1488.12 1012.13 1488.81 1010.1C1513.27 935.715 1525.63 857.882 1525.41 779.577C1525.36 601.762 1461.77 429.817 1346.13 294.745C1230.48 159.674 1070.38 70.3656 894.694 42.9224C719.009 15.4792 539.299 51.7075 387.969 145.075C236.638 238.442 123.645 382.805 69.3632 552.132C15.0811 721.46 23.0822 904.61 91.9237 1068.56C160.765 1232.51 285.917 1366.47 444.813 1446.28C603.709 1526.1 785.894 1546.52 958.516 1503.86C1131.14 1461.2 1282.84 1358.27 1386.27 1213.63C1387.3 1211.45 1388.8 1209.54 1390.66 1208.01C1392.52 1206.48 1394.69 1205.39 1397.02 1204.8C1399.35 1204.2 1401.78 1204.14 1404.15 1204.59C1406.51 1205.05 1408.74 1206.02 1410.68 1207.44C1412.62 1208.86 1414.23 1210.69 1415.38 1212.8C1416.54 1214.91 1417.21 1217.24 1417.36 1219.64C1417.51 1222.04 1417.13 1224.45 1416.24 1226.68C1415.35 1228.92 1413.98 1230.93 1412.23 1232.58C1340.15 1333.2 1245.16 1415.22 1135.1 1471.87C1025.05 1528.52 903.103 1558.17 779.327 1558.37V1558.37Z" fill="white"/>
<path d="M1046.24 454.165H1006.93V373.726H928.323V454.165H613.88V373.726H535.269V454.165H495.964C475.115 454.165 455.12 462.64 440.377 477.725C425.635 492.81 417.353 513.27 417.353 534.604V1097.68C417.353 1119.01 425.635 1139.47 440.377 1154.56C455.12 1169.64 475.115 1178.12 495.964 1178.12H1046.24C1067.09 1178.12 1087.08 1169.64 1101.82 1154.56C1116.57 1139.47 1124.85 1119.01 1124.85 1097.68V534.604C1124.85 513.27 1116.57 492.81 1101.82 477.725C1087.08 462.64 1067.09 454.165 1046.24 454.165V454.165ZM1046.24 1097.68H495.964V695.482H1046.24V1097.68ZM1046.24 615.043H495.964V534.604H1046.24V615.043ZM771.101 735.701C849.712 735.701 889.017 833.032 833.597 890.144C777.783 947.255 682.664 906.634 682.664 826.195C682.664 775.921 721.969 735.701 771.101 735.701ZM947.975 1052.63V1057.46H594.227V1052.63C594.227 1002.36 672.838 962.137 771.101 962.137C869.365 962.137 947.975 1002.36 947.975 1052.63Z" fill="#BF3822"/>
</svg>
