<svg width="1558" height="1559" viewBox="0 0 1558 1559" fill="none" xmlns="http://www.w3.org/2000/svg">
<path d="M780.623 132.223C652.264 132.223 526.787 170.286 420.06 241.598C313.333 312.911 230.15 414.27 181.029 532.858C131.908 651.447 119.056 781.938 144.098 907.831C169.139 1033.72 230.95 1149.36 321.714 1240.13C412.477 1330.89 528.117 1392.7 654.01 1417.74C779.903 1442.78 910.394 1429.93 1028.98 1380.81C1147.57 1331.69 1248.93 1248.51 1320.24 1141.78C1391.56 1035.05 1429.62 909.577 1429.62 781.218C1429.62 695.991 1412.83 611.598 1380.22 532.858C1347.6 454.119 1299.8 382.574 1239.53 322.309C1179.27 262.044 1107.72 214.24 1028.98 181.624C950.243 149.009 865.85 132.223 780.623 132.223V132.223Z" fill="white"/>
<path d="M778.795 1558.19C624.764 1558.19 474.192 1512.51 346.12 1426.93C218.048 1341.36 118.228 1219.73 59.2826 1077.42C0.337441 935.116 -15.0853 778.527 14.9647 627.455C45.0146 476.384 119.188 337.616 228.104 228.7C337.02 119.783 475.788 45.6103 626.86 15.5604C777.931 -14.4896 934.521 0.933144 1076.83 59.8783C1219.13 118.823 1340.76 218.643 1426.34 346.716C1511.91 474.788 1557.59 625.36 1557.59 779.391C1557.82 861.131 1544.94 942.379 1519.43 1020.04C1518.75 1022.09 1517.68 1023.99 1516.27 1025.62C1514.86 1027.25 1513.14 1028.59 1511.21 1029.56C1509.28 1030.52 1507.17 1031.09 1505.02 1031.24C1502.87 1031.39 1500.71 1031.11 1498.66 1030.42C1496.62 1029.78 1494.73 1028.73 1493.1 1027.34C1491.47 1025.96 1490.13 1024.26 1489.16 1022.35C1488.19 1020.44 1487.62 1018.36 1487.47 1016.22C1487.31 1014.09 1487.59 1011.94 1488.28 1009.91C1512.74 935.528 1525.1 857.696 1524.88 779.391C1524.82 601.575 1461.24 429.63 1345.59 294.559C1229.95 159.488 1069.85 70.1791 894.162 42.7359C718.477 15.2927 538.767 51.5209 387.437 144.888C236.106 238.256 123.113 382.618 68.8307 551.946C14.5486 721.274 22.5497 904.424 91.3913 1068.37C160.233 1232.32 285.385 1366.28 444.281 1446.1C603.177 1525.91 785.361 1546.33 957.984 1503.67C1130.61 1461.01 1282.31 1358.08 1385.74 1213.44C1386.77 1211.27 1388.27 1209.35 1390.13 1207.82C1391.98 1206.3 1394.16 1205.2 1396.49 1204.61C1398.82 1204.02 1401.25 1203.95 1403.61 1204.41C1405.97 1204.86 1408.21 1205.83 1410.15 1207.25C1412.09 1208.67 1413.7 1210.5 1414.85 1212.61C1416.01 1214.72 1416.68 1217.06 1416.83 1219.46C1416.98 1221.86 1416.59 1224.26 1415.71 1226.5C1414.82 1228.73 1413.45 1230.74 1411.7 1232.39C1339.61 1333.01 1244.62 1415.03 1134.57 1471.68C1024.52 1528.34 902.57 1557.99 778.795 1558.19V1558.19Z" fill="white"/>
<path d="M776.053 695.295C851.007 695.295 888.484 785.99 835.642 839.207C782.424 892.425 691.729 854.573 691.729 779.619C691.729 732.772 729.206 695.295 776.053 695.295ZM944.7 1032.09C944.7 1032.37 944.476 1032.59 944.2 1032.59H607.905C607.629 1032.59 607.405 1032.37 607.405 1032.09V990.615C607.405 943.769 682.36 906.291 776.053 906.291C869.746 906.291 944.7 943.769 944.7 990.615V1032.09ZM1038.39 1069.57C1038.39 1069.84 1038.17 1070.07 1037.89 1070.07H514.212C513.936 1070.07 513.712 1069.84 513.712 1069.57V658.318C513.712 658.041 513.936 657.818 514.212 657.818H1037.89C1038.17 657.818 1038.39 658.041 1038.39 658.318V1069.57ZM926.462 395.477C926.185 395.477 925.962 395.701 925.962 395.977V469.931C925.962 470.208 925.738 470.431 925.462 470.431H626.644C626.368 470.431 626.144 470.208 626.144 469.931V395.977C626.144 395.701 625.92 395.477 625.644 395.477H551.689C551.413 395.477 551.189 395.701 551.189 395.977V469.931C551.189 470.208 550.966 470.431 550.689 470.431H513.712C493.833 470.431 474.768 478.328 460.711 492.385C446.655 506.442 438.758 525.507 438.758 545.386V1070.07C438.758 1089.95 446.655 1109.01 460.711 1123.07C474.768 1137.12 493.833 1145.02 513.712 1145.02H1038.39C1058.27 1145.02 1077.34 1137.12 1091.39 1123.07C1105.45 1109.01 1113.35 1089.95 1113.35 1070.07V545.386C1113.35 525.507 1105.45 506.442 1091.39 492.385C1077.34 478.328 1058.27 470.431 1038.39 470.431H1001.42C1001.14 470.431 1000.92 470.208 1000.92 469.931V395.977C1000.92 395.701 1000.69 395.477 1000.42 395.477H926.462Z" fill="#BF3822"/>
</svg>
