<?xml version="1.0" encoding="utf-8"?>
<!-- Generator: Adobe Illustrator 24.1.0, SVG Export Plug-In . SVG Version: 6.00 Build 0)  -->
<svg version="1.1" id="Capa_1" xmlns="http://www.w3.org/2000/svg" xmlns:xlink="http://www.w3.org/1999/xlink" x="0px" y="0px"
	 viewBox="0 0 1494.7 1494.7" style="enable-background:new 0 0 1494.7 1494.7;" xml:space="preserve">
<style type="text/css">
	.st0{fill:#9E1724;}
</style>
<g>
	<path class="st0" d="M985.4,178.7c-74.9-31-155.2-47-236.3-47c-341,0-617.4,276.4-617.4,617.4c0,341,276.4,617.4,617.4,617.4
		s617.4-276.4,617.4-617.4C1366.5,499.4,1216.1,274.3,985.4,178.7z M649.7,757.8V974H469.4V685.7H361.3l360.5-324.4l360.5,324.4
		H974.1v18c0,0-22.1-1.7-36.1,0c-22.1,2.8-72.1,18-72.1,18c-36.1,18-54.1,36-54.1,36l-18,18v-18H649.7z M970.5,1132.7
		c-109.5,0-198.3-88.8-198.3-198.3S861,736.2,970.5,736.2c109.5,0,198.3,88.8,198.3,198.3S1080,1132.7,970.5,1132.7z"/>
	<path class="st0" d="M747.4,6.5C338.2,6.5,6.5,338.2,6.5,747.3c0,409.2,331.7,740.9,740.8,740.9l0,0.1
		c238.9-0.4,463-115.7,602.1-309.9c5.2-4.9,6.4-12.6,3-18.8c-0.5-0.8-1-1.6-1.6-2.4c-5.5-6.6-15.3-7.6-21.9-2.2
		c-1.8,1.5-3.2,3.3-4.2,5.3c-133.1,186.2-347.9,296.7-576.9,296.8C356,1457.2,38.3,1139.7,38.1,747.9C38,356,355.5,38.3,747.3,38.1
		s709.6,317.4,709.8,709.2c0.2,74.5-11.5,148.5-34.8,219.3c0,0.1-0.1,0.2-0.1,0.3c-2.5,8.1,2,16.7,10,19.2c3.9,1.3,8.2,1,11.9-0.8
		c3.7-1.9,6.5-5.1,7.8-9.1c24.3-73.9,36.5-151.2,36.3-228.9C1488.2,338.2,1156.5,6.5,747.4,6.5z"/>
	<path class="st0" d="M974.8,916c-39.7-7.4-58.4-13-58.4-28.4c0-15.2,24.7-28,54.1-28c29.4,0,54.1,12.9,54.1,28h36
		c0-25.1-26.5-46.4-63.1-53.5v-30.6h-54.1V834c-36.6,7.1-63.1,28.4-63.1,53.5c0,39,47.6,48.2,85.8,55.7c39.7,7.4,58.4,13,58.4,28.4
		c0,15.2-24.7,28-54.1,28s-54.1-12.9-54.1-28h-36.1c0,25.1,26.5,46.4,63.1,53.5v30.5h54.1v-30.6c36.6-7.1,63.1-28.4,63.1-53.5
		C1060.6,932.7,1013,923.4,974.8,916z"/>
</g>
</svg>
