<?xml version="1.0" encoding="utf-8"?>
<!-- Generator: Adobe Illustrator 24.1.0, SVG Export Plug-In . SVG Version: 6.00 Build 0)  -->
<svg version="1.1" id="Capa_1" xmlns="http://www.w3.org/2000/svg" xmlns:xlink="http://www.w3.org/1999/xlink" x="0px" y="0px"
	 viewBox="0 0 1494.7 1494.7" style="enable-background:new 0 0 1494.7 1494.7;" xml:space="preserve">
<style type="text/css">
	.st0{fill:#9E1724;}
</style>
<g>
	<path class="st0" d="M996,630.7H493.5c-0.3,0-0.5,0.2-0.5,0.5v394.6c0,0.3,0.2,0.5,0.5,0.5H996c0.3,0,0.5-0.2,0.5-0.5l0-394.6
		C996.5,630.9,996.3,630.7,996,630.7z M744.1,666.7c0.2,0,0.4,0,0.7,0c71.9,0,107.9,87,57.2,138.1c-51.1,51.1-138.1,14.7-138.1-57.2
		C663.6,703.1,699.6,666.8,744.1,666.7z M906.1,990.3H583.4c-0.3,0-0.5-0.2-0.5-0.5v-39.8c0-45,71.9-80.9,161.8-80.9
		s161.8,36,161.8,80.9l0,39.8C906.6,990.1,906.4,990.3,906.1,990.3z"/>
	<path class="st0" d="M987.5,173.7c-75.6-31.3-156.6-47.4-238.3-47.4c-344,0-622.8,278.8-622.8,622.8s278.8,622.8,622.8,622.8
		c344,0,622.8-278.8,622.8-622.8C1371.9,497.2,1220.2,270.1,987.5,173.7z M1068.4,1026.3c0,39.7-32.2,71.9-71.9,71.9H493
		c-39.7,0-71.9-32.2-71.9-71.9V522.8c0,0,0,0,0,0c0-39.7,32.2-71.9,71.9-71.9h35.5c0.3,0,0.5-0.2,0.5-0.5v-70.9
		c0-0.3,0.2-0.5,0.5-0.5h70.9c0.3,0,0.5,0.2,0.5,0.5v71c0,0.3,0.2,0.5,0.5,0.5h286.7c0.3,0,0.5-0.2,0.5-0.5v-70.9
		c0-0.3,0.2-0.5,0.5-0.5l70.9-0.1c0.3,0,0.5,0.2,0.5,0.5v70.9c0,0.3,0.2,0.5,0.5,0.5h35.5c0,0,0,0,0,0c39.7,0,71.9,32.2,71.9,71.9
		V1026.3z"/>
	<path class="st0" d="M747.3,0C334.6,0,0,334.6,0,747.4s334.6,747.4,747.4,747.4l0,0.1c241-0.4,467-116.8,607.3-312.7
		c3.4-3.2,5.2-7.7,4.9-12.4c-0.1-1-0.2-1.9-0.4-2.9c-2.1-8.4-10.7-13.5-19.1-11.4c-4.5,1.2-8.3,4.3-10.3,8.5
		c-134.3,187.9-351,299.4-582,299.4c-395.3,0.1-715.8-320.2-716-715.5S352.1,32,747.4,31.9s715.8,320.2,716,715.5
		c0.2,75.1-11.6,149.8-35.1,221.2c-0.7,1.9-0.9,4-0.8,6c0.2,2.1,0.7,4.2,1.7,6c4,7.7,13.4,10.7,21.1,6.8c3.7-1.9,6.6-5.2,7.9-9.1
		c24.5-74.5,36.8-152.5,36.6-230.9c0,0,0,0,0,0C1494.7,334.6,1160.1,0,747.3,0z"/>
</g>
</svg>
