<svg xmlns="http://www.w3.org/2000/svg" viewBox="0 0 60 60"><g id="Capa_2" data-name="Capa 2"><g id="Capa_1-2" data-name="Capa 1"><path d="M30,4.87a25,25,0,1,0,25,25A25,25,0,0,0,30,4.87Z" fill="#fff"/><path d="M30,60A30,30,0,1,1,60,30a29.44,29.44,0,0,1-1.47,9.27.63.63,0,0,1-.8.4.62.62,0,0,1-.4-.79A28.17,28.17,0,0,0,58.74,30a28.73,28.73,0,1,0-5.36,16.72.63.63,0,1,1,1,.73A30.05,30.05,0,0,1,30,60Z" fill="#fff"/><path d="M45.84,19.24v0a.7.7,0,0,0-.19-.47l-.11-.1-.8-.81-.52-.52-4.14-4.14L40,13.1l-.21-.21-.35-.35H20.78a1.28,1.28,0,0,0-1.28,1.29V46.26a1.28,1.28,0,0,0,1.28,1.28H44.56a1.28,1.28,0,0,0,1.28-1.28v-25a.55.55,0,0,0-.55-.55h0a.55.55,0,0,0-.55.55V46.3a.26.26,0,0,1-.25.26H20.85a.26.26,0,0,1-.25-.26V13.9a.26.26,0,0,1,.25-.26H38.71v5.3a.66.66,0,0,0,.66.66h6.11A.36.36,0,0,0,45.84,19.24Zm-6.05-4.73,4.13,4.14H39.79Z" fill="#9e1724"/><rect x="21.24" y="20.45" width="6.49" height="6.49" fill="#9e1724"/><rect x="21.24" y="15.44" width="14.87" height="2.54" fill="#9e1724"/><path d="M43.52,25.4h-3.4V22h3.4Zm-3.09-.31h2.78V22.3H40.43Z" fill="#9e1724"/><path d="M43.52,34.53h-3.4v-3.4h3.4Zm-3.09-.31h2.78V31.44H40.43Z" fill="#9e1724"/><path d="M43.52,43.67h-3.4v-3.4h3.4Zm-3.09-.31h2.78V40.57H40.43Z" fill="#9e1724"/><rect x="21.24" y="29.59" width="6.49" height="6.49" fill="#9e1724"/><rect x="21.24" y="38.72" width="6.49" height="6.49" fill="#9e1724"/><path d="M26.83,25.9a3.72,3.72,0,0,0-.58-.85L26,24.86h0l-.15-.11-.15-.07a2.42,2.42,0,0,0-.35-.11h0l-.21-.05h0l-.15,0h0v-.31a1.23,1.23,0,0,0,.54-.74.29.29,0,0,0,.14-.26.28.28,0,0,0,0-.09,1.33,1.33,0,0,0,.08-.45,1.08,1.08,0,0,0-.45-1,1.4,1.4,0,0,0-.76-.19,1.09,1.09,0,0,0-1.21,1.16,1.33,1.33,0,0,0,.07.45.32.32,0,0,0,.14.35,1.18,1.18,0,0,0,.53.74v.34l-.09,0-.26.06h-.05l-.11,0h0a1.32,1.32,0,0,0-.3.09l-.15.07-.16.12h0l-.19.18a3.41,3.41,0,0,0-.59.85Z" fill="#fff"/><path d="M26.83,35a3.5,3.5,0,0,0-.58-.85A1.31,1.31,0,0,0,26,34h0l-.15-.11a.52.52,0,0,0-.15-.07,1.6,1.6,0,0,0-.35-.11h0l-.21-.05h0l-.15,0h0v-.3a1.26,1.26,0,0,0,.54-.74.29.29,0,0,0,.14-.26.28.28,0,0,0,0-.09,1.38,1.38,0,0,0,.08-.45,1.11,1.11,0,0,0-.45-1,1.4,1.4,0,0,0-.76-.18,1.09,1.09,0,0,0-1.21,1.16,1.41,1.41,0,0,0,.07.45.25.25,0,0,0,0,.09.28.28,0,0,0,.15.26,1.21,1.21,0,0,0,.53.74v.33l-.09,0-.26.06-.05,0-.11,0h0l-.3.1a.52.52,0,0,0-.15.07l-.16.12h0a1.42,1.42,0,0,0-.19.18,3.23,3.23,0,0,0-.59.85Z" fill="#fff"/><path d="M26.83,44.17a3.62,3.62,0,0,0-.58-.84,2.84,2.84,0,0,0-.21-.2h0a.65.65,0,0,0-.15-.1.53.53,0,0,0-.15-.08,2.47,2.47,0,0,0-.35-.1h0l-.21-.05h0l-.15,0h0v-.31a1.21,1.21,0,0,0,.54-.73.32.32,0,0,0,.14-.27.28.28,0,0,0,0-.09,1.33,1.33,0,0,0,.08-.45,1.09,1.09,0,0,0-.45-1,1.4,1.4,0,0,0-.76-.19,1.09,1.09,0,0,0-1.21,1.16,1.33,1.33,0,0,0,.07.45.28.28,0,0,0,0,.09.3.3,0,0,0,.15.27,1.16,1.16,0,0,0,.53.73v.34l-.09,0-.26.06h-.05l-.11,0h0a2.13,2.13,0,0,0-.3.09.53.53,0,0,0-.15.08l-.16.11h0s-.13.12-.19.19a3.33,3.33,0,0,0-.59.84Z" fill="#fff"/><rect x="28.63" y="20.45" width="10.29" height="1.35" rx="0.6" fill="#9e1724"/><rect x="28.63" y="23.03" width="10.29" height="1.35" rx="0.6" fill="#9e1724"/><rect x="28.63" y="25.59" width="10.29" height="1.35" rx="0.6" fill="#9e1724"/><rect x="28.63" y="29.59" width="10.29" height="1.35" rx="0.6" fill="#9e1724"/><rect x="28.63" y="32.16" width="10.29" height="1.35" rx="0.6" fill="#9e1724"/><rect x="28.63" y="34.73" width="10.29" height="1.35" rx="0.6" fill="#9e1724"/><rect x="28.63" y="38.72" width="10.29" height="1.35" rx="0.6" fill="#9e1724"/><rect x="28.63" y="41.3" width="10.29" height="1.35" rx="0.6" fill="#9e1724"/><rect x="28.63" y="43.86" width="10.29" height="1.35" rx="0.6" fill="#9e1724"/><path d="M13.86,24.69A4.15,4.15,0,0,0,9.7,28.84c0,3.12,4.16,7.72,4.16,7.72S18,32,18,28.84A4.15,4.15,0,0,0,13.86,24.69Zm-3,4.15a3,3,0,0,1,5.93,0c0,1.71-1.71,4.27-3,5.87C12.62,33.12,10.89,30.54,10.89,28.84Z" fill="#9e1724"/><circle cx="13.86" cy="28.84" r="1.48" fill="#9e1724"/></g></g></svg>