<svg width="1558" height="1559" viewBox="0 0 1558 1559" fill="none" xmlns="http://www.w3.org/2000/svg">
<path d="M778.946 127.022C650.587 127.022 525.11 165.085 418.383 236.397C311.657 307.71 228.473 409.069 179.352 527.658C130.231 646.246 117.379 776.737 142.421 902.63C167.462 1028.52 229.273 1144.16 320.037 1234.93C410.8 1325.69 526.44 1387.5 652.333 1412.54C778.226 1437.58 908.717 1424.73 1027.31 1375.61C1145.89 1326.49 1247.25 1243.31 1318.57 1136.58C1389.88 1029.85 1427.94 904.377 1427.94 776.017C1427.94 690.79 1411.15 606.397 1378.54 527.658C1345.92 448.918 1298.12 377.373 1237.86 317.108C1177.59 256.844 1106.05 209.039 1027.31 176.424C948.566 143.809 864.173 127.022 778.946 127.022V127.022Z" fill="white"/>
<path d="M778.918 1558.19C624.887 1558.19 474.315 1512.51 346.242 1426.93C218.17 1341.36 118.35 1219.73 59.4051 1077.42C0.459999 935.116 -14.9627 778.527 15.0872 627.455C45.1372 476.384 119.31 337.616 228.227 228.7C337.143 119.783 475.911 45.6103 626.982 15.5604C778.054 -14.4896 934.643 0.933144 1076.95 59.8783C1219.26 118.823 1340.89 218.643 1426.46 346.716C1512.04 474.788 1557.71 625.36 1557.71 779.391C1557.94 861.131 1545.06 942.379 1519.55 1020.04C1518.88 1022.09 1517.8 1023.99 1516.39 1025.62C1514.98 1027.25 1513.26 1028.59 1511.33 1029.56C1509.4 1030.52 1507.3 1031.09 1505.14 1031.24C1502.99 1031.39 1500.83 1031.11 1498.78 1030.42C1496.74 1029.78 1494.85 1028.73 1493.22 1027.34C1491.59 1025.96 1490.25 1024.26 1489.28 1022.35C1488.32 1020.44 1487.74 1018.36 1487.59 1016.22C1487.44 1014.09 1487.71 1011.94 1488.4 1009.91C1512.86 935.528 1525.22 857.696 1525 779.391C1524.95 601.575 1461.36 429.63 1345.72 294.559C1230.07 159.488 1069.97 70.1791 894.284 42.7359C718.599 15.2927 538.89 51.5209 387.559 144.888C236.229 238.256 123.235 382.618 68.9533 551.946C14.6712 721.274 22.6723 904.424 91.5138 1068.37C160.355 1232.32 285.507 1366.28 444.403 1446.1C603.3 1525.91 785.484 1546.33 958.106 1503.67C1130.73 1461.01 1282.43 1358.08 1385.86 1213.44C1386.89 1211.27 1388.39 1209.35 1390.25 1207.82C1392.11 1206.3 1394.28 1205.2 1396.61 1204.61C1398.94 1204.02 1401.38 1203.95 1403.74 1204.41C1406.1 1204.86 1408.33 1205.83 1410.27 1207.25C1412.21 1208.67 1413.82 1210.5 1414.97 1212.61C1416.13 1214.72 1416.8 1217.06 1416.95 1219.46C1417.1 1221.86 1416.72 1224.26 1415.83 1226.5C1414.94 1228.73 1413.57 1230.74 1411.82 1232.39C1339.74 1333.01 1244.75 1415.03 1134.69 1471.68C1024.64 1528.34 902.693 1557.99 778.918 1558.19V1558.19Z" fill="white"/>
<path d="M749.309 907.251C749.309 776.945 855.207 671.048 985.512 671.048C1028.42 671.048 1068.97 682.858 1103.61 702.935V671.048L1021.73 434.844C1013.86 412.011 991.811 395.477 965.829 395.477H532.789C506.807 395.477 484.761 412.011 476.888 434.844L395.004 671.048V985.985C395.004 1007.64 412.719 1025.35 434.371 1025.35H473.738C495.39 1025.35 513.106 1007.64 513.106 985.985V946.618H752.852C750.884 933.627 749.309 920.636 749.309 907.251ZM532.789 454.528H965.829L1024.88 631.68H473.738L532.789 454.528ZM532.789 828.517C500.114 828.517 473.738 802.14 473.738 769.466C473.738 736.791 500.114 710.415 532.789 710.415C565.464 710.415 591.84 736.791 591.84 769.466C591.84 802.14 565.464 828.517 532.789 828.517Z" fill="#BF3822"/>
<circle cx="1005.2" cy="926.934" r="216.52" fill="#BF3822"/>
<path d="M906.775 972.865H946.142C946.142 989.399 973.109 1003.48 1005.19 1003.48C1037.28 1003.48 1064.24 989.399 1064.24 972.865C1064.24 956.025 1043.77 949.901 1000.47 941.787C958.74 933.673 906.775 923.569 906.775 881.008C906.775 853.604 935.71 830.334 975.668 822.526V789.151H1034.72V822.526C1074.68 830.334 1103.61 853.604 1103.61 881.008H1064.24C1064.24 864.474 1037.28 850.389 1005.19 850.389C973.109 850.389 946.142 864.474 946.142 881.008C946.142 897.849 966.613 903.972 1009.92 912.086C1051.65 920.201 1103.61 930.305 1103.61 972.865C1103.61 1000.27 1074.68 1023.54 1034.72 1031.35V1064.72H975.668V1031.35C935.71 1023.54 906.775 1000.27 906.775 972.865Z" fill="white"/>
</svg>
