<?xml version="1.0" encoding="utf-8"?>
<!-- Generator: Adobe Illustrator 24.1.0, SVG Export Plug-In . SVG Version: 6.00 Build 0)  -->
<svg version="1.1" id="Capa_1" xmlns="http://www.w3.org/2000/svg" xmlns:xlink="http://www.w3.org/1999/xlink" x="0px" y="0px"
	 viewBox="0 0 66 66" style="enable-background:new 0 0 66 66;" xml:space="preserve">
<style type="text/css">
	.st0{fill:#BF3822;}
	.st1{fill:#FFFFFF;}
</style>
<g>
	<path class="st0" d="M43,28.3H22c-0.3,0-0.5,0.2-0.5,0.5V45c0,0.3,0.2,0.5,0.5,0.5h21c0.3,0,0.5-0.2,0.5-0.5V28.8
		C43.5,28.5,43.2,28.3,43,28.3z M32.5,29.8c3.1,0,4.7,3.8,2.5,6c-2.2,2.2-6,0.6-6-2.5C29,31.4,30.5,29.8,32.5,29.8z M39.5,43.4
		c0,0.3-0.2,0.5-0.5,0.5H25.9c-0.3,0-0.5-0.2-0.5-0.5v-1.3c0-2,3.1-3.5,7.1-3.5s7.1,1.6,7.1,3.5V43.4z"/>
	<path class="st0" d="M43.1,8.3C39.8,7,36.3,6.2,32.7,6.2c-5.4,0-10.6,1.6-15.1,4.6c-4.5,3-8,7.2-10,12.2C5.5,28,5,33.4,6,38.7
		c1,5.3,3.6,10.1,7.4,13.9c3.8,3.8,8.6,6.4,13.9,7.4c5.3,1,10.7,0.5,15.7-1.5c5-2.1,9.2-5.5,12.2-10c3-4.5,4.6-9.7,4.6-15.1
		c0-3.6-0.7-7.1-2.1-10.4c-1.4-3.3-3.4-6.3-5.9-8.8S46.4,9.7,43.1,8.3z M46.6,45.5c0,0.8-0.3,1.6-0.9,2.2c-0.6,0.6-1.4,0.9-2.2,0.9
		h-22c-0.8,0-1.6-0.3-2.2-0.9c-0.6-0.6-0.9-1.4-0.9-2.2v-22c0-0.8,0.3-1.6,0.9-2.2s1.4-0.9,2.2-0.9h1.1c0.3,0,0.5-0.2,0.5-0.5v-2.1
		c0-0.3,0.2-0.5,0.5-0.5h2.1c0.3,0,0.5,0.2,0.5,0.5v2.1c0,0.3,0.2,0.5,0.5,0.5h11.6c0.3,0,0.5-0.2,0.5-0.5v-2.1
		c0-0.3,0.2-0.5,0.5-0.5h2.1c0.3,0,0.5,0.2,0.5,0.5v2.1c0,0.3,0.2,0.5,0.5,0.5h1.1c0.8,0,1.6,0.3,2.2,0.9c0.6,0.6,0.9,1.4,0.9,2.2
		V45.5z"/>
	<path class="st0" d="M59.7,15.2c-3.6-5.4-8.7-9.5-14.6-12c-6-2.5-12.5-3.1-18.8-1.9c-6.3,1.3-12.1,4.4-16.7,8.9
		C5,14.8,1.9,20.7,0.6,27C-0.6,33.3,0,39.9,2.5,45.8s6.6,11,12,14.6c5.4,3.6,11.7,5.5,18.1,5.5c5.2,0,10.3-1.2,14.9-3.6
		c4.6-2.4,8.6-5.8,11.6-10c0.1-0.1,0.1-0.2,0.2-0.2c0-0.1,0.1-0.2,0-0.3c0-0.1,0-0.2-0.1-0.3c0-0.1-0.1-0.2-0.2-0.2
		c-0.1-0.1-0.2-0.1-0.3-0.1c-0.1,0-0.2,0-0.3,0c-0.1,0-0.2,0.1-0.3,0.1c-0.1,0.1-0.1,0.1-0.2,0.2c-4.3,6.1-10.7,10.4-17.9,12.2
		c-7.2,1.8-14.9,0.9-21.5-2.4c-6.7-3.3-11.9-8.9-14.8-15.8c-2.9-6.9-3.2-14.5-0.9-21.6c2.3-7.1,7-13.1,13.3-17
		c6.3-3.9,13.9-5.4,21.2-4.3C44.8,3.7,51.5,7.4,56.3,13s7.5,12.9,7.5,20.3c0,3.3-0.5,6.5-1.5,9.7c0,0.1,0,0.2,0,0.3
		c0,0.1,0,0.2,0.1,0.3c0,0.1,0.1,0.2,0.2,0.2c0.1,0.1,0.1,0.1,0.2,0.1c0.1,0,0.2,0,0.3,0c0.1,0,0.2,0,0.3-0.1c0.1,0,0.2-0.1,0.2-0.2
		c0.1-0.1,0.1-0.1,0.1-0.2c1.1-3.3,1.6-6.7,1.6-10.1C65.2,26.9,63.3,20.6,59.7,15.2z"/>
	<path class="st1" d="M32.5,38.7c-3.9,0-7.1,1.6-7.1,3.5v1.3c0,0.3,0.2,0.5,0.5,0.5H39c0.3,0,0.5-0.2,0.5-0.5v-1.3
		C39.5,40.2,36.4,38.7,32.5,38.7z"/>
	<path class="st1" d="M43.5,20.4h-1.1c-0.3,0-0.5-0.2-0.5-0.5v-2.1c0-0.3-0.2-0.5-0.5-0.5h-2.1c-0.3,0-0.5,0.2-0.5,0.5v2.1
		c0,0.3-0.2,0.5-0.5,0.5H26.7c-0.3,0-0.5-0.2-0.5-0.5v-2.1c0-0.3-0.2-0.5-0.5-0.5h-2.1c-0.3,0-0.5,0.2-0.5,0.5v2.1
		c0,0.3-0.2,0.5-0.5,0.5h-1.1c-0.8,0-1.6,0.3-2.2,0.9s-0.9,1.4-0.9,2.2v22c0,0.8,0.3,1.6,0.9,2.2c0.6,0.6,1.4,0.9,2.2,0.9h22
		c0.8,0,1.6-0.3,2.2-0.9c0.6-0.6,0.9-1.4,0.9-2.2v-22c0-0.8-0.3-1.6-0.9-2.2C45.1,20.7,44.3,20.4,43.5,20.4z M43.5,45
		c0,0.3-0.2,0.5-0.5,0.5H22c-0.3,0-0.5-0.2-0.5-0.5V28.8c0-0.3,0.2-0.5,0.5-0.5h21c0.3,0,0.5,0.2,0.5,0.5V45z"/>
	<path class="st1" d="M35,35.8c2.2-2.2,0.6-6-2.5-6c-2,0-3.5,1.6-3.5,3.5C29,36.5,32.8,38.1,35,35.8z"/>
</g>
</svg>
