<?xml version="1.0" encoding="utf-8"?>
<!-- Generator: Adobe Illustrator 24.1.0, SVG Export Plug-In . SVG Version: 6.00 Build 0)  -->
<svg version="1.1" id="Capa_1" xmlns="http://www.w3.org/2000/svg" xmlns:xlink="http://www.w3.org/1999/xlink" x="0px" y="0px"
	 viewBox="0 0 1558 1559" style="enable-background:new 0 0 1558 1559;" xml:space="preserve">
<style type="text/css">
	.st0{fill:none;}
	.st1{fill:#FFFFFF;}
	.st2{fill:#BF3822;}
</style>
<g>
	<path class="st0" d="M1021.5,914.4c1.8,0.4,3.5,0.7,5.3,1.1C1025.1,915.1,1023.3,914.7,1021.5,914.4z"/>
	<path class="st0" d="M502.1,820c-4.1-2.5-7.8-5.4-11.1-8.7C494.3,814.6,498.1,817.5,502.1,820z"/>
	<path class="st0" d="M1062.2,925.2c1.5,0.5,2.9,1.1,4.3,1.7C1065.1,926.3,1063.6,925.7,1062.2,925.2z"/>
	<path class="st0" d="M985.5,671.1L985.5,671.1c-130.3,0-236.2,105.9-236.2,236.2c0,3.3,0.1,6.6,0.3,9.9c-0.2-3.3-0.3-6.6-0.3-9.9
		C749.3,777,855.2,671.1,985.5,671.1z"/>
	<path class="st0" d="M1074.2,930.4c5.4,2.8,10.4,6,14.6,9.7C1084.5,936.4,1079.6,933.2,1074.2,930.4z"/>
	<path class="st0" d="M1042.1,678.1c-1.3-0.3-2.6-0.6-3.9-0.9C1039.5,677.4,1040.8,677.7,1042.1,678.1z"/>
	<path class="st0" d="M1021.7,434.8l81.9,236.2v32c0,0,0,0,0,0v-32L1021.7,434.8c-7.9-22.8-29.9-39.4-55.9-39.4h0
		C991.8,395.4,1013.8,412,1021.7,434.8z"/>
	<path class="st0" d="M1051.3,921.5c1.4,0.4,2.7,0.8,4,1.3C1054,922.4,1052.7,922,1051.3,921.5z"/>
	<path class="st0" d="M1033.5,916.9c1.2,0.3,2.4,0.6,3.6,0.8C1035.9,917.5,1034.7,917.2,1033.5,916.9z"/>
	<path class="st0" d="M473.7,769.4c0,3.1,0.2,6.1,0.7,9C473.9,775.5,473.7,772.5,473.7,769.4L473.7,769.4z"/>
	<path class="st0" d="M491,811.2c-6-6-10.7-13.3-13.7-21.5C480.3,797.9,485,805.2,491,811.2z"/>
	<path class="st0" d="M475.6,784.2c-0.5-1.9-0.9-3.8-1.2-5.8C474.7,780.4,475.1,782.3,475.6,784.2z"/>
	<path class="st0" d="M946.2,881c0,4.7,1.6,8.6,4.9,11.9C947.8,889.6,946.2,885.7,946.2,881c0-16.5,26.9-30.6,59-30.6
		c16,0,30.7,3.5,41.5,9.1c-10.8-5.6-25.5-9.1-41.5-9.1C973.1,850.4,946.2,864.5,946.2,881z"/>
	<path class="st0" d="M1039.2,918.3c0.7,0.2,1.3,0.3,2,0.5C1040.6,918.6,1039.9,918.4,1039.2,918.3z"/>
	<path class="st0" d="M477.3,789.7c-0.7-1.8-1.2-3.7-1.7-5.6C476,786.1,476.6,787.9,477.3,789.7z"/>
	<path class="st0" d="M1070.9,928.8c1.1,0.5,2.2,1,3.2,1.6C1073.1,929.9,1072,929.3,1070.9,928.8z"/>
	<path class="st0" d="M494.2,1019.7c-1.6,1-3.3,1.9-5.1,2.6C490.9,1021.5,492.6,1020.7,494.2,1019.7z"/>
	<path class="st0" d="M498.8,1016.4c-1,0.8-2,1.6-3,2.3C496.9,1017.9,497.9,1017.2,498.8,1016.4z"/>
	<path class="st0" d="M942,1019.9c9.8,5.1,21.2,9.1,33.7,11.5v0C963.2,1028.9,951.8,1025,942,1019.9z"/>
	<path class="st0" d="M532.8,828.5c-11.2,0-21.7-3.1-30.7-8.5C511.1,825.4,521.6,828.5,532.8,828.5c32.7,0,59-26.4,59.1-59.1v0
		C591.8,802.1,565.5,828.5,532.8,828.5z"/>
	<path class="st0" d="M483.6,1024.2c-1.3,0.3-2.5,0.6-3.8,0.8C481.1,1024.7,482.4,1024.5,483.6,1024.2z"/>
	<path class="st0" d="M1089.3,940.6c8.9,8,14.4,18.5,14.4,32.3c0,27.4-28.9,50.7-68.9,58.5v33.4h-59.1v0h59.1v-33.4
		c40-7.8,68.9-31.1,68.9-58.5C1103.7,959,1098.2,948.6,1089.3,940.6z"/>
	<path class="st0" d="M473.8,1025.4c1.4,0,2.7-0.1,4-0.2C476.5,1025.3,475.2,1025.4,473.8,1025.4L473.8,1025.4z"/>
	<path class="st0" d="M1059.9,683.2c-0.8-0.3-1.7-0.6-2.5-0.8C1058.2,682.7,1059.1,683,1059.9,683.2z"/>
	<polygon class="st0" points="1034.7,822.5 1034.7,789.1 1034.7,789.1 1034.7,822.5 	"/>
	<path class="st0" d="M1103.6,881h-39.4v0L1103.6,881c0-19.7-14.9-37.3-38.2-48.5C1088.7,843.7,1103.6,861.3,1103.6,881z"/>
	<path class="st0" d="M963.7,994.4c-10.8-5.6-17.5-13.2-17.5-21.5h0C946.2,981.2,953,988.8,963.7,994.4z"/>
	<path class="st0" d="M1080.4,691.2c-2.7-1.2-5.4-2.3-8.1-3.4C1075,688.9,1077.7,690,1080.4,691.2z"/>
	<path class="st0" d="M1049.3,680c-1.1-0.3-2.2-0.6-3.3-0.9C1047,679.3,1048.2,679.7,1049.3,680z"/>
	<path class="st0" d="M936.2,923.5c18.4,9.4,42.7,14.1,64.2,18.3c23,4.3,39.6,8.1,50,13.2c-10.5-5.1-27-8.9-50-13.2
		C978.9,937.6,954.7,932.9,936.2,923.5z"/>
	<path class="st1" d="M532.8,710.3c-11.2,0-21.7,3.1-30.7,8.5c-11.4,6.9-20.2,17.5-24.8,30.2c-0.7,1.8-1.2,3.7-1.7,5.6
		c-0.5,1.9-0.9,3.8-1.2,5.8c-0.4,2.9-0.7,5.9-0.7,9s0.2,6.1,0.7,9c0.3,2,0.7,3.9,1.2,5.8c0.5,1.9,1.1,3.7,1.7,5.6
		c3,8.2,7.7,15.5,13.7,21.5c3.3,3.3,7.1,6.3,11.1,8.7c8.9,5.4,19.4,8.5,30.7,8.5c32.7,0,59-26.4,59.1-59.1
		C591.9,736.7,565.5,710.3,532.8,710.3z"/>
	<path class="st1" d="M1027.4,176.4C948.6,143.8,864.2,127,778.9,127c-128.4,0-253.8,38.1-360.6,109.4
		c-106.7,71.3-189.9,172.7-239,291.3c-49.1,118.6-62,249.1-36.9,375c25,125.9,86.9,241.5,177.6,332.3
		c90.8,90.8,206.4,152.6,332.3,177.6s256.4,12.2,375-36.9s219.9-132.3,291.3-239C1389.9,1030,1428,904.5,1428,776.1
		c0-85.2-16.8-169.6-49.4-248.4c-32.6-78.7-80.4-150.3-140.7-210.6C1177.6,256.8,1106.1,209,1027.4,176.4z M749.6,917.2
		c0.5,9.9,1.8,19.6,3.3,29.4H513.2V986c0,12.2-5.6,23.1-14.4,30.4c-1,0.8-2,1.6-3,2.3c-0.5,0.4-1.1,0.7-1.6,1
		c-1.6,1-3.3,1.9-5.1,2.6c-1.8,0.7-3.6,1.4-5.5,1.9c-1.3,0.3-2.5,0.6-3.8,0.8c-0.7,0.1-1.3,0.2-2,0.3c-1.3,0.1-2.7,0.2-4,0.2h0
		h-39.4c-4.7,0-9.3-0.8-13.5-2.4c-1.2-0.4-2.4-0.9-3.5-1.5s-2.3-1.2-3.3-1.8s-2.1-1.4-3.1-2.1c-3.5-2.7-6.6-5.9-9.1-9.6
		c-4.3-6.3-6.7-13.9-6.7-22V671l81.9-236.2c7.9-22.9,29.9-39.4,55.9-39.4h0h433h0c26,0,48,16.6,55.9,39.4l81.9,236.2v32c0,0,0,0,0,0
		v0c-7.5-4.3-15.2-8.3-23.2-11.8c-2.7-1.2-5.4-2.3-8.1-3.4c-4.1-1.6-8.2-3.1-12.4-4.5c-0.8-0.3-1.7-0.6-2.5-0.8
		c-2.7-0.9-5.4-1.7-8.1-2.5c-1.1-0.3-2.2-0.6-3.3-0.9c-1.3-0.3-2.6-0.7-3.9-1c-1.3-0.3-2.6-0.6-3.9-0.9c-17-3.9-34.6-6-52.6-6
		c-130.3,0-236.2,105.9-236.2,236.2C749.3,910.6,749.4,913.9,749.6,917.2z M1005.2,1143.4c-119.6,0-216.5-96.9-216.5-216.5
		s96.9-216.5,216.5-216.5s216.5,96.9,216.5,216.5S1124.8,1143.4,1005.2,1143.4z"/>
	<polygon class="st1" points="965.8,454.5 532.8,454.5 473.7,631.7 1024.9,631.7 	"/>
	<path class="st1" d="M1426.5,346.7c-85.6-128-207.2-227.9-349.5-286.8S778.1-14.4,627,15.6S337.1,119.8,228.2,228.7
		C119.3,337.7,45.1,476.4,15.1,627.5c-30.1,151-14.6,307.6,44.3,449.9c58.9,142.3,158.7,263.9,286.8,349.5s278.7,131.3,432.7,131.3
		c123.8-0.2,245.7-29.9,356-86.6c110-56.7,205-138.7,277.1-239.3c1.7-1.7,3.1-3.7,4-5.9s1.3-4.6,1.1-7c-0.2-2.3-0.8-4.7-2-6.8
		s-2.8-4-4.7-5.4s-4.1-2.4-6.5-2.8c-2.3-0.5-4.7-0.4-7.1,0.2s-4.5,1.7-6.4,3.2s-3.4,3.4-4.4,5.6
		c-103.5,144.6-255.2,247.5-427.8,290.2c-172.6,42.6-354.8,22.2-513.7-57.6c-158.9-79.8-284.1-213.8-352.9-377.7
		C22.7,904.4,14.7,721.2,69,551.9c54.2-169.3,167.2-313.6,318.6-407c151.3-93.4,331-129.6,506.7-102.2
		c175.7,27.5,335.8,116.8,451.3,251.9c115.7,135,179.2,307,179.3,484.8c0.2,78.3-12.1,156.1-36.6,230.5c-0.7,2-1,4.2-0.8,6.3
		s0.7,4.2,1.7,6.1c0.9,1.9,2.3,3.6,3.9,5c1.7,1.4,3.6,2.5,5.6,3.1c2.1,0.7,4.2,1,6.4,0.8s4.3-0.7,6.2-1.7c2-0.9,3.7-2.3,5.1-3.9
		s2.5-3.5,3.2-5.6c25.6-77.6,38.4-158.9,38.2-240.6C1557.8,625.3,1512.1,474.8,1426.5,346.7z"/>
	<path class="st2" d="M985.5,671.1L985.5,671.1L985.5,671.1c18,0,35.7,2.1,52.6,6c1.3,0.3,2.6,0.6,3.9,0.9c1.3,0.3,2.6,0.7,3.9,1
		c1.1,0.3,2.2,0.6,3.3,0.9c2.7,0.8,5.4,1.6,8.1,2.5c0.8,0.3,1.7,0.5,2.5,0.8c4.2,1.4,8.3,2.9,12.4,4.5c2.7,1.1,5.4,2.2,8.1,3.4
		c8,3.5,15.7,7.5,23.2,11.8v-32l-81.9-236.2c-7.9-22.8-29.9-39.4-55.9-39.4h-433c-26,0-48,16.5-55.9,39.4L395,671v315
		c0,8.1,2.5,15.7,6.7,22c2.5,3.7,5.6,6.9,9.1,9.6c1,0.8,2.1,1.5,3.1,2.1s2.2,1.3,3.3,1.8s2.3,1.1,3.5,1.5c4.2,1.6,8.8,2.4,13.5,2.4
		h39.4c1.4,0,2.7-0.1,4-0.2c0.7-0.1,1.3-0.2,2-0.3c1.3-0.2,2.6-0.5,3.8-0.8c1.9-0.5,3.7-1.1,5.5-1.9c1.8-0.7,3.5-1.6,5.1-2.6
		c0.5-0.3,1.1-0.7,1.6-1c1-0.7,2.1-1.5,3-2.3c8.8-7.2,14.4-18.2,14.4-30.4v-39.4h239.7c-1.5-9.8-2.8-19.5-3.3-29.4
		c-0.2-3.3-0.3-6.6-0.3-9.9C749.3,777,855.2,671.1,985.5,671.1z M532.8,454.5h433l59.1,177.2H473.7L532.8,454.5z M591.9,769.4
		c-0.1,32.7-26.4,59.1-59.1,59.1c-11.2,0-21.7-3.1-30.7-8.5c-4.1-2.5-7.8-5.4-11.1-8.7c-6-6-10.7-13.3-13.7-21.5
		c-0.7-1.8-1.2-3.7-1.7-5.6c-0.5-1.9-0.9-3.8-1.2-5.8c-0.4-2.9-0.7-5.9-0.7-9v0l0,0c0-3.1,0.2-6.1,0.7-9c0.3-2,0.7-3.9,1.2-5.8
		c0.5-1.9,1.1-3.7,1.7-5.6c4.6-12.7,13.5-23.3,24.8-30.2c8.9-5.4,19.4-8.5,30.7-8.5C565.5,710.3,591.9,736.7,591.9,769.4
		L591.9,769.4L591.9,769.4z"/>
	<path class="st2" d="M474.4,760.4c0.3-2,0.7-3.9,1.2-5.8C475.1,756.5,474.7,758.4,474.4,760.4z"/>
	<path class="st2" d="M473.7,769.4L473.7,769.4c0-3.1,0.2-6.1,0.7-9C473.9,763.3,473.7,766.3,473.7,769.4z"/>
	<path class="st2" d="M502.1,718.8c-11.4,6.9-20.2,17.5-24.8,30.2C481.9,736.4,490.8,725.7,502.1,718.8z"/>
	<path class="st2" d="M532.8,710.3c-11.2,0-21.7,3.1-30.7,8.5C511.1,713.4,521.6,710.3,532.8,710.3c32.7,0,59.1,26.4,59.1,59.1l0,0
		C591.9,736.7,565.5,710.3,532.8,710.3z"/>
	<path class="st2" d="M475.6,754.6c0.5-1.9,1.1-3.7,1.7-5.6C476.6,750.9,476,752.7,475.6,754.6z"/>
	<path class="st2" d="M395,671l81.9-236.2c7.9-22.9,29.9-39.4,55.9-39.4h0c-26,0-48,16.5-55.9,39.4L395,671l0,315
		c0,8.1,2.5,15.7,6.7,22c-4.3-6.3-6.7-13.9-6.7-22V671z"/>
	<path class="st2" d="M420.9,1023c-1.2-0.4-2.4-0.9-3.5-1.5C418.5,1022.1,419.7,1022.6,420.9,1023z"/>
	<path class="st2" d="M401.7,1008c2.5,3.7,5.6,6.9,9.1,9.6C407.3,1014.9,404.2,1011.7,401.7,1008z"/>
	<path class="st2" d="M414,1019.7c-1.1-0.7-2.1-1.4-3.1-2.1C411.9,1018.3,412.9,1019,414,1019.7z"/>
	<path class="st2" d="M985.5,671.1c18,0,35.7,2.1,52.6,6C1021.2,673.2,1003.5,671.1,985.5,671.1L985.5,671.1z"/>
	<path class="st2" d="M1072.3,687.8c-4.1-1.6-8.2-3.1-12.4-4.5C1064.1,684.6,1068.2,686.2,1072.3,687.8z"/>
	<path class="st2" d="M1103.6,703L1103.6,703c-7.5-4.3-15.2-8.3-23.2-11.8C1088.4,694.7,1096.1,698.7,1103.6,703z"/>
	<path class="st2" d="M1057.4,682.4c-2.7-0.9-5.4-1.7-8.1-2.5C1052,680.7,1054.7,681.6,1057.4,682.4z"/>
	<path class="st2" d="M1045.9,679c-1.3-0.3-2.6-0.7-3.9-1C1043.4,678.4,1044.6,678.7,1045.9,679z"/>
	<path class="st2" d="M1005.2,710.4c-119.6,0-216.5,96.9-216.5,216.5s96.9,216.5,216.5,216.5s216.5-96.9,216.5-216.5
		S1124.8,710.4,1005.2,710.4z M1034.8,1031.4v33.4h-59.1v0h0v-33.4c-12.5-2.5-23.9-6.4-33.7-11.5c-21.5-11.3-35.2-28.1-35.2-47h39.4
		v0h0c0,8.3,6.8,15.9,17.5,21.5s25.5,9.1,41.5,9.1c32.1,0,59-14.1,59-30.6c0-7.9-4.5-13.4-13.8-17.9c-10.5-5.1-27-8.9-50-13.2
		c-21.5-4.2-45.7-8.9-64.2-18.3c-17.3-8.9-29.5-21.9-29.5-42.5c0-27.4,28.9-50.7,68.9-58.5v-33.4h59.1v0h0v33.4
		c11.2,2.2,21.6,5.6,30.7,10c23.3,11.2,38.2,28.8,38.2,48.5h-39.4v0h0c0-8.3-6.8-15.9-17.5-21.5s-25.5-9.1-41.5-9.1
		c-32.1,0-59,14.1-59,30.6c0,4.7,1.6,8.6,4.9,11.9c8.4,8.5,27.8,13.3,58.9,19.2c3.8,0.7,7.6,1.5,11.5,2.3c1.8,0.4,3.5,0.7,5.3,1.1
		c2.2,0.5,4.5,1,6.7,1.5c1.2,0.3,2.4,0.6,3.6,0.8c0.7,0.2,1.4,0.3,2.1,0.5c0.7,0.2,1.3,0.3,2,0.5c3.4,0.9,6.8,1.8,10.1,2.8
		c1.4,0.4,2.7,0.8,4,1.3c2.3,0.7,4.6,1.5,6.8,2.4c1.5,0.5,2.9,1.1,4.3,1.7c1.5,0.6,3,1.3,4.4,2c1.1,0.5,2.2,1,3.2,1.6c0,0,0,0,0,0
		c5.4,2.8,10.4,6,14.6,9.7c0.2,0.2,0.4,0.3,0.5,0.5c8.9,8,14.4,18.5,14.4,32.3C1103.7,1000.3,1074.8,1023.6,1034.8,1031.4z"/>
	<path class="st1" d="M1034.8,1031.4c40-7.8,68.9-31.1,68.9-58.5c0-13.9-5.5-24.3-14.4-32.3c-0.2-0.2-0.4-0.3-0.5-0.5
		c-4.2-3.7-9.1-6.9-14.6-9.7c0,0,0,0,0,0c-1.1-0.5-2.1-1.1-3.2-1.6c-1.5-0.7-2.9-1.3-4.4-2c-1.4-0.6-2.8-1.1-4.3-1.7
		c-2.2-0.8-4.5-1.6-6.8-2.4c-1.3-0.4-2.7-0.8-4-1.3c-3.3-1-6.7-1.9-10.1-2.8c-0.7-0.2-1.3-0.3-2-0.5c-0.7-0.2-1.4-0.3-2.1-0.5
		c-1.2-0.3-2.4-0.6-3.6-0.8c-2.2-0.5-4.5-1-6.7-1.5c-1.8-0.4-3.6-0.7-5.3-1.1c-3.9-0.8-7.8-1.5-11.5-2.3
		c-31.1-5.8-50.5-10.7-58.9-19.2c-3.3-3.3-4.9-7.2-4.9-11.9c0-16.5,26.9-30.6,59-30.6c16,0,30.7,3.5,41.5,9.1s17.5,13.2,17.5,21.5
		h39.4c0-19.7-14.9-37.3-38.2-48.5c-9.1-4.4-19.5-7.8-30.7-10v0c0,0,0,0,0,0v-33.4h-59.1v33.4c-40,7.8-68.9,31.1-68.9,58.5
		c0,20.6,12.2,33.6,29.5,42.5c18.4,9.4,42.7,14.1,64.2,18.3c23,4.3,39.6,8.1,50,13.2c9.2,4.5,13.8,10.1,13.8,17.9
		c0,16.5-26.9,30.6-59,30.6c-16,0-30.8-3.5-41.5-9.1c-10.8-5.6-17.5-13.2-17.5-21.5h-39.4c0,18.8,13.7,35.7,35.2,47
		c9.8,5.1,21.2,9.1,33.7,11.5v0c0,0,0,0,0,0v33.4h59.1V1031.4z"/>
	<path class="st1" d="M906.8,972.9h39.4v0L906.8,972.9c0,18.8,13.7,35.7,35.2,47C920.5,1008.6,906.8,991.7,906.8,972.9z"/>
	<path class="st1" d="M906.7,881c0-27.4,28.9-50.7,68.9-58.5v-33.4h59.1v0h-59.1v33.4C935.6,830.3,906.7,853.6,906.7,881
		c0,20.6,12.2,33.6,29.5,42.5C918.9,914.6,906.7,901.6,906.7,881z"/>
	<path class="st1" d="M1064.2,972.9c0-7.9-4.5-13.4-13.8-17.9C1059.7,959.5,1064.2,965,1064.2,972.9c0,16.5-26.9,30.6-59,30.6
		c-16,0-30.7-3.5-41.5-9.1c10.8,5.6,25.5,9.1,41.5,9.1C1037.3,1003.5,1064.2,989.4,1064.2,972.9z"/>
	<polygon class="st1" points="975.7,1031.4 975.7,1064.8 975.7,1064.8 975.7,1031.4 	"/>
	<path class="st1" d="M1066.5,926.9c1.5,0.6,3,1.3,4.4,2C1069.5,928.1,1068,927.5,1066.5,926.9z"/>
	<path class="st1" d="M1055.4,922.8c2.3,0.7,4.6,1.5,6.8,2.4C1060,924.3,1057.7,923.6,1055.4,922.8z"/>
	<path class="st1" d="M1041.2,918.8c3.4,0.9,6.8,1.8,10.1,2.8C1048,920.6,1044.6,919.6,1041.2,918.8z"/>
	<path class="st1" d="M1065.4,832.5c-9.1-4.4-19.5-7.8-30.7-10v0C1046,824.7,1056.3,828.1,1065.4,832.5z"/>
	<path class="st1" d="M1037.1,917.8c0.7,0.2,1.4,0.3,2.1,0.5C1038.5,918.1,1037.8,917.9,1037.1,917.8z"/>
	<path class="st1" d="M1026.9,915.5c2.2,0.5,4.5,1,6.7,1.5C1031.3,916.4,1029.1,915.9,1026.9,915.5z"/>
	<path class="st1" d="M1010,912.1c3.8,0.7,7.6,1.5,11.5,2.3C1017.6,913.6,1013.8,912.8,1010,912.1c-31.1-5.8-50.5-10.7-58.9-19.2
		C959.5,901.4,978.9,906.3,1010,912.1z"/>
	<path class="st1" d="M1074.2,930.4C1074.2,930.4,1074.2,930.4,1074.2,930.4C1074.2,930.4,1074.2,930.4,1074.2,930.4z"/>
	<path class="st1" d="M1046.7,859.5c10.8,5.6,17.5,13.2,17.5,21.5h0C1064.2,872.8,1057.4,865.1,1046.7,859.5z"/>
	<path class="st1" d="M1088.8,940.1c0.2,0.2,0.4,0.3,0.5,0.5C1089.1,940.4,1088.9,940.2,1088.8,940.1z"/>
</g>
</svg>
