<?xml version="1.0" encoding="utf-8"?>
<!-- Generator: Adobe Illustrator 24.1.0, SVG Export Plug-In . SVG Version: 6.00 Build 0)  -->
<svg version="1.1" id="Capa_1" xmlns="http://www.w3.org/2000/svg" xmlns:xlink="http://www.w3.org/1999/xlink" x="0px" y="0px"
	 viewBox="0 0 67 67" style="enable-background:new 0 0 67 67;" xml:space="preserve">
<style type="text/css">
	.st0{fill:#9E1724;}
	.st1{fill:#FFFFFF;}
</style>
<g>
	<path class="st0" d="M43.7,7.7c-3.3-1.4-6.9-2.1-10.6-2.1c-5.5,0-10.8,1.6-15.3,4.7c-4.5,3-8.1,7.3-10.2,12.4
		c-2.1,5-2.6,10.6-1.6,15.9s3.7,10.3,7.6,14.1c3.9,3.9,8.8,6.5,14.1,7.6c5.4,1.1,10.9,0.5,15.9-1.6c5-2.1,9.4-5.6,12.4-10.2
		c3-4.5,4.7-9.9,4.7-15.3c0-3.6-0.7-7.2-2.1-10.6c-1.4-3.3-3.4-6.4-6-9C50.1,11.1,47.1,9.1,43.7,7.7z M28.7,43.2h-8.1V30.4h-4.8
		L32,15.9l16.1,14.5h-4.8v0.8c0,0-1-0.1-1.6,0c-1,0.1-3.2,0.8-3.2,0.8c-1.6,0.8-2.4,1.6-2.4,1.6l-0.8,0.8v-0.8h-6.4V43.2z
		 M42.4,49.7c-4.9,0-8.9-4-8.9-8.9s4-8.9,8.9-8.9s8.9,4,8.9,8.9S47.3,49.7,42.4,49.7z"/>
	<path class="st0" d="M60.6,14.7C57,9.3,51.8,5,45.8,2.5C39.7,0,33.1-0.6,26.7,0.6s-12.3,4.4-17,9.1c-4.6,4.6-7.8,10.5-9.1,17
		C-0.6,33.1,0,39.7,2.5,45.8C5,51.8,9.3,57,14.7,60.6c5.4,3.6,11.8,5.6,18.4,5.6c5.3,0,10.4-1.3,15.1-3.7c4.7-2.4,8.7-5.9,11.8-10.2
		c0.1-0.1,0.1-0.2,0.2-0.3c0-0.1,0.1-0.2,0-0.3c0-0.1,0-0.2-0.1-0.3c0-0.1-0.1-0.2-0.2-0.2c-0.1-0.1-0.2-0.1-0.3-0.1
		c-0.1,0-0.2,0-0.3,0c-0.1,0-0.2,0.1-0.3,0.1c-0.1,0.1-0.1,0.1-0.2,0.2c-4.4,6.1-10.8,10.5-18.2,12.3c-7.3,1.8-15.1,0.9-21.8-2.4
		c-6.8-3.4-12.1-9.1-15-16.1c-2.9-7-3.3-14.8-1-22C5.2,16.2,10,10.1,16.5,6.1c6.4-4,14.1-5.5,21.5-4.3c7.5,1.2,14.3,5,19.2,10.7
		c4.9,5.7,7.6,13.1,7.6,20.6c0,3.3-0.5,6.6-1.6,9.8c0,0.1,0,0.2,0,0.3c0,0.1,0,0.2,0.1,0.3c0,0.1,0.1,0.2,0.2,0.2
		c0.1,0.1,0.1,0.1,0.2,0.1c0.1,0,0.2,0,0.3,0c0.1,0,0.2,0,0.3-0.1c0.1,0,0.2-0.1,0.2-0.2c0.1-0.1,0.1-0.2,0.1-0.2
		c1.1-3.3,1.6-6.8,1.6-10.2C66.2,26.6,64.3,20.2,60.6,14.7z"/>
	<path class="st1" d="M42.4,32c-4.9,0-8.9,4-8.9,8.9s4,8.9,8.9,8.9s8.9-4,8.9-8.9S47.3,32,42.4,32z M42.6,40.2
		c1.7,0.3,3.8,0.7,3.8,2.5c0,1.1-1.2,2.1-2.8,2.4v1.4h-2.4v-1.4c-1.6-0.3-2.8-1.3-2.8-2.4H40c0,0.7,1.1,1.3,2.4,1.3
		c1.3,0,2.4-0.6,2.4-1.3c0-0.7-0.8-0.9-2.6-1.3c-1.7-0.3-3.8-0.7-3.8-2.5c0-1.1,1.2-2.1,2.8-2.4v-1.4h2.4v1.4
		c1.6,0.3,2.8,1.3,2.8,2.4h-1.6c0-0.7-1.1-1.3-2.4-1.3c-1.3,0-2.4,0.6-2.4,1.3C40,39.6,40.9,39.9,42.6,40.2z"/>
	<path class="st1" d="M35.2,34.4l0.8-0.8c0,0,0.8-0.8,2.4-1.6c0,0,2.2-0.7,3.2-0.8c0.6-0.1,1.6,0,1.6,0v-0.8h4.8L32,15.9L15.9,30.4
		h4.8v12.9h8.1v-9.7h6.4V34.4z"/>
	<path class="st0" d="M42.4,37.7c1.3,0,2.4,0.6,2.4,1.3h1.6c0-1.1-1.2-2.1-2.8-2.4v-1.4h-2.4v1.4c-1.6,0.3-2.8,1.3-2.8,2.4
		c0,1.7,2.1,2.2,3.8,2.5c1.8,0.3,2.6,0.6,2.6,1.3c0,0.7-1.1,1.3-2.4,1.3c-1.3,0-2.4-0.6-2.4-1.3h-1.6c0,1.1,1.2,2.1,2.8,2.4v1.4h2.4
		v-1.4c1.6-0.3,2.8-1.3,2.8-2.4c0-1.7-2.1-2.2-3.8-2.5c-1.8-0.3-2.6-0.6-2.6-1.3C40,38.3,41.1,37.7,42.4,37.7z"/>
</g>
</svg>
