<?xml version="1.0" encoding="utf-8"?>
<!-- Generator: Adobe Illustrator 24.1.0, SVG Export Plug-In . SVG Version: 6.00 Build 0)  -->
<svg version="1.1" id="Capa_1" xmlns="http://www.w3.org/2000/svg" xmlns:xlink="http://www.w3.org/1999/xlink" x="0px" y="0px"
	 viewBox="0 0 66 67" style="enable-background:new 0 0 66 67;" xml:space="preserve">
<style type="text/css">
	.st0{fill:#BF3822;}
	.st1{fill:#FFFFFF;}
</style>
<g>
	<path class="st0" d="M22.9,30.7c-1.4,0-2.5,1.1-2.5,2.5c0,1.4,1.1,2.5,2.5,2.5c1.4,0,2.5-1.1,2.5-2.5
		C25.4,31.8,24.3,30.7,22.9,30.7z"/>
	<polygon class="st0" points="41,20 22.9,20 20.4,27.4 43.5,27.4 	"/>
	<path class="st0" d="M43.6,8.3C40.3,7,36.8,6.3,33.2,6.3c-5.4,0-10.6,1.6-15.1,4.6c-4.5,3-8,7.2-10,12.2c-2.1,5-2.6,10.4-1.5,15.7
		c1,5.3,3.6,10.1,7.4,13.9c3.8,3.8,8.6,6.4,13.9,7.4c5.3,1,10.7,0.5,15.7-1.5c5-2.1,9.2-5.5,12.2-10c3-4.5,4.6-9.7,4.6-15.1
		c0-3.6-0.7-7.1-2.1-10.4c-1.4-3.3-3.4-6.3-5.9-8.8S46.9,9.7,43.6,8.3z M22.1,40.6v1.6c0,0.9-0.7,1.6-1.6,1.6h-1.6
		c-0.9,0-1.6-0.7-1.6-1.6V29.1l3.4-9.9c0.3-1,1.3-1.6,2.3-1.6H41c1.1,0,2,0.7,2.3,1.6l3.4,9.9v1.3c-1.5-0.8-3.1-1.3-4.9-1.3
		c-5.5,0-9.9,4.4-9.9,9.9c0,0.6,0.1,1.1,0.1,1.6H22.1z M42.7,48.8c-5,0-9.1-4.1-9.1-9.1c0-5,4.1-9.1,9.1-9.1c5,0,9.1,4.1,9.1,9.1
		C51.8,44.8,47.7,48.8,42.7,48.8z"/>
	<path class="st0" d="M60.3,15.5c-3.6-5.4-8.7-9.5-14.6-12S33.2,0.4,26.9,1.6C20.5,2.9,14.7,6,10.2,10.5c-4.6,4.6-7.7,10.4-8.9,16.7
		C0,33.6,0.6,40.1,3.1,46.1s6.6,11,12,14.6c5.4,3.6,11.7,5.5,18.1,5.5c5.2,0,10.3-1.2,14.9-3.6s8.6-5.8,11.6-10
		c0.1-0.1,0.1-0.2,0.2-0.2c0-0.1,0.1-0.2,0-0.3c0-0.1,0-0.2-0.1-0.3c0-0.1-0.1-0.2-0.2-0.2c-0.1-0.1-0.2-0.1-0.3-0.1
		c-0.1,0-0.2,0-0.3,0c-0.1,0-0.2,0.1-0.3,0.1c-0.1,0.1-0.1,0.1-0.2,0.2c-4.3,6.1-10.7,10.4-17.9,12.2c-7.2,1.8-14.9,0.9-21.5-2.4
		c-6.7-3.3-11.9-8.9-14.8-15.8c-2.9-6.9-3.2-14.5-0.9-21.6c2.3-7.1,7-13.1,13.3-17C23.2,3.1,30.7,1.6,38,2.7
		c7.4,1.1,14.1,4.9,18.9,10.5c4.8,5.7,7.5,12.9,7.5,20.3c0,3.3-0.5,6.5-1.5,9.7c0,0.1,0,0.2,0,0.3c0,0.1,0,0.2,0.1,0.3
		c0,0.1,0.1,0.2,0.2,0.2c0.1,0.1,0.1,0.1,0.2,0.1c0.1,0,0.2,0,0.3,0c0.1,0,0.2,0,0.3-0.1s0.2-0.1,0.2-0.2c0.1-0.1,0.1-0.1,0.1-0.2
		c1.1-3.3,1.6-6.7,1.6-10.1C65.8,27.1,63.9,20.8,60.3,15.5z"/>
	<path class="st1" d="M41.9,29.1c1.8,0,3.5,0.5,4.9,1.3v-1.3l-3.4-9.9c-0.3-1-1.3-1.6-2.3-1.6H22.9c-1.1,0-2,0.7-2.3,1.6l-3.4,9.9
		v13.2c0,0.9,0.7,1.6,1.6,1.6h1.6c0.9,0,1.6-0.7,1.6-1.6v-1.6h10C32,40,32,39.5,32,38.9C32,33.5,36.4,29.1,41.9,29.1z M22.9,20H41
		l2.5,7.4H20.4L22.9,20z M22.9,35.6c-1.4,0-2.5-1.1-2.5-2.5c0-1.4,1.1-2.5,2.5-2.5c1.4,0,2.5,1.1,2.5,2.5
		C25.4,34.5,24.3,35.6,22.9,35.6z"/>
	<path class="st1" d="M42.7,30.7c-5,0-9.1,4.1-9.1,9.1c0,5,4.1,9.1,9.1,9.1c5,0,9.1-4.1,9.1-9.1C51.8,34.8,47.7,30.7,42.7,30.7z
		 M42.9,39.1c1.7,0.3,3.9,0.8,3.9,2.5c0,1.1-1.2,2.1-2.9,2.4v1.4h-2.5v-1.4c-1.7-0.3-2.9-1.3-2.9-2.4h1.6c0,0.7,1.1,1.3,2.5,1.3
		c1.3,0,2.5-0.6,2.5-1.3c0-0.7-0.9-1-2.7-1.3c-1.7-0.3-3.9-0.8-3.9-2.5c0-1.1,1.2-2.1,2.9-2.4V34h2.5v1.4c1.7,0.3,2.9,1.3,2.9,2.4
		h-1.6c0-0.7-1.1-1.3-2.5-1.3c-1.3,0-2.5,0.6-2.5,1.3C40.2,38.5,41.1,38.8,42.9,39.1z"/>
	<path class="st0" d="M42.7,36.6c1.3,0,2.5,0.6,2.5,1.3h1.6c0-1.1-1.2-2.1-2.9-2.4V34h-2.5v1.4c-1.7,0.3-2.9,1.3-2.9,2.4
		c0,1.8,2.2,2.2,3.9,2.5c1.8,0.3,2.7,0.6,2.7,1.3c0,0.7-1.1,1.3-2.5,1.3c-1.3,0-2.5-0.6-2.5-1.3h-1.6c0,1.1,1.2,2.1,2.9,2.4v1.4h2.5
		v-1.4c1.7-0.3,2.9-1.3,2.9-2.4c0-1.8-2.2-2.2-3.9-2.5c-1.8-0.3-2.7-0.6-2.7-1.3C40.2,37.1,41.3,36.6,42.7,36.6z"/>
</g>
</svg>
