<svg width="1473" height="1472" viewBox="0 0 1473 1472" fill="none" xmlns="http://www.w3.org/2000/svg">
<path d="M738.281 124.378C616.991 124.378 498.424 160.345 397.575 227.73C296.726 295.116 218.124 390.893 171.708 502.951C125.292 615.008 113.148 738.313 136.81 857.273C160.473 976.233 218.88 1085.5 304.645 1171.27C390.41 1257.03 499.681 1315.44 618.641 1339.1C737.601 1362.77 860.906 1350.62 972.963 1304.21C1085.02 1257.79 1180.8 1179.19 1248.18 1078.34C1315.57 977.489 1351.54 858.923 1351.54 737.633C1351.54 657.099 1335.67 577.354 1304.85 502.951C1274.04 428.547 1228.86 360.942 1171.92 303.996C1114.97 247.051 1047.37 201.879 972.963 171.06C898.56 140.241 818.815 124.378 738.281 124.378Z" fill="#BF3822"/>
<path d="M736.554 1471.81C591.005 1471.81 448.726 1428.65 327.707 1347.79C206.688 1266.93 112.365 1151.99 56.6657 1017.52C0.966807 883.055 -13.6066 735.089 14.7885 592.338C43.1836 449.586 113.272 318.46 216.19 215.542C319.108 112.624 450.234 42.5356 592.986 14.1405C735.737 -14.2545 883.703 0.318858 1018.17 56.0178C1152.64 111.717 1267.57 206.04 1348.44 327.059C1429.3 448.078 1472.46 590.357 1472.46 735.906C1472.68 813.145 1460.5 889.918 1436.4 963.3C1435.76 965.238 1434.75 967.03 1433.41 968.573C1432.08 970.117 1430.46 971.381 1428.63 972.293C1426.81 973.205 1424.82 973.747 1422.79 973.888C1420.75 974.029 1418.71 973.765 1416.78 973.112C1414.85 972.502 1413.06 971.512 1411.52 970.203C1409.98 968.893 1408.71 967.289 1407.8 965.484C1406.89 963.679 1406.34 961.711 1406.2 959.693C1406.05 957.675 1406.31 955.649 1406.96 953.734C1430.08 883.444 1441.76 809.898 1441.55 735.906C1441.5 567.883 1381.42 405.407 1272.14 277.774C1162.86 150.142 1011.58 65.7513 845.567 39.8194C679.557 13.8876 509.744 48.1207 366.748 136.346C223.751 224.572 116.981 360.984 65.6881 520.987C14.3954 680.989 21.9558 854.053 87.0062 1008.97C152.057 1163.89 270.316 1290.47 420.462 1365.89C570.607 1441.31 742.758 1460.61 905.874 1420.3C1068.99 1379.99 1212.34 1282.73 1310.07 1146.05C1311.05 1144 1312.46 1142.19 1314.22 1140.74C1315.97 1139.3 1318.03 1138.26 1320.23 1137.71C1322.43 1137.15 1324.73 1137.08 1326.96 1137.51C1329.19 1137.95 1331.3 1138.86 1333.14 1140.2C1334.97 1141.54 1336.49 1143.27 1337.58 1145.27C1338.67 1147.26 1339.31 1149.47 1339.45 1151.74C1339.59 1154.01 1339.23 1156.28 1338.39 1158.39C1337.55 1160.5 1336.26 1162.4 1334.6 1163.96C1266.49 1259.04 1176.73 1336.54 1072.74 1390.07C968.748 1443.6 853.513 1471.62 736.554 1471.81V1471.81Z" fill="#BF3822"/>
<circle cx="943.851" cy="907.397" r="196.932" fill="white"/>
<path d="M639.5 961.106V746.27H782.724V764.173L800.627 746.27C800.627 746.27 818.53 728.367 854.336 710.464C854.336 710.464 904.009 695.304 925.948 692.561C939.823 690.827 961.754 692.561 961.754 692.561V674.658H1069.17L711.112 352.405L353.053 674.658H460.471V961.106H639.5Z" fill="white"/>
<path d="M854.332 949.171H890.138C890.138 964.209 914.665 977.02 943.847 977.02C973.029 977.02 997.556 964.209 997.556 949.171C997.556 933.854 978.937 928.284 939.55 920.904C901.596 913.524 854.332 904.334 854.332 865.624C854.332 840.699 880.649 819.534 916.992 812.432V782.077H970.701V812.432C1007.04 819.534 1033.36 840.699 1033.36 865.624H997.556C997.556 850.585 973.029 837.775 943.847 837.775C914.665 837.775 890.138 850.585 890.138 865.624C890.138 880.941 908.757 886.511 948.143 893.891C986.098 901.271 1033.36 910.461 1033.36 949.171C1033.36 974.096 1007.04 995.261 970.701 1002.36V1032.72H916.992V1002.36C880.649 995.261 854.332 974.096 854.332 949.171Z" fill="#BF3822"/>
</svg>
