<svg width="1472" height="1472" viewBox="0 0 1472 1472" fill="none" xmlns="http://www.w3.org/2000/svg">
<path d="M737.633 124.567C616.343 124.567 497.776 160.534 396.927 227.919C296.078 295.305 217.476 391.082 171.06 503.139C124.644 615.197 112.5 738.502 136.162 857.462C159.825 976.421 218.232 1085.69 303.997 1171.46C389.762 1257.22 499.033 1315.63 617.993 1339.29C736.953 1362.96 860.258 1350.81 972.315 1304.39C1084.37 1257.98 1180.15 1179.38 1247.54 1078.53C1314.92 977.678 1350.89 859.112 1350.89 737.822C1350.89 657.288 1335.03 577.543 1304.21 503.139C1273.39 428.736 1228.22 361.131 1171.27 304.185C1114.32 247.239 1046.72 202.068 972.315 171.249C897.912 140.43 818.167 124.567 737.633 124.567V124.567Z" fill="#BF3822"/>
<path d="M735.906 1472C590.357 1472 448.078 1428.84 327.059 1347.98C206.04 1267.12 111.717 1152.18 56.0178 1017.71C0.318858 883.244 -14.2545 735.278 14.1405 592.527C42.5356 449.775 112.624 318.649 215.542 215.731C318.46 112.813 449.586 42.7246 592.338 14.3295C735.089 -14.0656 883.055 0.507822 1017.52 56.2068C1151.99 111.906 1266.93 206.229 1347.79 327.248C1428.65 448.267 1471.81 590.546 1471.81 736.095C1472.03 813.334 1459.85 890.107 1435.75 963.489C1435.11 965.427 1434.1 967.219 1432.77 968.762C1431.43 970.306 1429.81 971.57 1427.98 972.482C1426.16 973.394 1424.17 973.936 1422.14 974.077C1420.1 974.218 1418.06 973.954 1416.13 973.301C1414.2 972.691 1412.41 971.701 1410.87 970.392C1409.33 969.082 1408.07 967.478 1407.15 965.673C1406.24 963.868 1405.69 961.9 1405.55 959.882C1405.41 957.864 1405.67 955.838 1406.32 953.923C1429.43 883.633 1441.11 810.087 1440.9 736.095C1440.85 568.072 1380.77 405.596 1271.49 277.963C1162.21 150.331 1010.93 65.9403 844.919 40.0084C678.909 14.0765 509.096 48.3097 366.1 136.535C223.103 224.761 116.333 361.173 65.0401 521.176C13.7474 681.178 21.3079 854.242 86.3582 1009.16C151.409 1164.08 269.668 1290.66 419.814 1366.08C569.959 1441.5 742.11 1460.8 905.226 1420.49C1068.34 1380.18 1211.69 1282.92 1309.42 1146.24C1310.4 1144.19 1311.81 1142.38 1313.57 1140.93C1315.33 1139.49 1317.38 1138.45 1319.58 1137.9C1321.78 1137.34 1324.08 1137.27 1326.31 1137.7C1328.55 1138.14 1330.65 1139.05 1332.49 1140.39C1334.33 1141.73 1335.84 1143.46 1336.93 1145.46C1338.02 1147.45 1338.66 1149.66 1338.8 1151.93C1338.94 1154.19 1338.58 1156.47 1337.74 1158.58C1336.9 1160.69 1335.61 1162.59 1333.95 1164.15C1265.84 1259.23 1176.08 1336.73 1072.09 1390.26C968.1 1443.79 852.865 1471.81 735.906 1472V1472Z" fill="#BF3822"/>
<path d="M733.315 656.631C804.141 656.631 839.555 742.331 789.622 792.618C739.335 842.905 653.635 807.137 653.635 736.311C653.635 692.044 689.048 656.631 733.315 656.631ZM892.675 974.85C892.675 975.126 892.451 975.35 892.175 975.35H574.455C574.179 975.35 573.955 975.126 573.955 974.85V935.687C573.955 891.421 644.782 856.007 733.315 856.007C821.848 856.007 892.675 891.421 892.675 935.687V974.85ZM981.208 1010.26C981.208 1010.54 980.984 1010.76 980.708 1010.76H485.922C485.646 1010.76 485.422 1010.54 485.422 1010.26V621.717C485.422 621.441 485.646 621.217 485.922 621.217H980.708C980.984 621.217 981.208 621.441 981.208 621.717V1010.26ZM875.468 373.324C875.192 373.324 874.968 373.548 874.968 373.824V443.651C874.968 443.927 874.744 444.151 874.468 444.151H592.162C591.886 444.151 591.662 443.927 591.662 443.651V373.824C591.662 373.548 591.438 373.324 591.162 373.324H521.335C521.059 373.324 520.835 373.548 520.835 373.824V443.651C520.835 443.927 520.611 444.151 520.335 444.151H485.422C466.637 444.151 448.622 451.613 435.34 464.895C422.057 478.178 414.595 496.193 414.595 514.977V1010.76C414.595 1029.55 422.057 1047.56 435.34 1060.85C448.622 1074.13 466.637 1081.59 485.422 1081.59H981.208C999.992 1081.59 1018.01 1074.13 1031.29 1060.85C1044.57 1047.56 1052.03 1029.55 1052.03 1010.76V514.977C1052.03 496.193 1044.57 478.178 1031.29 464.895C1018.01 451.613 999.992 444.151 981.208 444.151H946.295C946.018 444.151 945.795 443.927 945.795 443.651V373.824C945.795 373.548 945.571 373.324 945.295 373.324H875.468Z" fill="white"/>
</svg>
