<?xml version="1.0" encoding="utf-8"?>
<!-- Generator: Adobe Illustrator 24.1.0, SVG Export Plug-In . SVG Version: 6.00 Build 0)  -->
<svg version="1.1" id="Capa_1" xmlns="http://www.w3.org/2000/svg" xmlns:xlink="http://www.w3.org/1999/xlink" x="0px" y="0px"
	 viewBox="0 0 1558 1559" style="enable-background:new 0 0 1558 1559;" xml:space="preserve">
<style type="text/css">
	.st0{fill:#FFFFFF;}
	.st1{fill:#BF3822;}
</style>
<g>
	<path class="st0" d="M1027.4,176.4C948.6,143.8,864.2,127,778.9,127c-128.4,0-253.8,38.1-360.6,109.4
		c-106.7,71.3-189.9,172.7-239,291.3s-62,249.1-36.9,375c25,125.9,86.9,241.5,177.6,332.3c90.8,90.8,206.4,152.6,332.3,177.6
		s256.4,12.2,375-36.9s219.9-132.3,291.3-239C1389.9,1030,1428,904.5,1428,776.1c0-85.2-16.8-169.6-49.4-248.4
		c-32.6-78.7-80.4-150.3-140.7-210.6C1177.6,256.8,1106.1,209,1027.4,176.4z M752.9,946.6H513.2V986c0,21.7-17.7,39.4-39.4,39.4
		h-39.4c-21.7,0-39.4-17.7-39.4-39.4V671l81.9-236.2c7.9-22.9,29.9-39.4,55.9-39.4h433c26,0,48,16.6,55.9,39.4l81.9,236.2v32
		c-34.6-20.1-75.2-31.9-118.1-31.9c-130.3,0-236.2,105.9-236.2,236.2C749.3,920.6,750.9,933.6,752.9,946.6z M1005.2,1143.4
		c-119.6,0-216.5-96.9-216.5-216.5s96.9-216.5,216.5-216.5s216.5,96.9,216.5,216.5S1124.8,1143.4,1005.2,1143.4z"/>
	<path class="st0" d="M1426.5,346.7c-85.6-128-207.2-227.9-349.5-286.8S778.1-14.4,627,15.6S337.1,119.8,228.2,228.7
		C119.3,337.7,45.1,476.4,15.1,627.5c-30.1,151-14.6,307.6,44.3,449.9s158.7,263.9,286.8,349.5s278.7,131.3,432.7,131.3
		c123.8-0.2,245.7-29.9,356-86.6c110-56.7,205-138.7,277.1-239.3c1.7-1.7,3.1-3.7,4-5.9s1.3-4.6,1.1-7c-0.2-2.3-0.8-4.7-2-6.8
		s-2.8-4-4.7-5.4s-4.1-2.4-6.5-2.8c-2.3-0.5-4.7-0.4-7.1,0.2s-4.5,1.7-6.4,3.2s-3.4,3.4-4.4,5.6
		c-103.5,144.6-255.2,247.5-427.8,290.2c-172.6,42.6-354.8,22.2-513.7-57.6c-158.9-79.8-284.1-213.8-352.9-377.7
		C22.7,904.4,14.7,721.2,69,551.9c54.2-169.3,167.2-313.6,318.6-407c151.3-93.4,331-129.6,506.7-102.2
		c175.7,27.5,335.8,116.8,451.3,251.9c115.7,135,179.2,307,179.3,484.8c0.2,78.3-12.1,156.1-36.6,230.5c-0.7,2-1,4.2-0.8,6.3
		s0.7,4.2,1.7,6.1c0.9,1.9,2.3,3.6,3.9,5c1.7,1.4,3.6,2.5,5.6,3.1c2.1,0.7,4.2,1,6.4,0.8s4.3-0.7,6.2-1.7c2-0.9,3.7-2.3,5.1-3.9
		s2.5-3.5,3.2-5.6c25.6-77.6,38.4-158.9,38.2-240.6C1557.8,625.3,1512.1,474.8,1426.5,346.7z"/>
	<path class="st1" d="M985.5,671.1c42.9,0,83.5,11.8,118.1,31.9v-32l-81.9-236.2c-7.9-22.8-29.9-39.4-55.9-39.4h-433
		c-26,0-48,16.5-55.9,39.4L395,671v315c0,21.7,17.7,39.4,39.4,39.4h39.4c21.7,0,39.4-17.7,39.4-39.4v-39.4h239.7
		c-2-13-3.6-26-3.6-39.3C749.3,777,855.2,671.1,985.5,671.1z M532.8,828.5c-32.7,0-59.1-26.4-59.1-59.1c0-32.7,26.4-59.1,59.1-59.1
		s59.1,26.4,59.1,59.1C591.8,802.1,565.5,828.5,532.8,828.5z M473.7,631.7l59.1-177.2h433l59.1,177.2H473.7z"/>
	<path class="st1" d="M1005.2,710.4c-119.6,0-216.5,96.9-216.5,216.5s96.9,216.5,216.5,216.5s216.5-96.9,216.5-216.5
		S1124.8,710.4,1005.2,710.4z M1034.8,1031.4v33.4h-59.1v-33.4c-40-7.9-68.9-31.1-68.9-58.5h39.4c0,16.5,27,30.6,59,30.6
		c32.1,0,59-14.1,59-30.6c0-16.8-20.5-23-63.8-31.1c-41.7-8.1-93.7-18.2-93.7-60.8c0-27.4,28.9-50.7,68.9-58.5v-33.4h59.1v33.4
		c40,7.8,68.9,31.1,68.9,58.5h-39.4c0-16.5-27-30.6-59-30.6c-32.1,0-59,14.1-59,30.6c0,16.8,20.5,23,63.8,31.1
		c41.7,8.1,93.7,18.2,93.7,60.8C1103.7,1000.3,1074.8,1023.6,1034.8,1031.4z"/>
</g>
</svg>
