<svg width="1496" height="1495" viewBox="0 0 1496 1495" fill="none" xmlns="http://www.w3.org/2000/svg">
<path d="M749.535 126.368C626.356 126.368 505.943 162.895 403.523 231.33C301.103 299.764 221.277 397.033 174.138 510.836C127 624.638 114.666 749.863 138.697 870.676C162.728 991.488 222.045 1102.46 309.145 1189.56C396.246 1276.66 507.219 1335.98 628.031 1360.01C748.844 1384.04 874.069 1371.71 987.871 1324.57C1101.67 1277.43 1198.94 1197.6 1267.38 1095.18C1335.81 992.764 1372.34 872.352 1372.34 749.172C1372.34 667.385 1356.23 586.398 1324.93 510.836C1293.63 435.273 1247.76 366.616 1189.92 308.783C1132.09 250.951 1063.43 205.075 987.871 173.776C912.309 142.477 831.322 126.368 749.535 126.368Z" fill="#9E1724"/>
<path d="M747.78 1494.78C599.965 1494.78 455.47 1450.95 332.566 1368.83C209.663 1286.71 113.871 1169.99 57.3047 1033.42C0.738374 896.86 -14.062 746.589 14.7753 601.615C43.6126 456.64 114.792 323.472 219.313 218.951C323.834 114.43 457.002 43.2507 601.977 14.4135C746.951 -14.4238 897.221 0.376557 1033.78 56.9429C1170.35 113.509 1287.07 209.301 1369.19 332.204C1451.31 455.108 1495.15 599.603 1495.15 747.418C1495.37 825.86 1483 903.829 1458.52 978.354C1457.88 980.322 1456.85 982.142 1455.49 983.709C1454.14 985.277 1452.49 986.561 1450.63 987.487C1448.78 988.413 1446.76 988.964 1444.7 989.107C1442.63 989.25 1440.56 988.982 1438.59 988.319C1436.64 987.699 1434.82 986.694 1433.26 985.364C1431.69 984.034 1430.41 982.404 1429.48 980.572C1428.55 978.739 1428 976.74 1427.85 974.691C1427.71 972.642 1427.97 970.584 1428.63 968.639C1452.11 897.255 1463.97 822.563 1463.76 747.418C1463.7 576.779 1402.68 411.773 1291.7 282.153C1180.73 152.533 1027.09 66.828 858.491 40.4923C689.896 14.1566 517.439 48.9228 372.216 138.522C226.992 228.122 118.559 366.658 66.4675 529.153C14.3761 691.647 22.0542 867.406 88.1176 1024.74C154.181 1182.07 274.282 1310.62 426.766 1387.22C579.25 1463.81 754.081 1483.41 919.738 1442.47C1085.39 1401.53 1230.97 1302.75 1330.23 1163.95C1331.22 1161.87 1332.66 1160.03 1334.44 1158.56C1336.22 1157.1 1338.31 1156.04 1340.55 1155.48C1342.78 1154.91 1345.12 1154.84 1347.38 1155.28C1349.65 1155.72 1351.79 1156.65 1353.65 1158.01C1355.52 1159.37 1357.06 1161.13 1358.17 1163.15C1359.28 1165.18 1359.92 1167.42 1360.07 1169.73C1360.21 1172.03 1359.84 1174.34 1358.99 1176.48C1358.14 1178.63 1356.82 1180.56 1355.14 1182.14C1285.97 1278.7 1194.81 1357.41 1089.2 1411.77C983.59 1466.14 866.56 1494.59 747.78 1494.78V1494.78Z" fill="#9E1724"/>
<circle cx="958.306" cy="921.58" r="199.999" fill="white"/>
<path d="M649.216 976.125V757.944H794.67V776.126L812.851 757.944C812.851 757.944 831.033 739.762 867.396 721.581C867.396 721.581 917.843 706.184 940.123 703.399C954.215 701.638 976.487 703.399 976.487 703.399V685.217H1085.58L721.943 357.946L358.308 685.217H467.398V976.125H649.216Z" fill="white"/>
<path d="M867.393 964.005H903.756C903.756 979.278 928.665 992.288 958.301 992.288C987.938 992.288 1012.85 979.278 1012.85 964.005C1012.85 948.449 993.938 942.793 953.938 935.298C915.392 927.803 867.393 918.47 867.393 879.157C867.393 853.844 894.12 832.349 931.029 825.137V794.309H985.574V825.137C1022.48 832.349 1049.21 853.844 1049.21 879.157H1012.85C1012.85 863.884 987.938 850.874 958.301 850.874C928.665 850.874 903.756 863.884 903.756 879.157C903.756 894.712 922.665 900.369 962.665 907.864C1001.21 915.359 1049.21 924.692 1049.21 964.005C1049.21 989.318 1022.48 1010.81 985.574 1018.02V1048.85H931.029V1018.02C894.12 1010.81 867.393 989.318 867.393 964.005Z" fill="#9E1724"/>
</svg>
