<svg width="1495" height="1495" viewBox="0 0 1495 1495" fill="none" xmlns="http://www.w3.org/2000/svg">
<path d="M749.12 126.315C625.941 126.315 505.528 162.842 403.108 231.277C300.689 299.711 220.862 396.98 173.724 510.783C126.585 624.585 114.252 749.811 138.283 870.623C162.314 991.435 221.63 1102.41 308.731 1189.51C395.832 1276.61 506.805 1335.93 627.617 1359.96C748.429 1383.99 873.654 1371.65 987.457 1324.52C1101.26 1277.38 1198.53 1197.55 1266.96 1095.13C1335.4 992.712 1371.92 872.299 1371.92 749.12C1371.92 667.332 1355.82 586.345 1324.52 510.783C1293.22 435.221 1247.34 366.563 1189.51 308.731C1131.68 250.898 1063.02 205.022 987.457 173.724C911.895 142.425 830.908 126.315 749.12 126.315V126.315Z" fill="#9E1724"/>
<path d="M747.366 1494.73C599.551 1494.73 455.055 1450.9 332.152 1368.78C209.248 1286.66 113.456 1169.93 56.8901 1033.37C0.323823 896.807 -14.4765 746.537 14.3608 601.562C43.198 456.587 114.378 323.419 218.899 218.899C323.419 114.378 456.587 43.198 601.562 14.3608C746.537 -14.4765 896.807 0.323823 1033.37 56.8901C1169.93 113.456 1286.66 209.248 1368.78 332.152C1450.9 455.055 1494.73 599.551 1494.73 747.366C1494.95 825.807 1482.59 903.777 1458.11 978.302C1457.46 980.269 1456.43 982.089 1455.08 983.657C1453.72 985.224 1452.07 986.508 1450.22 987.434C1448.37 988.361 1446.35 988.911 1444.28 989.054C1442.22 989.197 1440.14 988.929 1438.18 988.266C1436.22 987.646 1434.41 986.641 1432.84 985.311C1431.28 983.981 1429.99 982.352 1429.06 980.519C1428.14 978.686 1427.58 976.687 1427.44 974.638C1427.29 972.589 1427.56 970.531 1428.22 968.586C1451.69 897.202 1463.55 822.511 1463.34 747.366C1463.29 576.726 1402.27 411.72 1291.29 282.1C1180.31 152.48 1026.67 66.7752 858.077 40.4395C689.482 14.1038 517.024 48.8701 371.801 138.47C226.578 228.069 118.144 366.606 66.053 529.1C13.9615 691.594 21.6397 867.353 87.703 1024.69C153.766 1182.02 273.868 1310.57 426.351 1387.16C578.835 1463.76 753.667 1483.35 919.323 1442.42C1084.98 1401.48 1230.56 1302.7 1329.81 1163.9C1330.8 1161.81 1332.24 1159.97 1334.03 1158.51C1335.81 1157.04 1337.89 1155.99 1340.13 1155.42C1342.37 1154.86 1344.7 1154.79 1346.97 1155.23C1349.23 1155.67 1351.38 1156.6 1353.24 1157.96C1355.1 1159.32 1356.65 1161.08 1357.75 1163.1C1358.86 1165.13 1359.51 1167.37 1359.65 1169.67C1359.79 1171.98 1359.43 1174.28 1358.57 1176.43C1357.72 1178.57 1356.41 1180.5 1354.72 1182.08C1285.55 1278.64 1194.39 1357.36 1088.78 1411.72C983.176 1466.09 866.146 1494.54 747.366 1494.73V1494.73Z" fill="#9E1724"/>
<path d="M744.734 666.664C816.664 666.664 852.629 753.699 801.918 804.769C750.848 855.839 663.813 819.515 663.813 747.585C663.813 702.629 699.778 666.664 744.734 666.664ZM906.576 989.847C906.576 990.124 906.352 990.347 906.076 990.347H583.393C583.117 990.347 582.893 990.124 582.893 989.847V950.067C582.893 905.111 654.822 869.146 744.734 869.146C834.646 869.146 906.576 905.111 906.576 950.067V989.847ZM996.488 1025.81C996.488 1026.09 996.264 1026.31 995.988 1026.31H493.481C493.205 1026.31 492.981 1026.09 492.981 1025.81V631.2C492.981 630.924 493.205 630.7 493.481 630.7H995.988C996.264 630.7 996.488 630.924 996.488 631.2V1025.81ZM889.093 378.946C888.817 378.946 888.593 379.17 888.593 379.446V450.376C888.593 450.652 888.369 450.876 888.093 450.876H601.375C601.099 450.876 600.875 450.652 600.875 450.376V379.446C600.875 379.17 600.651 378.946 600.375 378.946H529.446C529.169 378.946 528.946 379.17 528.946 379.446V450.376C528.946 450.652 528.722 450.876 528.446 450.876H492.981C473.904 450.876 455.608 458.454 442.119 471.944C428.63 485.433 421.051 503.728 421.051 522.805V1026.31C421.051 1045.39 428.63 1063.68 442.119 1077.17C455.608 1090.66 473.904 1098.24 492.981 1098.24H996.488C1015.56 1098.24 1033.86 1090.66 1047.35 1077.17C1060.84 1063.68 1068.42 1045.39 1068.42 1026.31V522.805C1068.42 503.728 1060.84 485.433 1047.35 471.944C1033.86 458.454 1015.56 450.876 996.488 450.876H961.023C960.747 450.876 960.523 450.652 960.523 450.376V379.446C960.523 379.17 960.299 378.946 960.023 378.946H889.093Z" fill="white"/>
</svg>
