<?xml version="1.0" encoding="utf-8"?>
<!-- Generator: Adobe Illustrator 24.1.0, SVG Export Plug-In . SVG Version: 6.00 Build 0)  -->
<svg version="1.1" id="Capa_1" xmlns="http://www.w3.org/2000/svg" xmlns:xlink="http://www.w3.org/1999/xlink" x="0px" y="0px"
	 viewBox="0 0 67 68" style="enable-background:new 0 0 67 68;" xml:space="preserve">
<style type="text/css">
	.st0{fill:#9E1724;}
	.st1{fill:#FFFFFF;}
	.st2{fill:#9D1923;}
</style>
<g>
	<path class="st0" d="M22.9,31c-1.4,0-2.5,1.1-2.5,2.5c0,1.4,1.1,2.5,2.5,2.5c1.4,0,2.5-1.1,2.5-2.5C25.4,32.1,24.3,31,22.9,31z"/>
	<polygon class="st0" points="41.3,20.1 22.9,20.1 20.4,27.6 43.8,27.6 	"/>
	<path class="st0" d="M43.9,8.3C40.6,6.9,37,6.2,33.4,6.2c-5.5,0-10.8,1.6-15.3,4.7c-4.5,3-8.1,7.3-10.2,12.4
		c-2.1,5-2.6,10.6-1.6,15.9s3.7,10.3,7.6,14.1s8.8,6.5,14.1,7.6s10.9,0.5,15.9-1.6s9.4-5.6,12.4-10.2c3-4.5,4.7-9.9,4.7-15.3
		c0-3.6-0.7-7.2-2.1-10.6c-1.4-3.3-3.4-6.4-6-9C50.3,11.7,47.3,9.7,43.9,8.3z M22,41v1.7c0,0.9-0.8,1.7-1.7,1.7h-1.7
		c-0.9,0-1.7-0.8-1.7-1.7V29.3l3.5-10c0.3-1,1.3-1.7,2.4-1.7h18.4c1.1,0,2,0.7,2.4,1.7l3.5,10v1.4c-1.5-0.9-3.2-1.4-5-1.4
		c-5.5,0-10,4.5-10,10c0,0.6,0.1,1.1,0.2,1.7H22z M43,49.4c-5.1,0-9.2-4.1-9.2-9.2S37.9,31,43,31s9.2,4.1,9.2,9.2S48.1,49.4,43,49.4
		z"/>
	<path class="st0" d="M60.9,15.5C57.2,10.1,52.1,5.8,46,3.3C40,0.8,33.3,0.2,26.9,1.4s-12.3,4.4-17,9.1c-4.6,4.6-7.8,10.5-9.1,17
		c-1.3,6.4-0.6,13.1,1.9,19.1C5.3,52.6,9.5,57.8,15,61.4c5.4,3.6,11.8,5.6,18.4,5.6c5.3,0,10.4-1.3,15.1-3.7
		c4.7-2.4,8.7-5.9,11.8-10.2c0.1-0.1,0.1-0.2,0.2-0.3c0-0.1,0.1-0.2,0-0.3c0-0.1,0-0.2-0.1-0.3c0-0.1-0.1-0.2-0.2-0.2
		C60.1,52,60,52,59.9,52c-0.1,0-0.2,0-0.3,0c-0.1,0-0.2,0.1-0.3,0.1c-0.1,0.1-0.1,0.1-0.2,0.2C54.8,58.5,48.3,62.9,41,64.7
		c-7.3,1.8-15.1,0.9-21.8-2.4c-6.8-3.4-12.1-9.1-15-16.1s-3.3-14.8-1-22s7.1-13.3,13.5-17.3c6.4-4,14.1-5.5,21.5-4.3
		c7.5,1.2,14.3,5,19.2,10.7c4.9,5.7,7.6,13.1,7.6,20.6c0,3.3-0.5,6.6-1.6,9.8c0,0.1,0,0.2,0,0.3c0,0.1,0,0.2,0.1,0.3
		c0,0.1,0.1,0.2,0.2,0.2c0.1,0.1,0.1,0.1,0.2,0.1c0.1,0,0.2,0,0.3,0c0.1,0,0.2,0,0.3-0.1c0.1,0,0.2-0.1,0.2-0.2
		c0.1-0.1,0.1-0.2,0.1-0.2c1.1-3.3,1.6-6.8,1.6-10.2C66.5,27.4,64.5,21,60.9,15.5z"/>
	<path class="st1" d="M42.1,29.3c1.8,0,3.5,0.5,5,1.4v-1.4l-3.5-10c-0.3-1-1.3-1.7-2.4-1.7H22.9c-1.1,0-2,0.7-2.4,1.7l-3.5,10v13.4
		c0,0.9,0.8,1.7,1.7,1.7h1.7c0.9,0,1.7-0.8,1.7-1.7V41h10.2c-0.1-0.6-0.2-1.1-0.2-1.7C32.1,33.8,36.6,29.3,42.1,29.3z M22.9,20.1
		h18.4l2.5,7.5H20.4L22.9,20.1z M22.9,36c-1.4,0-2.5-1.1-2.5-2.5c0-1.4,1.1-2.5,2.5-2.5c1.4,0,2.5,1.1,2.5,2.5
		C25.4,34.9,24.3,36,22.9,36z"/>
	<path class="st1" d="M43,31c-5.1,0-9.2,4.1-9.2,9.2s4.1,9.2,9.2,9.2s9.2-4.1,9.2-9.2S48.1,31,43,31z M43.2,39.6
		c1.8,0.3,4,0.8,4,2.6c0,1.2-1.2,2.2-2.9,2.5V46h-2.5v-1.4c-1.7-0.3-2.9-1.3-2.9-2.5h1.7c0,0.7,1.1,1.3,2.5,1.3
		c1.4,0,2.5-0.6,2.5-1.3c0-0.7-0.9-1-2.7-1.3c-1.8-0.3-4-0.8-4-2.6c0-1.2,1.2-2.2,2.9-2.5v-1.4h2.5v1.4c1.7,0.3,2.9,1.3,2.9,2.5
		h-1.7c0-0.7-1.1-1.3-2.5-1.3c-1.4,0-2.5,0.6-2.5,1.3C40.5,38.9,41.3,39.2,43.2,39.6z"/>
	<path class="st2" d="M43,36.9c1.4,0,2.5,0.6,2.5,1.3h1.7c0-1.2-1.2-2.2-2.9-2.5v-1.4h-2.5v1.4c-1.7,0.3-2.9,1.3-2.9,2.5
		c0,1.8,2.2,2.2,4,2.6c1.8,0.3,2.7,0.6,2.7,1.3c0,0.7-1.1,1.3-2.5,1.3c-1.4,0-2.5-0.6-2.5-1.3h-1.7c0,1.2,1.2,2.2,2.9,2.5V46h2.5
		v-1.4c1.7-0.3,2.9-1.3,2.9-2.5c0-1.8-2.2-2.2-4-2.6c-1.8-0.3-2.7-0.6-2.7-1.3C40.5,37.5,41.6,36.9,43,36.9z"/>
</g>
</svg>
