<?xml version="1.0" encoding="utf-8"?>
<!-- Generator: Adobe Illustrator 24.1.0, SVG Export Plug-In . SVG Version: 6.00 Build 0)  -->
<svg version="1.1" id="Capa_1" xmlns="http://www.w3.org/2000/svg" xmlns:xlink="http://www.w3.org/1999/xlink" x="0px" y="0px"
	 viewBox="0 0 66 67" style="enable-background:new 0 0 66 67;" xml:space="preserve">
<style type="text/css">
	.st0{fill:#BF3822;}
	.st1{fill:#FFFFFF;}
</style>
<g>
	<path class="st0" d="M43.1,8.6c-3.3-1.4-6.8-2.1-10.4-2.1c-5.4,0-10.6,1.6-15.1,4.6c-4.5,3-8,7.2-10,12.2C5.5,28.2,5,33.7,6,39
		c1,5.3,3.6,10.1,7.4,13.9c3.8,3.8,8.6,6.4,13.9,7.4c5.3,1,10.7,0.5,15.7-1.5c5-2.1,9.2-5.5,12.2-10c3-4.5,4.6-9.7,4.6-15.1
		c0-3.6-0.7-7.1-2.1-10.4c-1.4-3.3-3.4-6.3-5.9-8.8S46.4,9.9,43.1,8.6z M28.3,43.6h-7.9V30.9h-4.8l15.9-14.3l15.9,14.3h-4.8v0.8
		c0,0-1-0.1-1.6,0c-1,0.1-3.2,0.8-3.2,0.8c-1.6,0.8-2.4,1.6-2.4,1.6l-0.8,0.8V34h-6.3V43.6z M41.8,49.9c-4.8,0-8.7-3.9-8.7-8.7
		c0-4.8,3.9-8.7,8.7-8.7c4.8,0,8.7,3.9,8.7,8.7C50.5,46,46.6,49.9,41.8,49.9z"/>
	<path class="st0" d="M59.7,15.5c-3.6-5.4-8.7-9.5-14.6-12S32.6,0.4,26.2,1.6C19.9,2.9,14.1,6,9.5,10.5C5,15.1,1.9,20.9,0.6,27.2
		C-0.6,33.6,0,40.1,2.5,46.1s6.6,11,12,14.6c5.4,3.6,11.7,5.5,18.1,5.5c5.2,0,10.3-1.2,14.9-3.6s8.6-5.8,11.6-10
		c0.1-0.1,0.1-0.2,0.2-0.2c0-0.1,0.1-0.2,0-0.3c0-0.1,0-0.2-0.1-0.3c0-0.1-0.1-0.2-0.2-0.2c-0.1-0.1-0.2-0.1-0.3-0.1
		c-0.1,0-0.2,0-0.3,0c-0.1,0-0.2,0.1-0.3,0.1c-0.1,0.1-0.1,0.1-0.2,0.2c-4.3,6.1-10.7,10.4-17.9,12.2s-14.9,0.9-21.5-2.4
		c-6.7-3.3-11.9-8.9-14.8-15.8c-2.9-6.9-3.2-14.5-0.9-21.6c2.3-7.1,7-13.1,13.3-17c6.3-3.9,13.9-5.4,21.2-4.3
		c7.4,1.1,14.1,4.9,18.9,10.5c4.8,5.7,7.5,12.9,7.5,20.3c0,3.3-0.5,6.5-1.5,9.7c0,0.1,0,0.2,0,0.3c0,0.1,0,0.2,0.1,0.3
		c0,0.1,0.1,0.2,0.2,0.2s0.1,0.1,0.2,0.1c0.1,0,0.2,0,0.3,0c0.1,0,0.2,0,0.3-0.1c0.1,0,0.2-0.1,0.2-0.2c0.1-0.1,0.1-0.1,0.1-0.2
		c1.1-3.3,1.6-6.7,1.6-10.1C65.2,27.1,63.3,20.8,59.7,15.5z"/>
	<path class="st1" d="M41.8,32.5c-4.8,0-8.7,3.9-8.7,8.7c0,4.8,3.9,8.7,8.7,8.7c4.8,0,8.7-3.9,8.7-8.7
		C50.5,36.4,46.6,32.5,41.8,32.5z M42,40.6c1.7,0.3,3.8,0.7,3.8,2.4c0,1.1-1.2,2-2.8,2.4v1.3h-2.4v-1.3c-1.6-0.3-2.8-1.3-2.8-2.4
		h1.6c0,0.7,1.1,1.2,2.4,1.2s2.4-0.6,2.4-1.2c0-0.7-0.8-0.9-2.6-1.3c-1.7-0.3-3.8-0.7-3.8-2.4c0-1.1,1.2-2,2.8-2.4v-1.3H43V37
		c1.6,0.3,2.8,1.3,2.8,2.4h-1.6c0-0.7-1.1-1.2-2.4-1.2s-2.4,0.6-2.4,1.2C39.4,40,40.2,40.3,42,40.6z"/>
	<path class="st1" d="M34.6,34.8l0.8-0.8c0,0,0.8-0.8,2.4-1.6c0,0,2.2-0.7,3.2-0.8c0.6-0.1,1.6,0,1.6,0v-0.8h4.8L31.5,16.6
		L15.6,30.9h4.8v12.7h7.9V34h6.3V34.8z"/>
	<path class="st0" d="M41.8,38.1c1.3,0,2.4,0.6,2.4,1.2h1.6c0-1.1-1.2-2-2.8-2.4v-1.3h-2.4V37c-1.6,0.3-2.8,1.3-2.8,2.4
		c0,1.7,2.1,2.1,3.8,2.4c1.7,0.3,2.6,0.6,2.6,1.3c0,0.7-1.1,1.2-2.4,1.2s-2.4-0.6-2.4-1.2h-1.6c0,1.1,1.2,2,2.8,2.4v1.3H43v-1.3
		c1.6-0.3,2.8-1.3,2.8-2.4c0-1.7-2.1-2.1-3.8-2.4c-1.7-0.3-2.6-0.6-2.6-1.3C39.4,38.7,40.5,38.1,41.8,38.1z"/>
</g>
</svg>
